<svg width="195" height="269" viewBox="0 0 195 269" fill="none" xmlns="http://www.w3.org/2000/svg">
<g opacity="0.5" clip-path="url(#clip0_1_10143)">
<g style="mix-blend-mode:screen">
<path opacity="0.5" d="M134.092 146.89C135.191 147.489 136.187 148.26 137.045 149.173C137.599 150.314 137.962 151.539 138.119 152.799C138.119 154.545 136.374 152.799 135.165 150.516C133.957 148.233 132.615 145.95 134.092 146.89Z" fill="#7D7A7C"/>
<path d="M134.226 147.964C134.226 147.964 135.165 148.77 135.971 149.979C136.776 151.187 137.313 152.262 137.179 152.396C137.045 152.53 136.105 151.59 135.299 150.382C134.494 149.173 133.957 148.098 134.226 147.964Z" fill="#F9E6CF"/>
<path opacity="0.5" d="M126.843 153.202C128.163 153.439 129.406 153.992 130.467 154.813C131.025 156.082 131.3 157.457 131.272 158.842C131.272 160.588 128.856 158.842 127.648 157.096C126.44 155.351 124.829 152.665 126.843 153.202Z" fill="#7D7A7C"/>
<path d="M126.708 154.679C126.708 154.679 127.917 154.679 128.856 156.425C129.796 158.171 130.199 158.574 129.93 158.842C129.662 159.111 128.722 158.842 127.782 157.097C126.843 155.351 126.44 154.679 126.708 154.679Z" fill="#F9E6CF"/>
<path opacity="0.5" d="M131.541 177.644C132.749 176.167 134.36 174.824 135.165 174.824C136.593 175.379 137.813 176.365 138.655 177.644C140.132 179.525 137.045 180.465 135.165 180.465C133.286 180.465 129.93 179.659 131.541 177.644Z" fill="#7D7A7C"/>
<path d="M132.48 179.122C132.48 179.122 133.688 178.048 135.031 178.048C136.373 178.048 137.716 178.048 137.716 179.122C137.716 180.197 136.507 180.062 135.031 180.062C133.554 180.062 132.48 179.659 132.48 179.122Z" fill="#F9E6CF"/>
<path opacity="0.5" d="M156.777 175.765C155.886 174.023 155.47 172.078 155.569 170.124C155.569 170.124 158.79 170.124 161.341 170.124C163.891 170.124 163.757 174.287 162.549 175.765C161.341 177.242 158.119 178.988 156.777 175.765Z" fill="#7D7A7C"/>
<path d="M159.193 176.436C159.193 176.436 159.193 174.556 159.193 173.347C159.193 172.138 161.341 171.87 162.012 172.407C162.683 172.944 162.012 174.287 162.012 175.361C162.012 176.436 159.73 176.973 159.193 176.436Z" fill="#F9E6CF"/>
<path opacity="0.5" d="M155.166 167.035C154.837 165.712 154.837 164.329 155.166 163.006C156.113 161.956 157.316 161.17 158.656 160.723C160.401 160.051 159.596 163.006 158.656 164.752C157.717 166.498 155.569 169.184 155.166 167.035Z" fill="#7D7A7C"/>
<path d="M156.374 166.766C156.374 166.766 156.374 165.289 156.374 164.08C156.374 162.871 157.851 161.931 158.254 162.066C158.656 162.2 158.253 163.409 157.582 164.752C156.911 166.095 156.777 166.9 156.374 166.766Z" fill="#F9E6CF"/>
<path opacity="0.5" d="M162.28 139.369C160.749 139.346 159.257 138.879 157.985 138.026C157.985 138.026 157.985 135.34 157.985 133.459C157.985 131.579 161.341 133.459 162.28 134.802C163.22 136.145 164.697 139.772 162.28 139.369Z" fill="#7D7A7C"/>
<path d="M163.623 137.891C163.623 137.891 162.146 137.891 161.341 136.145C160.536 134.399 160.267 133.728 160.67 133.459C161.072 133.191 162.146 133.459 162.952 135.071C163.757 136.683 163.623 137.488 163.623 137.891Z" fill="#F9E6CF"/>
<path opacity="0.5" d="M153.824 130.639C152.687 130.041 151.682 129.218 150.871 128.222C150.342 127.038 150.068 125.757 150.065 124.461C150.065 122.85 151.944 125.267 152.884 127.013C153.824 128.759 155.435 131.579 153.824 130.639Z" fill="#7D7A7C"/>
<path d="M153.824 129.565C153.824 129.565 152.884 128.759 152.079 127.55C151.273 126.342 150.871 125.267 151.139 125.133C151.408 124.999 152.079 125.804 152.75 127.013C153.421 128.222 154.092 129.431 153.824 129.565Z" fill="#F9E6CF"/>
<path opacity="0.5" d="M157.045 114.389C155.567 115.504 153.793 116.159 151.945 116.269C150.964 114.659 150.539 112.772 150.736 110.897C150.736 107.808 154.092 108.211 155.837 109.151C157.582 110.091 159.864 113.046 157.045 114.389Z" fill="#7D7A7C"/>
<path d="M157.18 112.374C157.18 112.374 155.569 112.374 154.226 112.374C152.884 112.374 152.347 110.628 152.75 109.822C153.153 109.017 154.361 109.822 155.703 109.822C157.045 109.822 157.582 111.703 157.18 112.374Z" fill="#F9E6CF"/>
<path opacity="0.5" d="M140.132 124.864C138.924 126.879 137.313 128.625 136.642 128.625C135.971 128.625 134.092 126.879 133.018 124.864C131.944 122.85 134.629 121.104 136.642 121.104C138.656 121.104 141.877 122.178 140.132 124.864Z" fill="#7D7A7C"/>
<path d="M139.192 122.984C139.192 122.984 138.119 124.327 136.642 124.327C135.165 124.327 133.957 123.656 133.957 122.984C133.957 122.313 135.165 121.641 136.642 121.641C138.119 121.641 139.192 122.178 139.192 122.984Z" fill="#F9E6CF"/>
<path opacity="0.5" d="M112.48 136.414C113.337 137.821 113.67 139.486 113.419 141.115C113.419 141.115 111.003 142.458 108.855 142.592C106.708 142.726 106.842 139.503 107.782 137.757C108.721 136.011 111.406 133.862 112.48 136.414Z" fill="#7D7A7C"/>
<path d="M110.6 136.414C110.6 136.414 110.6 137.891 110.6 139.234C110.6 140.577 108.855 141.115 108.318 140.846C107.782 140.577 108.318 139.234 108.318 138.026C108.318 136.817 109.929 136.011 110.6 136.414Z" fill="#F9E6CF"/>
<path opacity="0.5" d="M124.695 201.819C126.306 198.998 128.319 196.581 128.991 196.715C129.662 196.85 131.138 199.536 131.81 202.759C132.039 203.409 132.098 204.107 131.981 204.786C131.864 205.466 131.575 206.104 131.141 206.639C130.708 207.175 130.144 207.59 129.504 207.845C128.864 208.1 128.169 208.187 127.486 208.097C126.803 208.006 126.154 207.742 125.602 207.33C125.05 206.917 124.613 206.369 124.333 205.739C124.053 205.11 123.94 204.418 124.003 203.732C124.066 203.045 124.305 202.387 124.695 201.819Z" fill="#7D7A7C"/>
<path d="M125.366 204.908C125.525 204.312 125.905 203.799 126.429 203.475C126.953 203.15 127.581 203.038 128.185 203.162C129.527 203.162 130.601 204.371 130.467 205.445C130.333 206.519 129.125 207.325 127.648 207.191C127.043 207.191 126.462 206.95 126.035 206.522C125.607 206.094 125.366 205.513 125.366 204.908Z" fill="#F9E6CF"/>
<path opacity="0.5" d="M139.058 190.403C139.385 188.857 140.182 187.449 141.34 186.374C142.936 186.384 144.487 186.901 145.77 187.852C147.783 189.195 145.77 191.209 143.353 191.881C140.937 192.552 138.252 192.955 139.058 190.403Z" fill="#7D7A7C"/>
<path d="M140.401 191.478C140.401 191.478 141.206 190.134 142.548 189.597C143.89 189.06 145.099 189.597 145.367 189.597C145.636 189.597 144.562 190.94 143.219 191.478C141.877 192.015 140.669 192.015 140.401 191.478Z" fill="#F9E6CF"/>
<path opacity="0.5" d="M178.254 197.924C176.644 194.835 175.57 191.746 176.107 191.209C178.501 190.921 180.928 191.341 183.087 192.418C183.748 192.622 184.35 192.983 184.842 193.469C185.334 193.956 185.701 194.555 185.912 195.214C186.123 195.874 186.171 196.574 186.053 197.257C185.935 197.939 185.655 198.582 185.235 199.133C184.764 199.665 184.166 200.068 183.496 200.303C182.826 200.539 182.107 200.599 181.407 200.477C180.708 200.356 180.051 200.058 179.499 199.611C178.947 199.164 178.519 198.583 178.254 197.924Z" fill="#7D7A7C"/>
<path d="M181.208 199.133C180.773 198.682 180.53 198.08 180.53 197.454C180.53 196.828 180.773 196.226 181.208 195.775C181.658 195.34 182.26 195.097 182.886 195.097C183.511 195.097 184.113 195.34 184.563 195.775C184.969 196.24 185.193 196.837 185.193 197.454C185.193 198.071 184.969 198.668 184.563 199.133C184.113 199.568 183.511 199.811 182.886 199.811C182.26 199.811 181.658 199.568 181.208 199.133Z" fill="#F9E6CF"/>
<path opacity="0.5" d="M190.47 91.4232C187.644 94.4357 184.213 96.8157 180.402 98.4069C181.043 94.3491 182.505 90.4647 184.698 86.9912C188.188 80.1419 193.154 78.9332 194.631 80.1419C196.107 81.3506 197.181 86.0511 190.47 91.4232Z" fill="#7D7A7C"/>
<path d="M193.826 86.3197C192.349 88.0656 190.336 88.7371 189.262 87.9313C188.188 87.1255 188.322 84.8424 189.262 83.0964C190.201 81.3505 192.752 80.5447 193.826 81.4848C194.9 82.4249 195.168 84.4395 193.826 86.3197Z" fill="#F9E6CF"/>
<path opacity="0.5" d="M179.865 121.507C177.046 122.581 174.227 123.118 173.69 122.581C173.154 122.044 173.691 119.224 174.764 116.403C174.99 115.798 175.367 115.262 175.86 114.845C176.353 114.428 176.945 114.145 177.579 114.024C178.213 113.903 178.867 113.946 179.479 114.151C180.091 114.357 180.64 114.716 181.073 115.195C181.592 115.606 181.988 116.152 182.218 116.773C182.448 117.394 182.504 118.066 182.38 118.717C182.255 119.367 181.955 119.971 181.512 120.463C181.068 120.955 180.499 121.316 179.865 121.507Z" fill="#7D7A7C"/>
<path d="M181.073 118.955C180.402 118.955 178.925 118.955 177.986 118.955C177.046 118.955 176.643 116.537 177.986 115.732C179.328 114.926 179.999 115.732 181.073 115.732C181.469 116.175 181.688 116.749 181.688 117.343C181.688 117.938 181.469 118.512 181.073 118.955Z" fill="#F9E6CF"/>
<path opacity="0.5" d="M181.342 163.812C178.792 161.797 176.778 159.514 177.047 158.843C177.315 158.171 180 157.097 183.221 156.828C183.879 156.706 184.557 156.756 185.19 156.973C185.822 157.19 186.389 157.566 186.834 158.066C187.279 158.565 187.588 159.171 187.731 159.824C187.874 160.478 187.847 161.157 187.651 161.797C187.527 162.465 187.224 163.087 186.774 163.597C186.325 164.107 185.746 164.485 185.099 164.692C184.451 164.899 183.76 164.926 183.099 164.771C182.437 164.616 181.83 164.284 181.342 163.812Z" fill="#7D7A7C"/>
<path d="M184.295 163.543C183.748 163.306 183.315 162.864 183.089 162.312C182.863 161.76 182.862 161.141 183.087 160.588C183.087 159.111 184.698 158.305 185.637 158.574C186.185 158.811 186.617 159.252 186.843 159.805C187.069 160.357 187.07 160.976 186.845 161.528C186.443 163.006 185.369 163.811 184.295 163.543Z" fill="#F9E6CF"/>
<path opacity="0.5" d="M178.389 174.153C176.644 172.004 175.435 169.721 175.704 169.049C175.972 168.378 178.523 167.572 181.207 167.438C183.892 167.304 184.698 170.661 183.892 172.541C183.087 174.422 180.671 176.839 178.389 174.153Z" fill="#7D7A7C"/>
<path d="M180.939 174.018C180.133 174.018 179.865 172.407 180.939 171.064C182.013 169.721 182.684 168.915 183.489 169.318C184.295 169.721 184.429 170.929 183.489 172.272C182.55 173.615 181.744 174.421 180.939 174.018Z" fill="#F9E6CF"/>
<path opacity="0.5" d="M176.107 218.741C175.129 216.457 174.804 213.946 175.167 211.488C175.167 211.488 178.926 212.294 181.879 214.309C182.511 214.648 183.051 215.137 183.453 215.731C183.854 216.326 184.106 217.01 184.185 217.723C184.264 218.437 184.169 219.159 183.907 219.827C183.646 220.496 183.226 221.091 182.684 221.561C182.101 221.986 181.417 222.253 180.7 222.334C179.983 222.415 179.257 222.308 178.593 222.024C177.93 221.739 177.352 221.287 176.916 220.711C176.48 220.136 176.201 219.457 176.107 218.741Z" fill="#7D7A7C"/>
<path d="M178.792 220.621C178.481 220.062 178.391 219.407 178.54 218.785C178.69 218.163 179.067 217.62 179.597 217.263C180.047 216.829 180.649 216.586 181.275 216.586C181.901 216.586 182.502 216.829 182.953 217.263C183.123 217.536 183.238 217.84 183.29 218.157C183.342 218.474 183.33 218.799 183.255 219.111C183.18 219.424 183.043 219.719 182.853 219.978C182.663 220.237 182.423 220.456 182.147 220.621C181.697 221.056 181.095 221.299 180.469 221.299C179.843 221.299 179.242 221.056 178.792 220.621Z" fill="#F9E6CF"/>
<path opacity="0.5" d="M180.671 248.69C179.714 245.744 179.484 242.611 180 239.557C180.671 239.557 183.892 241.84 187.114 245.332C190.336 248.824 189.53 253.39 187.785 254.33C186.04 255.271 182.013 254.733 180.671 248.69Z" fill="#7D7A7C"/>
<path d="M183.624 252.048C183.426 251.749 183.289 251.414 183.222 251.062C183.155 250.71 183.159 250.348 183.234 249.998C183.309 249.647 183.454 249.315 183.659 249.022C183.864 248.728 184.126 248.478 184.429 248.287C184.764 248.128 185.127 248.037 185.497 248.018C185.868 247.999 186.238 248.054 186.587 248.179C186.936 248.303 187.257 248.496 187.532 248.745C187.807 248.994 188.03 249.295 188.188 249.63C188.549 250.279 188.653 251.04 188.479 251.761C188.305 252.483 187.865 253.113 187.248 253.525C186.915 253.678 186.554 253.761 186.187 253.769C185.821 253.777 185.456 253.709 185.117 253.571C184.777 253.432 184.469 253.226 184.213 252.964C183.956 252.702 183.756 252.39 183.624 252.048Z" fill="#F9E6CF"/>
<path opacity="0.5" d="M153.018 226.396C152.62 223.442 152.99 220.435 154.092 217.666C154.898 217.666 157.582 220.487 159.999 224.381C162.415 228.276 160.804 232.574 158.925 233.111C157.045 233.648 153.153 232.305 153.018 226.396Z" fill="#7D7A7C"/>
<path d="M155.166 230.157C155.041 229.813 154.987 229.448 155.008 229.083C155.029 228.718 155.124 228.361 155.287 228.035C155.45 227.708 155.679 227.418 155.958 227.182C156.237 226.947 156.562 226.771 156.911 226.665C157.246 226.564 157.598 226.533 157.946 226.575C158.293 226.616 158.628 226.728 158.93 226.904C159.233 227.081 159.495 227.317 159.702 227.6C159.909 227.882 160.056 228.204 160.133 228.545C160.261 228.88 160.321 229.237 160.309 229.595C160.297 229.953 160.213 230.305 160.063 230.631C159.913 230.956 159.699 231.248 159.435 231.49C159.17 231.731 158.86 231.917 158.522 232.037C158.178 232.139 157.818 232.171 157.461 232.131C157.105 232.091 156.76 231.98 156.448 231.805C156.135 231.63 155.86 231.394 155.64 231.111C155.42 230.827 155.259 230.503 155.166 230.157Z" fill="#F9E6CF"/>
<path opacity="0.5" d="M135.836 204.236C136.776 201.147 138.118 198.596 138.924 198.461C139.729 198.327 141.608 200.61 143.085 203.43C143.437 203.983 143.639 204.619 143.67 205.274C143.701 205.929 143.56 206.58 143.261 207.164C142.963 207.748 142.517 208.243 141.968 208.601C141.419 208.959 140.786 209.168 140.132 209.205C139.476 209.341 138.796 209.3 138.162 209.085C137.528 208.87 136.963 208.49 136.525 207.983C136.087 207.477 135.792 206.862 135.671 206.203C135.55 205.545 135.607 204.866 135.836 204.236Z" fill="#7D7A7C"/>
<path d="M136.776 206.788C136.776 205.848 137.716 204.773 139.192 204.639C140.669 204.505 141.877 204.639 142.011 206.251C141.945 206.844 141.661 207.392 141.215 207.789C140.769 208.186 140.192 208.403 139.595 208.4C139.304 208.481 139 208.504 138.7 208.466C138.401 208.429 138.111 208.333 137.849 208.183C137.587 208.033 137.357 207.832 137.173 207.593C136.989 207.354 136.854 207.08 136.776 206.788Z" fill="#F9E6CF"/>
<path opacity="0.5" d="M153.689 243.184C153.405 239.92 153.959 236.637 155.3 233.648C155.972 233.648 158.522 237.14 160.67 241.572C162.817 246.004 160.67 250.57 159.193 250.973C157.716 251.376 153.421 249.63 153.689 243.184Z" fill="#7D7A7C"/>
<path d="M155.569 247.347C155.394 246.985 155.302 246.588 155.301 246.186C155.299 245.784 155.388 245.387 155.56 245.023C155.733 244.66 155.985 244.34 156.297 244.088C156.61 243.835 156.975 243.655 157.366 243.563C157.758 243.47 158.165 243.466 158.557 243.552C158.95 243.638 159.318 243.811 159.635 244.058C159.953 244.305 160.21 244.62 160.389 244.98C160.568 245.34 160.664 245.736 160.67 246.138C160.794 246.499 160.843 246.882 160.815 247.263C160.787 247.644 160.682 248.015 160.507 248.354C160.331 248.693 160.088 248.993 159.793 249.235C159.498 249.478 159.157 249.658 158.79 249.764C157.448 250.167 155.971 248.69 155.569 247.347Z" fill="#F9E6CF"/>
<path opacity="0.5" d="M126.172 257.151C127.38 252.719 128.99 248.824 129.796 248.824C131.652 251.27 132.895 254.126 133.42 257.151C134.763 262.657 131.675 265.478 129.796 265.478C127.917 265.478 124.561 262.926 126.172 257.151Z" fill="#7D7A7C"/>
<path d="M127.111 262.12C127.138 261.59 127.322 261.08 127.639 260.654C127.956 260.228 128.392 259.905 128.892 259.727C129.392 259.549 129.933 259.523 130.448 259.653C130.963 259.783 131.427 260.062 131.783 260.456C132.139 260.849 132.371 261.34 132.448 261.865C132.526 262.39 132.446 262.927 132.219 263.407C131.992 263.887 131.628 264.289 131.173 264.562C130.718 264.835 130.192 264.966 129.662 264.941C129.309 264.923 128.963 264.837 128.644 264.686C128.325 264.534 128.039 264.322 127.802 264.06C127.565 263.798 127.382 263.492 127.263 263.159C127.145 262.826 127.093 262.473 127.111 262.12Z" fill="#F9E6CF"/>
<path opacity="0.5" d="M136.776 230.828C137.85 227.068 139.326 223.71 140.132 223.71C140.937 223.71 142.682 226.799 144.025 230.559C145.367 234.32 142.682 237.677 140.669 237.677C138.655 237.677 134.762 235.931 136.776 230.828Z" fill="#7D7A7C"/>
<path d="M136.776 234.454C136.806 233.774 137.08 233.127 137.549 232.633C138.018 232.14 138.649 231.832 139.327 231.768C139.701 231.68 140.09 231.678 140.465 231.762C140.84 231.846 141.191 232.014 141.492 232.253C141.794 232.492 142.037 232.796 142.204 233.142C142.371 233.488 142.458 233.868 142.458 234.253C142.458 234.637 142.371 235.017 142.204 235.363C142.037 235.709 141.794 236.013 141.492 236.252C141.191 236.491 140.84 236.659 140.465 236.743C140.09 236.827 139.701 236.825 139.327 236.737C138.694 236.741 138.083 236.509 137.612 236.087C137.141 235.665 136.843 235.083 136.776 234.454Z" fill="#F9E6CF"/>
<path opacity="0.5" d="M142.011 257.285C142.042 253.499 142.962 249.773 144.696 246.407C146.89 249.45 148.401 252.932 149.125 256.614C151.273 263.463 149.125 267.358 146.575 267.492C144.025 267.626 141.071 264.806 142.011 257.285Z" fill="#7D7A7C"/>
<path d="M143.488 262.12C143.488 260.106 144.293 258.36 145.636 258.225C146.978 258.091 148.455 259.703 148.589 261.717C148.723 263.732 147.783 265.612 146.307 265.746C144.83 265.881 143.622 264.672 143.488 262.12Z" fill="#F9E6CF"/>
<path opacity="0.5" d="M116.775 253.928C117.692 250.197 119.334 246.683 121.607 243.586C123.17 247.096 123.993 250.891 124.024 254.733C124.024 261.986 121.205 265.343 119.191 265.075C117.178 264.806 114.359 261.314 116.775 253.928Z" fill="#7D7A7C"/>
<path d="M117.178 259.568C117.178 257.419 118.789 255.942 120.131 256.076C121.473 256.211 122.547 258.091 122.413 260.105C122.279 262.12 120.802 263.732 119.326 263.597C117.849 263.463 116.909 262.12 117.178 259.568Z" fill="#F9E6CF"/>
<path opacity="0.5" d="M110.601 221.83C112.614 219.009 115.03 216.726 115.701 216.861C116.995 218.95 117.605 221.392 117.446 223.844C117.622 224.539 117.609 225.267 117.41 225.955C117.211 226.642 116.831 227.265 116.312 227.757C115.792 228.25 115.151 228.595 114.454 228.757C113.757 228.919 113.029 228.892 112.345 228.679C111.646 228.499 111.007 228.135 110.497 227.623C109.986 227.112 109.623 226.472 109.444 225.772C109.266 225.071 109.279 224.336 109.483 223.642C109.686 222.949 110.072 222.323 110.601 221.83Z" fill="#7D7A7C"/>
<path d="M110.6 224.919C110.864 224.358 111.323 223.912 111.891 223.665C112.459 223.418 113.098 223.386 113.688 223.576C114.007 223.624 114.313 223.737 114.589 223.906C114.864 224.075 115.102 224.298 115.29 224.561C115.478 224.823 115.611 225.121 115.681 225.437C115.752 225.752 115.759 226.078 115.701 226.396C115.462 226.978 115.006 227.443 114.43 227.694C113.853 227.945 113.202 227.961 112.614 227.739C112.295 227.69 111.988 227.578 111.713 227.409C111.438 227.24 111.2 227.017 111.012 226.754C110.824 226.491 110.691 226.194 110.62 225.878C110.55 225.563 110.543 225.237 110.6 224.919Z" fill="#F9E6CF"/>
<path opacity="0.5" d="M108.587 206.385C110.734 204.102 113.285 202.49 113.956 202.759C114.627 203.027 115.164 205.982 115.164 209.205C115.18 209.848 115.032 210.483 114.733 211.052C114.433 211.62 113.994 212.103 113.455 212.453C112.917 212.803 112.298 213.009 111.657 213.052C111.016 213.095 110.375 212.973 109.795 212.697C109.161 212.506 108.592 212.145 108.148 211.653C107.705 211.161 107.405 210.557 107.281 209.907C107.156 209.257 107.212 208.584 107.442 207.963C107.672 207.343 108.068 206.797 108.587 206.385Z" fill="#7D7A7C"/>
<path d="M108.318 209.205C108.318 208.265 110.198 207.997 111.54 208.534C112.882 209.071 113.554 210.28 113.151 211.22C112.843 211.731 112.348 212.102 111.771 212.252C111.194 212.403 110.581 212.322 110.063 212.026C108.721 211.488 107.916 210.28 108.318 209.205Z" fill="#F9E6CF"/>
<path opacity="0.5" d="M97.5797 246.541C99.2475 242.158 101.756 238.143 104.963 234.723C105.759 239.164 105.759 243.711 104.963 248.153C103.755 257.151 99.459 260.643 97.5797 260.105C95.7004 259.568 93.15 255.271 97.5797 246.541Z" fill="#7D7A7C"/>
<path d="M96.506 253.525C97.1771 250.973 98.9221 249.227 100.399 249.63C101.875 250.033 102.278 252.451 101.473 255.002C100.667 257.554 98.9222 259.3 97.5799 258.763C96.2375 258.226 95.7006 256.077 96.506 253.525Z" fill="#F9E6CF"/>
<path opacity="0.5" d="M195.705 200.207C193.691 197.521 192.483 194.566 192.886 193.895C195.121 193.242 197.496 193.242 199.732 193.895C200.423 193.978 201.081 194.239 201.641 194.652C202.201 195.065 202.645 195.616 202.929 196.252C203.213 196.888 203.327 197.586 203.261 198.279C203.195 198.973 202.95 199.637 202.551 200.207C202.217 200.824 201.722 201.339 201.12 201.698C200.517 202.057 199.829 202.247 199.128 202.247C198.426 202.247 197.738 202.057 197.136 201.698C196.533 201.339 196.039 200.824 195.705 200.207Z" fill="#7D7A7C"/>
<path opacity="0.5" d="M183.624 151.993C182.013 150.784 180.536 149.173 180.536 148.501C180.536 147.83 182.013 145.949 183.624 144.875C185.235 143.801 186.711 146.487 186.711 148.501C186.711 150.516 185.906 153.739 183.624 151.993Z" fill="#7D7A7C"/>
<path d="M185.235 151.053C185.235 151.053 184.161 149.979 184.161 148.501C184.161 147.024 184.161 145.815 185.235 145.815C186.308 145.815 186.308 147.024 186.308 148.501C186.308 149.979 185.906 151.053 185.235 151.053Z" fill="#F9E6CF"/>
<path opacity="0.5" d="M190.47 126.745C186.846 126.745 183.49 126.745 183.221 126.073C182.953 125.402 184.832 122.581 187.651 120.164C188.121 119.622 188.716 119.202 189.384 118.94C190.052 118.679 190.774 118.583 191.487 118.663C192.2 118.742 192.883 118.993 193.477 119.395C194.072 119.797 194.56 120.337 194.9 120.97C196.242 122.716 195.705 126.476 190.47 126.745Z" fill="#7D7A7C"/>
<path d="M193.557 124.595C193.257 124.702 192.94 124.748 192.622 124.731C192.305 124.714 191.994 124.635 191.707 124.498C191.42 124.361 191.163 124.168 190.951 123.931C190.739 123.695 190.575 123.418 190.47 123.118C190.183 122.528 190.134 121.849 190.334 121.224C190.534 120.599 190.967 120.075 191.544 119.761C192.15 119.609 192.79 119.674 193.353 119.943C193.917 120.213 194.369 120.671 194.631 121.238C194.918 121.828 194.967 122.507 194.767 123.132C194.567 123.757 194.133 124.282 193.557 124.595Z" fill="#F9E6CF"/>
<path opacity="0.5" d="M183.624 77.4557C180.537 80.276 177.583 82.4248 176.912 82.0219C176.241 81.619 176.912 77.9929 176.912 73.9639C176.912 69.9348 181.879 68.3232 183.624 69.2633C185.369 70.2034 187.517 74.0981 183.624 77.4557Z" fill="#7D7A7C"/>
<path d="M184.563 74.0984C184.225 74.7039 183.661 75.1502 182.993 75.3391C182.326 75.528 181.611 75.444 181.006 75.1056C180.401 74.7673 179.955 74.2022 179.766 73.5348C179.577 72.8673 179.661 72.1522 179.999 71.5467C180.166 71.2551 180.389 70.9995 180.655 70.7943C180.921 70.5892 181.225 70.4386 181.549 70.3513C181.874 70.2639 182.212 70.2415 182.545 70.2853C182.878 70.3291 183.199 70.4383 183.489 70.6066C183.792 70.7621 184.061 70.9766 184.279 71.2376C184.498 71.4985 184.662 71.8006 184.762 72.126C184.862 72.4514 184.896 72.7936 184.862 73.1323C184.828 73.471 184.726 73.7995 184.563 74.0984Z" fill="#F9E6CF"/>
<path opacity="0.5" d="M167.784 105.793C164.562 108.211 161.341 109.823 160.804 109.42C160.445 106.774 160.816 104.08 161.878 101.63C163.354 97.0639 167.247 96.7953 168.858 98.004C170.469 99.2127 171.945 102.705 167.784 105.793Z" fill="#7D7A7C"/>
<path d="M168.992 102.301C168.519 102.745 167.896 102.992 167.247 102.992C166.599 102.992 165.975 102.745 165.502 102.301C165.267 102.076 165.079 101.805 164.951 101.505C164.823 101.205 164.757 100.882 164.757 100.556C164.757 100.229 164.823 99.9063 164.951 99.6063C165.079 99.3062 165.267 99.0352 165.502 98.8096C165.975 98.3658 166.599 98.1188 167.247 98.1188C167.896 98.1188 168.519 98.3658 168.992 98.8096C169.228 99.0352 169.415 99.3062 169.543 99.6063C169.671 99.9063 169.737 100.229 169.737 100.556C169.737 100.882 169.671 101.205 169.543 101.505C169.415 101.805 169.228 102.076 168.992 102.301Z" fill="#F9E6CF"/>
<path opacity="0.5" d="M188.859 58.2507C185.235 62.6826 181.61 66.1744 180.939 65.9058C180.607 62.1594 181.159 58.3874 182.55 54.8931C184.295 48.0438 188.725 46.2978 190.47 47.238C192.215 48.1781 193.691 52.3414 188.859 58.2507Z" fill="#7D7A7C"/>
<path d="M190.47 53.013C189.53 54.7589 187.785 55.8333 186.443 55.1618C185.895 54.5275 185.593 53.7171 185.593 52.8787C185.593 52.0403 185.895 51.2299 186.443 50.5956C187.382 48.8497 189.262 47.9095 190.47 48.581C191.678 49.2526 191.409 51.1328 190.47 53.013Z" fill="#F9E6CF"/>
<path opacity="0.5" d="M163.623 92.3635C161.475 93.7065 159.059 94.5123 158.388 94.1094C157.405 92.4533 157.07 90.4916 157.448 88.6031C157.448 85.5141 160.938 85.917 162.683 86.8571C164.428 87.7972 166.307 90.6176 163.623 92.3635Z" fill="#7D7A7C"/>
<path d="M163.623 89.9457C163.623 90.7515 161.878 89.9457 160.535 89.9457C159.193 89.9457 158.656 88.0655 159.059 87.3939C159.462 86.7224 160.804 86.7224 162.146 87.3939C163.489 88.0655 163.623 89.2741 163.623 89.9457Z" fill="#F9E6CF"/>
<path opacity="0.5" d="M183.087 36.2253C179.731 41.1945 176.241 45.0892 175.57 44.8206C175.289 41.0869 175.792 37.3357 177.046 33.8079C178.389 26.6899 182.684 24.4068 184.564 25.2126C186.443 26.0184 187.517 29.7789 183.087 36.2253Z" fill="#7D7A7C"/>
<path d="M184.295 30.7189C183.489 32.7334 181.744 33.8078 180.536 33.2706C179.328 32.7334 178.657 30.7189 179.597 28.7044C180.536 26.6899 182.147 25.6154 183.355 26.287C184.063 26.7535 184.559 27.4803 184.735 28.3099C184.91 29.1395 184.752 30.0051 184.295 30.7189Z" fill="#F9E6CF"/>
<path opacity="0.5" d="M115.164 159.648C116.201 160.363 117.034 161.335 117.581 162.469C117.865 163.751 117.865 165.081 117.581 166.363C117.581 167.975 115.836 165.289 115.164 163.409C114.493 161.529 113.688 158.44 115.164 159.648Z" fill="#7D7A7C"/>
<path d="M114.896 160.723C114.896 160.723 115.701 161.663 116.238 163.006C116.775 164.349 117.044 165.558 116.238 165.558C115.433 165.558 115.433 164.752 114.896 163.409C114.359 162.066 114.627 160.857 114.896 160.723Z" fill="#F9E6CF"/>
<path opacity="0.5" d="M105.365 157.231C106.971 157.306 108.516 157.868 109.795 158.843C110.046 160.471 109.713 162.136 108.855 163.543C107.782 165.692 105.365 163.543 104.426 161.797C103.486 160.051 102.815 156.694 105.365 157.231Z" fill="#7D7A7C"/>
<path d="M104.56 158.708C104.56 158.708 106.036 158.708 106.707 160.588C107.379 162.469 107.513 163.006 106.707 163.409C105.902 163.812 105.231 163.409 104.56 161.528C103.889 159.648 104.023 158.977 104.56 158.708Z" fill="#F9E6CF"/>
<path opacity="0.5" d="M109.929 187.046C111.339 185.754 113.128 184.953 115.03 184.763C115.03 184.763 116.372 187.583 116.372 190.269C116.372 192.955 112.882 193.492 111.137 192.686C109.392 191.881 106.708 189.06 109.929 187.046Z" fill="#7D7A7C"/>
<path d="M109.929 189.463C109.929 188.792 111.674 188.657 113.017 189.463C114.359 190.269 115.03 191.209 114.628 192.015C114.225 192.821 112.883 192.821 111.674 192.015C110.466 191.209 109.124 190.269 109.929 189.463Z" fill="#F9E6CF"/>
<path opacity="0.5" d="M89.2572 189.597C91.1322 188.982 93.1543 188.982 95.0292 189.597C95.1869 191.59 94.6665 193.578 93.5526 195.238C91.9418 198.193 88.8544 196.715 87.6463 195.238C86.4382 193.761 85.6329 190.269 89.2572 189.597Z" fill="#7D7A7C"/>
<path d="M87.9146 191.746C87.9146 191.746 89.9282 191.746 90.7336 192.955C91.539 194.164 91.8075 195.507 90.7336 196.044C90.1966 196.2 89.6218 196.165 89.1077 195.944C88.5937 195.724 88.1721 195.332 87.9146 194.835C87.3777 193.761 87.2435 192.283 87.9146 191.746Z" fill="#F9E6CF"/>
<path opacity="0.5" d="M84.6933 145.278C87.2438 146.621 89.2574 148.501 89.2574 149.173C89.2574 149.844 86.9754 151.456 84.1565 152.53C81.3375 153.605 79.5925 150.516 79.7267 148.501C79.8609 146.487 81.4717 143.398 84.6933 145.278Z" fill="#7D7A7C"/>
<path d="M82.1426 146.084C83.0823 146.084 83.7536 147.292 83.7536 148.77C83.7536 150.247 82.8139 151.321 81.8743 151.321C80.9347 151.321 80.2635 149.978 80.3977 148.501C80.532 147.024 81.3372 145.949 82.1426 146.084Z" fill="#F9E6CF"/>
<path opacity="0.5" d="M114.896 123.79C115.412 125.452 115.412 127.231 114.896 128.893C113.229 129.371 111.462 129.371 109.795 128.893C107.111 128.087 108.453 125.133 109.795 123.79C111.138 122.447 114.225 120.835 114.896 123.79Z" fill="#7D7A7C"/>
<path d="M112.883 123.118C112.883 123.118 112.883 124.73 111.809 125.804C110.735 126.878 109.527 127.147 109.124 126.61C108.721 126.073 109.124 124.998 110.064 123.924C111.003 122.849 112.346 122.581 112.883 123.118Z" fill="#F9E6CF"/>
<path opacity="0.5" d="M115.701 113.18C116.356 115.141 116.356 117.262 115.701 119.224C113.654 119.452 111.588 119.029 109.795 118.015C106.573 116.806 107.782 113.449 109.795 112.106C111.809 110.763 114.627 109.554 115.701 113.18Z" fill="#7D7A7C"/>
<path d="M113.419 112.106C114.09 112.777 113.419 114.12 112.614 115.06C111.808 116 110.198 116.269 109.527 115.06C108.855 113.851 109.527 113.046 110.332 111.971C111.137 110.897 112.748 111.3 113.419 112.106Z" fill="#F9E6CF"/>
<path opacity="0.5" d="M100.399 124.864C100.895 126.575 100.895 128.391 100.399 130.102C98.6961 130.647 96.8661 130.647 95.1635 130.102C92.3446 130.102 93.4185 126.341 95.1635 124.864C96.9086 123.387 99.459 121.909 100.399 124.864Z" fill="#7D7A7C"/>
<path d="M98.2509 124.327C98.2509 124.327 98.2509 126.073 98.2509 127.148C98.2509 128.222 96.103 128.759 95.5661 128.356C95.0291 127.953 95.5661 126.61 96.2373 125.536C96.9085 124.461 97.714 123.924 98.2509 124.327Z" fill="#F9E6CF"/>
<path opacity="0.5" d="M96.5059 104.45C97.714 107.674 98.3853 110.628 97.8484 111.166C97.3114 111.703 94.224 111.166 91.2708 109.285C90.6288 109.045 90.0587 108.645 89.6144 108.123C89.1701 107.601 88.8664 106.974 88.732 106.302C88.5976 105.629 88.6369 104.934 88.8463 104.281C89.0557 103.628 89.4281 103.039 89.9284 102.57C90.419 102.07 91.0355 101.712 91.7126 101.533C92.3898 101.354 93.1026 101.361 93.776 101.554C94.4494 101.746 95.0585 102.117 95.539 102.627C96.0194 103.137 96.3534 103.767 96.5059 104.45Z" fill="#7D7A7C"/>
<path d="M93.284 102.973C93.7102 103.401 93.9497 103.981 93.9497 104.585C93.9497 105.189 93.7102 105.768 93.284 106.196C92.8193 106.603 92.2231 106.826 91.606 106.826C90.989 106.826 90.3928 106.603 89.9281 106.196C89.6371 105.665 89.5343 105.051 89.6364 104.453C89.7386 103.856 90.0396 103.311 90.4906 102.906C90.9416 102.502 91.5162 102.261 92.1208 102.225C92.7254 102.188 93.3246 102.357 93.821 102.705L93.284 102.973Z" fill="#F9E6CF"/>
<path opacity="0.5" d="M99.459 102.436C100.13 105.256 100.13 107.942 99.459 108.345C98.7878 108.748 96.2373 108.345 93.6868 106.734C91.1364 105.122 92.076 102.033 93.6868 100.69C95.2976 99.347 98.6536 98.6756 99.459 102.436Z" fill="#7D7A7C"/>
<path d="M97.1772 100.959C97.4106 101.495 97.4292 102.101 97.2294 102.65C97.0296 103.2 96.6265 103.652 96.1033 103.913C95.0294 104.853 93.5529 104.988 93.0159 103.913C92.479 102.839 93.016 101.899 94.0898 100.959C94.5236 100.598 95.0696 100.401 95.6334 100.401C96.1972 100.401 96.7434 100.598 97.1772 100.959Z" fill="#F9E6CF"/>
<path opacity="0.5" d="M113.017 89.543C113.017 92.7662 112.211 95.7208 111.54 95.9894C110.869 96.258 108.453 94.3778 106.305 91.9604C105.86 91.4905 105.54 90.9172 105.373 90.2923C105.205 89.6675 105.196 89.0108 105.345 88.3814C105.495 87.7521 105.799 87.17 106.23 86.6877C106.661 86.2054 107.206 85.8381 107.814 85.619C108.422 85.3998 109.076 85.3358 109.715 85.4326C110.354 85.5294 110.96 85.784 111.476 86.1734C111.992 86.5628 112.403 87.0748 112.672 87.6631C112.941 88.2514 113.06 88.8975 113.017 89.543Z" fill="#7D7A7C"/>
<path d="M111.137 87.5283C111.137 88.6027 111.137 89.8114 109.392 90.3486C108.828 90.5814 108.202 90.6151 107.616 90.4442C107.031 90.2734 106.521 89.9081 106.171 89.4085C106.159 88.8267 106.328 88.2556 106.654 87.7737C106.98 87.2917 107.447 86.9225 107.991 86.7166C108.535 86.5106 109.13 86.4781 109.693 86.6234C110.256 86.7687 110.761 87.0848 111.137 87.5283Z" fill="#F9E6CF"/>
<path opacity="0.5" d="M139.595 94.5122C138.253 98.1383 136.239 101.227 135.568 101.093C134.897 100.959 133.42 97.8697 132.481 93.975C131.541 90.0802 134.494 87.2599 136.508 87.3942C138.521 87.5286 141.609 89.8117 139.595 94.5122Z" fill="#7D7A7C"/>
<path d="M138.924 90.886C138.891 91.2218 138.791 91.5477 138.631 91.8447C138.47 92.1417 138.253 92.404 137.991 92.6163C137.729 92.8286 137.427 92.9868 137.103 93.0817C136.78 93.1766 136.44 93.2063 136.105 93.1691C135.452 93.1347 134.837 92.8508 134.388 92.3759C133.938 91.901 133.688 91.2715 133.689 90.6174C133.722 90.2816 133.822 89.9558 133.982 89.6588C134.142 89.3618 134.36 89.0995 134.622 88.8872C134.884 88.6748 135.186 88.5166 135.51 88.4217C135.833 88.3268 136.172 88.2971 136.508 88.3343C136.837 88.3338 137.162 88.4005 137.464 88.5303C137.767 88.6601 138.039 88.8503 138.265 89.0892C138.492 89.3281 138.667 89.6107 138.78 89.9197C138.893 90.2286 138.942 90.5575 138.924 90.886Z" fill="#F9E6CF"/>
<path opacity="0.5" d="M76.3706 163.006C78.9534 162.716 81.5648 163.182 83.8877 164.349C83.8877 165.02 81.74 167.706 78.5184 169.855C77.9846 170.405 77.3246 170.815 76.5959 171.051C75.8673 171.287 75.0919 171.341 74.3375 171.209C73.5832 171.076 72.8727 170.761 72.2678 170.291C71.6629 169.821 71.182 169.21 70.867 168.512C70.33 166.632 71.2697 162.871 76.3706 163.006Z" fill="#7D7A7C"/>
<path d="M73.2834 165.02C73.9239 164.854 74.604 164.943 75.1801 165.268C75.7562 165.594 76.1831 166.131 76.3708 166.766C76.5902 167.39 76.559 168.075 76.2835 168.676C76.008 169.278 75.5099 169.748 74.8942 169.989C74.2537 170.156 73.5736 170.067 72.9975 169.741C72.4214 169.415 71.9945 168.878 71.8068 168.243C71.5874 167.619 71.6186 166.935 71.8941 166.333C72.1696 165.732 72.6677 165.261 73.2834 165.02Z" fill="#F9E6CF"/>
<path opacity="0.5" d="M69.6591 171.064C71.6922 171.064 73.6704 171.723 75.2969 172.944C74.7471 174.854 73.6784 176.574 72.2096 177.913C69.9276 180.331 67.3771 177.913 66.7059 176.033C66.0348 174.153 66.706 170.661 69.6591 171.064Z" fill="#7D7A7C"/>
<path d="M68.451 172.81C69.2564 172.81 70.3301 172.81 70.8671 174.69C71.404 176.57 70.867 177.376 70.1959 177.645C69.5247 177.913 68.3167 177.645 67.7798 175.765C67.2428 173.884 67.6456 173.078 68.451 172.81Z" fill="#F9E6CF"/>
<path opacity="0.5" d="M67.7798 192.149C70.2553 191.185 72.945 190.907 75.5654 191.344C75.5654 192.015 74.223 195.104 71.6725 198.193C71.2752 198.856 70.7287 199.418 70.0763 199.833C69.4239 200.248 68.6836 200.504 67.9146 200.583C67.1455 200.661 66.3689 200.558 65.6463 200.283C64.9238 200.008 64.2754 199.569 63.7527 198.999C62.6789 197.253 62.6789 193.358 67.7798 192.149Z" fill="#7D7A7C"/>
<path d="M65.2293 194.97C65.8236 194.664 66.5106 194.59 67.1561 194.764C67.8016 194.938 68.359 195.346 68.7193 195.91C68.9178 196.178 69.0585 196.485 69.1325 196.811C69.2064 197.137 69.2119 197.475 69.1488 197.803C69.0858 198.131 68.9555 198.442 68.766 198.718C68.5766 198.993 68.3322 199.226 68.0483 199.402C67.4775 199.753 66.7913 199.866 66.1381 199.715C65.485 199.564 64.9173 199.162 64.5581 198.596C64.1863 198.02 64.0486 197.323 64.1734 196.649C64.2982 195.975 64.676 195.374 65.2293 194.97Z" fill="#F9E6CF"/>
<path opacity="0.5" d="M86.0356 246.944C88.9887 243.049 91.9419 240.095 92.6131 240.363C93.4654 243.439 93.4654 246.689 92.6131 249.764C91.8077 255.539 87.7806 257.017 86.0356 256.211C84.2905 255.405 82.1428 251.779 86.0356 246.944Z" fill="#7D7A7C"/>
<path d="M85.2303 251.241C85.3713 250.933 85.5716 250.655 85.82 250.424C86.0683 250.193 86.3597 250.013 86.6776 249.894C86.9954 249.776 87.3334 249.721 87.6724 249.733C88.0114 249.746 88.3446 249.825 88.6531 249.966C88.9616 250.107 89.2393 250.307 89.4704 250.556C89.7014 250.804 89.8814 251.096 89.9998 251.414C90.1182 251.732 90.1729 252.07 90.1606 252.409C90.1484 252.748 90.0694 253.082 89.9283 253.39C89.8226 253.74 89.6468 254.065 89.4114 254.344C89.1759 254.624 88.886 254.852 88.5593 255.015C88.2326 255.179 87.8759 255.274 87.5112 255.295C87.1465 255.315 86.7815 255.262 86.4383 255.136C86.0973 254.966 85.7942 254.729 85.5473 254.439C85.3005 254.149 85.115 253.811 85.0021 253.447C84.8892 253.083 84.8513 252.7 84.8905 252.321C84.9297 251.942 85.0453 251.575 85.2303 251.241Z" fill="#F9E6CF"/>
<path opacity="0.5" d="M91.1365 209.206C92.7073 207.921 94.6212 207.127 96.6399 206.922C97.3111 206.922 97.5796 210.146 97.3111 212.966C97.0427 215.786 93.4183 216.055 91.8075 215.115C90.1967 214.175 88.0491 211.22 91.1365 209.206Z" fill="#7D7A7C"/>
<path d="M90.7339 211.757C90.7339 210.951 92.6131 210.951 93.8212 211.757C95.0293 212.563 95.7004 213.771 95.1634 214.577C94.6265 215.383 93.2842 215.383 92.0761 214.577C90.868 213.771 90.197 212.563 90.7339 211.757Z" fill="#F9E6CF"/>
<path opacity="0.5" d="M75.2967 220.621C78.5183 218.069 81.74 216.189 82.277 216.592C82.6381 219.326 82.2675 222.106 81.2031 224.65C79.8607 229.351 75.8336 229.753 74.2228 228.545C72.612 227.336 71.1355 223.844 75.2967 220.621Z" fill="#7D7A7C"/>
<path d="M74.0888 224.247C74.3143 224.011 74.5852 223.824 74.8851 223.696C75.185 223.568 75.5078 223.502 75.8339 223.502C76.16 223.502 76.4825 223.568 76.7824 223.696C77.0823 223.824 77.3532 224.011 77.5788 224.247C78.1447 224.606 78.5466 225.174 78.6973 225.828C78.8481 226.481 78.7355 227.168 78.3842 227.739C78.147 227.978 77.8648 228.169 77.5538 228.298C77.2428 228.428 76.9091 228.495 76.5721 228.495C76.2351 228.495 75.9014 228.428 75.5903 228.298C75.2793 228.169 74.9971 227.978 74.76 227.739C74.4761 227.563 74.2315 227.33 74.0421 227.055C73.8526 226.78 73.7223 226.468 73.6593 226.14C73.5962 225.812 73.6019 225.474 73.6758 225.149C73.7498 224.823 73.8903 224.516 74.0888 224.247Z" fill="#F9E6CF"/>
<path opacity="0.5" d="M60.2626 224.65C64.4239 222.233 68.4508 220.621 68.9877 221.158C69.5247 221.696 67.9139 225.59 65.2292 229.754C62.5445 233.917 57.8464 234.857 56.5041 233.38C55.1617 231.902 54.759 227.873 60.2626 224.65Z" fill="#7D7A7C"/>
<path d="M57.712 228.545C58.2587 228.035 58.9781 227.751 59.7254 227.751C60.4728 227.751 61.1924 228.035 61.7391 228.545C62.007 228.807 62.2197 229.121 62.365 229.467C62.5103 229.813 62.5852 230.184 62.5852 230.559C62.5852 230.934 62.5103 231.306 62.365 231.652C62.2197 231.998 62.007 232.311 61.7391 232.574C61.2585 233.055 60.6065 233.325 59.9268 233.325C59.2471 233.325 58.5953 233.055 58.1147 232.574C57.6341 232.093 57.364 231.441 57.364 230.761C57.364 230.081 57.6341 229.428 58.1147 228.948L57.712 228.545Z" fill="#F9E6CF"/>
<path opacity="0.5" d="M47.9131 218.204C50.6017 216.576 53.6378 215.609 56.7724 215.383C56.0342 218.465 54.5604 221.322 52.477 223.71C49.1211 228.545 44.8256 228.142 43.6175 226.53C42.4094 224.919 42.8122 220.89 47.9131 218.204Z" fill="#7D7A7C"/>
<path d="M45.0941 221.83C45.3399 221.511 45.6539 221.253 46.013 221.072C46.3721 220.891 46.7672 220.794 47.169 220.786C47.5709 220.779 47.9693 220.862 48.3349 221.029C48.7004 221.196 49.0237 221.443 49.281 221.752C49.5383 222.061 49.723 222.424 49.8215 222.814C49.92 223.204 49.9297 223.611 49.85 224.005C49.7702 224.399 49.6029 224.77 49.3606 225.091C49.1183 225.412 48.8071 225.674 48.45 225.859C48.1875 226.127 47.8742 226.34 47.5285 226.485C47.1827 226.63 46.8116 226.705 46.4366 226.705C46.0615 226.705 45.6902 226.63 45.3444 226.485C44.9987 226.34 44.6854 226.127 44.4229 225.859C43.9947 225.23 43.8256 224.46 43.9506 223.709C44.0756 222.959 44.4853 222.286 45.0941 221.83Z" fill="#F9E6CF"/>
<path opacity="0.5" d="M31.268 192.955C34.6364 191.826 38.2227 191.504 41.7382 192.015C41.7382 192.015 38.785 196.178 34.3553 199.536C29.9256 202.893 24.8247 202.356 23.8851 200.476C22.9454 198.596 24.2878 194.97 31.268 192.955Z" fill="#7D7A7C"/>
<path d="M27.1069 196.044C28.852 195.238 30.8654 196.044 31.4023 196.85C31.5273 197.238 31.5744 197.646 31.5408 198.053C31.5071 198.459 31.3932 198.854 31.2061 199.216C31.0189 199.578 30.762 199.9 30.4501 200.162C30.1382 200.424 29.7776 200.622 29.3889 200.744C28.6947 201.146 27.8799 201.285 27.092 201.137C26.3041 200.989 25.5951 200.564 25.0933 199.939C24.9066 199.156 25.0074 198.332 25.377 197.617C25.7465 196.902 26.3604 196.344 27.1069 196.044Z" fill="#F9E6CF"/>
<path opacity="0.5" d="M57.578 163.946C59.4149 164.019 61.2086 164.526 62.8131 165.423C62.8131 165.423 62.8131 167.975 61.3365 169.99C59.8599 172.004 56.9068 169.99 56.1014 168.647C55.296 167.304 54.6248 163.409 57.578 163.946Z" fill="#7D7A7C"/>
<path d="M56.2357 165.423C56.2357 165.423 57.8464 165.423 58.6518 167.169C59.4572 168.915 59.4572 169.721 58.6518 170.124C57.8464 170.527 56.9068 170.124 56.2357 168.378C55.5645 166.632 56.2357 165.826 56.2357 165.423Z" fill="#F9E6CF"/>
<path opacity="0.5" d="M33.2814 158.977C37.4427 159.783 41.067 160.991 41.067 161.797C41.067 162.603 37.9798 164.483 34.087 166.095C30.1942 167.706 26.4355 165.423 26.167 163.409C25.8986 161.394 27.9121 157.903 33.2814 158.977Z" fill="#7D7A7C"/>
<path d="M29.3888 160.32C30.0808 160.243 30.7756 160.438 31.3266 160.864C31.8776 161.29 32.2417 161.913 32.3419 162.603C32.3987 162.948 32.3837 163.302 32.2979 163.642C32.2121 163.981 32.0575 164.299 31.8434 164.577C31.6293 164.854 31.3604 165.084 31.0536 165.253C30.7468 165.421 30.4086 165.525 30.06 165.557C29.6847 165.679 29.2873 165.715 28.8962 165.666C28.505 165.616 28.1296 165.48 27.7966 165.269C27.4637 165.058 27.1814 164.775 26.9698 164.443C26.7582 164.11 26.6224 163.734 26.5722 163.343C26.5221 162.951 26.5587 162.554 26.6795 162.178C26.8004 161.803 27.0024 161.458 27.2713 161.17C27.5402 160.881 27.8692 160.655 28.2352 160.508C28.6012 160.361 28.9951 160.297 29.3888 160.32Z" fill="#F9E6CF"/>
<path opacity="0.5" d="M17.9788 152.933C21.5242 153.192 24.9656 154.248 28.0464 156.022C25.2032 158.162 21.8892 159.59 18.3815 160.185C11.9383 162.066 8.31396 159.111 8.31396 157.097C8.31396 155.082 10.8644 151.724 17.9788 152.933Z" fill="#7D7A7C"/>
<path d="M13.0122 154.679C13.813 154.521 14.6439 154.686 15.3231 155.139C16.0023 155.592 16.4746 156.296 16.6366 157.097C16.6366 158.44 15.16 159.783 13.2808 159.783C11.4015 159.783 9.65637 158.842 9.65637 157.365C9.65637 155.888 10.9987 154.679 13.0122 154.679Z" fill="#F9E6CF"/>
<path opacity="0.5" d="M52.7457 141.249C56.6385 142.592 59.8601 144.338 59.8601 145.01C59.8601 145.681 56.5042 147.427 52.4772 148.501C48.4502 149.576 45.3628 146.621 45.3628 144.607C45.3628 142.592 47.6448 140.04 52.7457 141.249Z" fill="#7D7A7C"/>
<path d="M48.987 142.592C49.5801 142.727 50.1096 143.06 50.489 143.536C50.8684 144.012 51.075 144.602 51.075 145.211C51.075 145.819 50.8684 146.41 50.489 146.886C50.1096 147.362 49.5801 147.694 48.987 147.83C48.6405 147.83 48.2974 147.76 47.9789 147.623C47.6603 147.487 47.373 147.287 47.1344 147.035C46.8957 146.784 46.7107 146.487 46.5908 146.161C46.4708 145.836 46.4183 145.49 46.4365 145.144C46.4965 144.487 46.7844 143.872 47.2503 143.406C47.7162 142.94 48.3308 142.652 48.987 142.592Z" fill="#F9E6CF"/>
<path opacity="0.5" d="M20.6635 137.22C24.9176 137.749 29.0241 139.118 32.7445 141.249C28.9146 143.09 24.7687 144.184 20.5292 144.472C12.4751 145.681 8.44812 142.458 8.58235 140.443C8.71658 138.429 12.341 135.34 20.6635 137.22Z" fill="#7D7A7C"/>
<path d="M14.6229 138.026C16.9049 138.026 18.7843 139.234 18.7843 140.712C18.7843 142.189 16.7708 143.264 14.3546 143.264C11.9384 143.264 10.1934 141.92 10.1934 140.443C10.1934 138.966 12.2067 137.891 14.6229 138.026Z" fill="#F9E6CF"/>
<path opacity="0.5" d="M8.58243 143.129C12.2068 144.204 15.4285 145.815 15.4285 146.487C15.4285 147.158 12.4753 149.039 8.85096 150.382C8.18962 150.761 7.4458 150.974 6.68391 151.001C5.92202 151.029 5.16485 150.871 4.47774 150.54C3.79063 150.21 3.19441 149.717 2.74021 149.104C2.28601 148.492 1.9875 147.778 1.87073 147.024C2.5419 145.01 3.75001 141.249 8.58243 143.129Z" fill="#7D7A7C"/>
<path d="M5.09243 144.204C5.75834 144.236 6.38823 144.515 6.85966 144.987C7.33109 145.459 7.61037 146.089 7.64291 146.755C7.68098 147.411 7.46492 148.056 7.03991 148.556C6.61489 149.056 6.01367 149.373 5.36096 149.441C4.69504 149.409 4.06495 149.129 3.59352 148.658C3.12209 148.186 2.84302 147.556 2.81047 146.89C2.80316 146.242 3.02998 145.613 3.44932 145.12C3.86867 144.626 4.45226 144.301 5.09243 144.204Z" fill="#F9E6CF"/>
<path opacity="0.5" d="M64.5579 117.209C69.5246 120.432 73.2832 123.79 73.0147 124.461C69.3505 125.32 65.5375 125.32 61.8733 124.461C54.8931 123.252 52.7453 119.089 53.4165 117.209C54.0876 115.329 58.2489 112.911 64.5579 117.209Z" fill="#7D7A7C"/>
<path d="M59.1887 116.135C61.2022 116.941 62.2762 118.552 61.7392 119.895C61.2716 120.599 60.5558 121.101 59.7346 121.3C58.9134 121.5 58.0474 121.381 57.3095 120.97C55.4302 120.164 54.222 118.552 54.759 117.209C55.2265 116.505 55.9424 116.003 56.7636 115.804C57.5848 115.605 58.4508 115.723 59.1887 116.135Z" fill="#F9E6CF"/>
<path opacity="0.5" d="M42.8124 114.389C47.3763 117.746 51.0006 121.238 50.7321 121.91C47.0833 122.42 43.3663 122.099 39.8592 120.969C33.0133 119.492 31.134 115.194 31.9394 113.449C32.7448 111.703 36.5034 109.957 42.8124 114.389Z" fill="#7D7A7C"/>
<path d="M37.1742 113.046C39.0535 113.851 40.1273 115.597 39.4561 116.94C38.785 118.283 36.9057 118.686 35.0264 117.88C33.1471 117.075 32.2074 115.329 32.8786 113.986C33.5498 112.643 35.4291 112.24 37.1742 113.046Z" fill="#F9E6CF"/>
<path opacity="0.5" d="M23.6167 115.732C26.803 117.106 29.6452 119.17 31.9392 121.775C28.6135 122.895 25.062 123.172 21.6031 122.581C15.1599 122.581 12.8779 118.418 13.4148 116.537C13.9518 114.657 17.5762 112.24 23.6167 115.732Z" fill="#7D7A7C"/>
<path d="M18.6499 115.195C19.4472 115.327 20.161 115.767 20.6379 116.419C21.1147 117.072 21.3166 117.886 21.2003 118.686C20.8756 119.431 20.271 120.017 19.5173 120.319C18.7636 120.621 17.9215 120.613 17.1733 120.298C15.4282 120.298 14.2201 118.149 14.6228 116.806C14.9949 116.104 15.6039 115.557 16.3413 115.262C17.0786 114.967 17.8966 114.943 18.6499 115.195Z" fill="#F9E6CF"/>
<path opacity="0.5" d="M76.3707 95.318C78.1158 98.8098 79.1896 102.302 78.6527 102.839C76.0177 102.72 73.4651 101.884 71.2698 100.421C70.534 100.209 69.8614 99.8193 69.3104 99.2871C68.7594 98.7548 68.3469 98.0959 68.1087 97.3676C67.8705 96.6394 67.8138 95.8639 67.9436 95.1087C68.0734 94.3536 68.3859 93.6416 68.8536 93.0349C69.452 92.5354 70.1651 92.1927 70.9287 92.0376C71.6924 91.8825 72.4825 91.9199 73.2281 92.1463C73.9737 92.3728 74.6513 92.7813 75.1999 93.3349C75.7485 93.8886 76.1509 94.5701 76.3707 95.318Z" fill="#7D7A7C"/>
<path d="M73.1491 93.5719C73.3847 93.7976 73.5721 94.0686 73.7001 94.3686C73.8282 94.6687 73.8943 94.9916 73.8943 95.3179C73.8943 95.6441 73.8282 95.967 73.7001 96.267C73.5721 96.5671 73.3847 96.8381 73.1491 97.0637C72.9349 97.3181 72.6679 97.5226 72.3665 97.6628C72.0651 97.803 71.7367 97.8757 71.4042 97.8757C71.0718 97.8757 70.7434 97.803 70.442 97.6628C70.1405 97.5226 69.8733 97.3181 69.6591 97.0637C69.1785 96.5829 68.9084 95.9307 68.9084 95.2507C68.9084 94.5707 69.1785 93.9185 69.6591 93.4376C70.1397 92.9567 70.7915 92.6866 71.4712 92.6866C72.1509 92.6866 72.8029 92.9567 73.2835 93.4376L73.1491 93.5719Z" fill="#F9E6CF"/>
<path opacity="0.5" d="M59.8599 89.6772C62.9473 93.572 65.0949 97.3324 64.558 97.8696C64.021 98.4068 59.9941 97.8696 55.4302 95.4522C50.8662 93.0348 49.3896 88.7371 50.5977 87.1255C51.8058 85.5139 56.2356 84.5738 59.8599 89.6772Z" fill="#7D7A7C"/>
<path d="M56.2357 87.5286C56.5287 87.9057 56.7101 88.3575 56.7592 88.8326C56.8082 89.3077 56.723 89.7871 56.5132 90.2161C56.3034 90.6452 55.9775 91.0068 55.5724 91.2596C55.1674 91.5125 54.6996 91.6465 54.2222 91.6465C53.7448 91.6465 53.2768 91.5125 52.8718 91.2596C52.4668 91.0068 52.1409 90.6452 51.9311 90.2161C51.7213 89.7871 51.6362 89.3077 51.6853 88.8326C51.7343 88.3575 51.9156 87.9057 52.2086 87.5286C52.4605 87.2428 52.7705 87.0139 53.1176 86.8571C53.4648 86.7003 53.8413 86.6193 54.2222 86.6193C54.6031 86.6193 54.9795 86.7003 55.3266 86.8571C55.6738 87.0139 55.9837 87.2428 56.2357 87.5286Z" fill="#F9E6CF"/>
<path opacity="0.5" d="M37.0401 92.2287C40.1275 95.4519 42.4094 98.8095 42.0067 99.3467C41.604 99.8839 37.7111 99.3467 33.2814 98.4066C28.8516 97.4665 27.2409 92.9002 28.3148 91.1543C29.3886 89.4084 33.0131 87.5282 37.0401 92.2287Z" fill="#7D7A7C"/>
<path d="M33.0132 91.0202C33.3341 91.1745 33.619 91.3944 33.8499 91.6657C34.0807 91.9369 34.2524 92.2535 34.3535 92.5951C34.4547 92.9367 34.4832 93.2957 34.4373 93.6489C34.3914 94.0022 34.2721 94.342 34.0871 94.6463C33.8962 94.9496 33.6466 95.2117 33.353 95.417C33.0594 95.6223 32.7276 95.7668 32.3774 95.8419C32.0271 95.917 31.6654 95.9211 31.3135 95.8542C30.9616 95.7873 30.6268 95.6506 30.3285 95.4521C29.6984 95.0858 29.2345 94.4895 29.0342 93.7884C28.834 93.0873 28.913 92.3359 29.2546 91.6917C29.456 91.3991 29.7133 91.1494 30.0119 90.957C30.3104 90.7646 30.6442 90.6334 30.9938 90.5709C31.3434 90.5085 31.7018 90.5161 32.0484 90.5932C32.3951 90.6703 32.723 90.8154 33.0132 91.0202Z" fill="#F9E6CF"/>
<path opacity="0.5" d="M39.1877 79.7387C43.3494 83.08 46.8931 87.1256 49.658 91.6916C44.4819 90.4286 39.542 88.3428 35.0265 85.5137C25.7644 80.8132 23.214 75.1725 24.4221 73.5609C25.6302 71.9493 31.1337 71.9493 39.1877 79.7387Z" fill="#7D7A7C"/>
<path d="M32.2078 75.8445C34.624 77.5904 35.9662 80.0078 35.1608 81.2165C34.3554 82.4253 31.5365 81.2166 29.1203 80.1422C26.7041 79.0678 25.3617 75.9788 26.1671 74.7701C26.9725 73.5614 29.3889 74.0986 32.2078 75.8445Z" fill="#F9E6CF"/>
<path opacity="0.5" d="M54.6249 57.3108C56.5604 60.4211 57.8394 63.8946 58.3834 67.5177C58.3834 67.5177 53.4168 65.5032 48.9871 61.8771C44.5573 58.251 43.7517 53.0132 45.2283 51.6702C46.7049 50.3272 51.269 50.7301 54.6249 57.3108Z" fill="#7D7A7C"/>
<path d="M50.4636 53.953C50.7599 54.241 50.9955 54.5854 51.1563 54.9661C51.3172 55.3467 51.4001 55.7558 51.4001 56.169C51.4001 56.5823 51.3172 56.9913 51.1563 57.372C50.9955 57.7526 50.7599 58.0971 50.4636 58.385C49.3897 59.3251 47.5104 58.385 46.168 57.3106C45.6201 56.6762 45.3186 55.8659 45.3186 55.0275C45.3186 54.1891 45.6201 53.3787 46.168 52.7443C47.2419 51.8042 49.2555 52.3414 50.4636 53.953Z" fill="#F9E6CF"/>
<path opacity="0.5" d="M89.7941 78.3961C91.0022 82.4251 91.405 86.0512 90.7338 86.4541C90.0626 86.857 86.9752 84.9768 83.7536 82.4251C80.5319 79.8734 81.2031 75.4415 82.9482 74.3671C84.6932 73.2926 88.4517 73.2926 89.7941 78.3961Z" fill="#7D7A7C"/>
<path d="M86.9752 75.8444C87.2147 76.0816 87.4049 76.364 87.5346 76.6752C87.6643 76.9864 87.731 77.3202 87.731 77.6574C87.731 77.9946 87.6643 78.3284 87.5346 78.6396C87.4049 78.9508 87.2147 79.2333 86.9752 79.4705C86.4803 79.9235 85.8339 80.1748 85.1631 80.1748C84.4924 80.1748 83.846 79.9235 83.3511 79.4705C82.9926 78.8787 82.8762 78.1712 83.0262 77.4957C83.1763 76.8201 83.5811 76.2286 84.1564 75.8444C84.5743 75.5672 85.0645 75.4193 85.5658 75.4193C86.0672 75.4193 86.5574 75.5672 86.9752 75.8444Z" fill="#F9E6CF"/>
<path opacity="0.5" d="M97.8481 80.4108C98.6535 84.1712 98.922 87.5287 97.8481 87.9316C96.7743 88.3345 94.2237 86.7229 91.2706 84.1712C90.6615 83.7514 90.1634 83.1898 89.8194 82.5347C89.4754 81.8797 89.2957 81.1508 89.2957 80.4108C89.2957 79.6708 89.4754 78.9418 89.8194 78.2867C90.1634 77.6317 90.6615 77.0701 91.2706 76.6503C93.1499 75.5759 96.5058 75.5759 97.8481 80.4108Z" fill="#7D7A7C"/>
<path d="M95.2977 77.993C95.4581 78.2818 95.5576 78.6003 95.5902 78.929C95.6228 79.2578 95.5876 79.5897 95.487 79.9043C95.3863 80.219 95.2225 80.5096 95.0052 80.7584C94.7879 81.0071 94.522 81.2087 94.2238 81.3506C94.0101 81.5825 93.7506 81.7677 93.4619 81.8943C93.1731 82.0209 92.8612 82.0863 92.5459 82.0863C92.2306 82.0863 91.9187 82.0209 91.6299 81.8943C91.3411 81.7677 91.0817 81.5825 90.868 81.3506C90.7075 81.0618 90.6078 80.7432 90.5753 80.4145C90.5427 80.0858 90.5779 79.7539 90.6785 79.4393C90.7791 79.1246 90.9432 78.834 91.1604 78.5852C91.3777 78.3365 91.6437 78.1349 91.9418 77.993C92.4066 77.5869 93.0027 77.363 93.6198 77.363C94.2368 77.363 94.833 77.5869 95.2977 77.993Z" fill="#F9E6CF"/>
<path opacity="0.5" d="M67.3772 51.67C68.968 54.6989 69.8407 58.0535 69.9277 61.474C69.2565 61.474 65.3636 59.3252 61.4708 55.6991C57.5781 52.0729 57.1753 46.9695 58.9204 45.8951C60.6654 44.8207 64.8267 45.2236 67.3772 51.67Z" fill="#7D7A7C"/>
<path d="M63.7528 48.1781C64.3104 48.7543 64.6223 49.5249 64.6223 50.327C64.6223 51.129 64.3104 51.8996 63.7528 52.4758C63.4015 52.6588 63.0171 52.7693 62.6223 52.8006C62.2276 52.832 61.8305 52.7836 61.4548 52.6583C61.0791 52.533 60.7325 52.3334 60.4354 52.0713C60.1384 51.8092 59.8969 51.4901 59.7257 51.1328C59.2069 50.5637 58.9193 49.8213 58.9193 49.0511C58.9193 48.2809 59.2069 47.5385 59.7257 46.9694C60.4254 46.6247 61.2297 46.5578 61.9767 46.782C62.7238 47.0062 63.3582 47.505 63.7528 48.1781Z" fill="#F9E6CF"/>
<path opacity="0.5" d="M86.3042 53.4159C87.6061 56.7916 88.1114 60.4225 87.7808 64.0257C87.7808 64.0257 83.4851 61.0711 79.8608 56.7734C76.2365 52.4758 76.6392 46.9695 78.3842 46.0293C80.1292 45.0892 84.4249 46.2979 86.3042 53.4159Z" fill="#7D7A7C"/>
<path d="M83.0823 49.2526C83.6203 49.8653 83.917 50.653 83.917 51.4686C83.917 52.2841 83.6203 53.0718 83.0823 53.6846C82.2814 53.8784 81.4377 53.7825 80.7006 53.4138C79.9636 53.0451 79.3808 52.4275 79.0553 51.6701C78.4888 51.0714 78.1731 50.2784 78.1731 49.4541C78.1731 48.6297 78.4888 47.8367 79.0553 47.2381C80.2634 47.2381 82.1427 47.2381 83.0823 49.2526Z" fill="#F9E6CF"/>
<path opacity="0.5" d="M100.264 21.8553C100.582 25.0842 100.169 28.3432 99.0564 31.3907C98.3852 31.3907 95.7004 28.1675 93.2842 23.7355C90.868 19.3036 92.4788 14.7373 94.3581 14.2001C96.2374 13.6629 100.13 15.4088 100.264 21.8553Z" fill="#7D7A7C"/>
<path d="M98.1167 17.6918C98.3438 18.4236 98.2909 19.2136 97.9684 19.9085C97.646 20.6034 97.077 21.1537 96.3718 21.4523C95.6075 21.5691 94.8277 21.3813 94.2003 20.9293C93.5728 20.4773 93.1477 19.7972 93.016 19.0349C92.8891 18.6824 92.8335 18.3081 92.8527 17.9339C92.872 17.5597 92.9658 17.1932 93.1282 16.8556C93.2907 16.518 93.5187 16.2162 93.799 15.9677C94.0794 15.7193 94.4063 15.5293 94.7609 15.4087C95.5059 15.2882 96.2688 15.4576 96.8929 15.8822C97.517 16.3068 97.9549 16.9543 98.1167 17.6918Z" fill="#F9E6CF"/>
<path opacity="0.5" d="M107.513 26.153C108.347 30.0482 108.347 34.0762 107.513 37.9715C107.513 37.9715 103.754 33.8081 101.07 28.1675C98.3851 22.5268 99.5932 16.7519 101.07 16.349C102.546 15.9461 106.976 18.0949 107.513 26.153Z" fill="#7D7A7C"/>
<path d="M105.097 20.3779C105.097 22.5267 105.097 24.5413 103.62 24.9442C102.144 25.3471 100.667 23.8697 100.13 21.7209C99.5932 19.5721 100.13 17.6919 101.472 17.289C102.815 16.8861 104.56 18.7663 105.097 20.3779Z" fill="#F9E6CF"/>
<path opacity="0.5" d="M119.326 48.4465C119.326 53.147 118.52 57.3104 117.715 57.4447C116.909 57.579 114.493 54.3558 112.211 50.1924C109.929 46.0291 112.211 41.5972 113.822 41.0599C115.433 40.5227 119.46 42.2686 119.326 48.4465Z" fill="#7D7A7C"/>
<path d="M117.312 44.5518C117.528 45.2467 117.466 45.9979 117.141 46.6486C116.816 47.2993 116.252 47.7992 115.567 48.0437C114.822 48.1642 114.059 47.9948 113.435 47.5702C112.811 47.1456 112.373 46.498 112.211 45.7605C112.002 45.0482 112.082 44.282 112.434 43.6283C112.786 42.9746 113.381 42.4861 114.091 42.2687C114.819 42.1514 115.565 42.3249 116.167 42.7518C116.77 43.1787 117.181 43.825 117.312 44.5518Z" fill="#F9E6CF"/>
<path opacity="0.5" d="M135.568 62.9514C135.063 66.024 133.819 68.9277 131.944 71.4124C130.068 68.9277 128.824 66.024 128.319 62.9514C126.843 57.3108 129.93 54.3561 131.944 54.3561C133.957 54.3561 136.776 56.9079 135.568 62.9514Z" fill="#7D7A7C"/>
<path d="M134.628 58.5193C134.718 58.9126 134.718 59.3212 134.628 59.7145C134.538 60.1078 134.361 60.4758 134.109 60.7912C133.858 61.1065 133.539 61.3612 133.175 61.5362C132.812 61.7112 132.414 61.8022 132.011 61.8022C131.607 61.8022 131.209 61.7112 130.846 61.5362C130.483 61.3612 130.163 61.1065 129.912 60.7912C129.66 60.4758 129.483 60.1078 129.393 59.7145C129.304 59.3212 129.303 58.9126 129.393 58.5193C129.303 58.1259 129.304 57.7174 129.393 57.3241C129.483 56.9308 129.66 56.5628 129.912 56.2474C130.163 55.932 130.483 55.6773 130.846 55.5023C131.209 55.3273 131.607 55.2364 132.011 55.2364C132.414 55.2364 132.812 55.3273 133.175 55.5023C133.539 55.6773 133.858 55.932 134.109 56.2474C134.361 56.5628 134.538 56.9308 134.628 57.3241C134.718 57.7174 134.718 58.1259 134.628 58.5193Z" fill="#F9E6CF"/>
<path opacity="0.5" d="M143.353 38.2398C143.006 42.0181 141.862 45.6799 139.998 48.9839C137.919 45.797 136.63 42.1596 136.239 38.3741C134.628 31.3904 137.581 27.63 139.595 27.63C141.608 27.63 144.964 30.7189 143.353 38.2398Z" fill="#7D7A7C"/>
<path d="M142.414 32.8678C142.414 34.8823 141.206 36.6282 139.729 36.6282C138.253 36.6282 137.179 35.0166 137.179 32.8678C137.179 30.719 138.253 29.1074 139.729 29.1074C141.206 29.1074 142.28 30.719 142.414 32.8678Z" fill="#F9E6CF"/>
<path opacity="0.5" d="M130.064 28.5702C129.805 32.2019 128.751 35.7323 126.977 38.9114C124.826 35.9368 123.443 32.4768 122.95 28.8388C121.205 22.258 124.024 18.6318 126.037 18.6318C128.051 18.6318 131.407 21.3179 130.064 28.5702Z" fill="#7D7A7C"/>
<path d="M128.99 23.4668C128.99 25.4814 127.916 27.093 126.44 27.093C124.963 27.093 123.755 25.6157 123.755 23.6012C123.755 21.5867 124.695 19.975 126.172 19.975C127.648 19.975 128.856 21.4523 128.99 23.4668Z" fill="#F9E6CF"/>
<path opacity="0.5" d="M151.676 15.8116C150.803 20.5403 149.123 25.0833 146.709 29.2417C145.074 24.9615 144.343 20.3887 144.562 15.8116C144.562 6.94771 147.515 2.38147 149.528 2.38147C151.542 2.38147 154.227 6.94771 151.676 15.8116Z" fill="#7D7A7C"/>
<path d="M151.408 8.96216C151.408 11.5139 149.797 13.5284 148.32 13.2598C146.844 12.9912 145.904 10.9767 146.172 8.42494C146.441 5.87322 147.917 3.85868 149.26 3.99298C150.602 4.12728 151.676 6.94764 151.408 8.96216Z" fill="#F9E6CF"/>
<path opacity="0.5" d="M166.576 38.6429C164.816 43.2126 162.273 47.4395 159.059 51.133C158.299 46.2577 158.528 41.2794 159.73 36.4941C161.072 27.093 165.368 23.064 167.247 23.8698C169.126 24.6756 171.006 29.5104 166.576 38.6429Z" fill="#7D7A7C"/>
<path d="M167.784 31.3906C166.979 34.0766 165.234 35.8225 163.757 35.4196C162.281 35.0167 162.012 32.465 162.818 29.9133C163.623 27.3616 165.368 25.3471 166.71 25.8843C168.053 26.4215 168.59 28.7046 167.784 31.3906Z" fill="#F9E6CF"/>
</g>
</g>
<defs>
<clipPath id="clip0_1_10143">
<rect width="268.602" height="268.602" fill="white" transform="translate(0.931152 0.366821)"/>
</clipPath>
</defs>
</svg>
