<svg viewBox="0 0 346 330" fill="none" xmlns="http://www.w3.org/2000/svg">
<g opacity="0.7">
<g clip-path="url(#clip0_1_11075)">
<g style="mix-blend-mode:screen">
<path opacity="0.5" d="M188.772 173.559C190.897 172.923 193.162 172.923 195.288 173.559C193.674 174.899 191.905 176.039 190.02 176.957C186.623 179.037 184.128 178.413 183.712 177.512C183.296 176.61 184.336 174.253 188.772 173.559Z" fill="#7D7A7C"/>
<path d="M185.999 175.154C187.108 174.668 188.217 175.154 188.495 175.57C188.772 175.986 188.079 177.165 186.97 177.65C185.86 178.136 184.751 177.65 184.474 177.234C184.197 176.818 184.821 175.57 185.999 175.154Z" fill="#F9E6CF"/>
<path opacity="0.5" d="M193.277 190.479C193.96 188.496 194.127 186.372 193.763 184.307C193.763 182.643 192.584 181.811 192.792 181.672C193 181.534 194.178 181.672 195.288 183.545C196.586 185.765 197.167 188.332 196.951 190.895C196.535 197.829 193.277 200.395 192.446 200.048C191.614 199.702 191.336 196.512 193.277 190.479Z" fill="#7D7A7C"/>
<path d="M192.723 195.125C193.208 193.391 194.248 192.074 194.872 192.212C195.496 192.351 195.842 194.015 195.288 195.888C194.733 197.76 193.555 199.008 192.931 198.8C192.307 198.592 192.307 196.928 192.723 195.125Z" fill="#F9E6CF"/>
<path opacity="0.5" d="M179.067 156.015C180.741 157.525 181.863 159.55 182.256 161.77C182.603 163.296 182.603 164.336 182.256 164.336C181.909 164.336 179.899 160.661 176.78 159.135C173.661 157.61 170.888 159.621 170.264 158.511C169.64 157.402 170.264 157.124 171.165 156.015C172.02 155.355 173.017 154.904 174.077 154.697C174.953 154.507 175.863 154.528 176.73 154.757C177.598 154.986 178.399 155.417 179.067 156.015Z" fill="#7D7A7C"/>
<path d="M174.077 155.46C176.087 155.46 177.542 156.362 177.196 156.986C176.849 157.61 175.74 157.887 174.562 158.095C173.383 158.303 171.997 158.095 171.65 158.095C171.304 158.095 171.928 156.015 174.077 155.46Z" fill="#F9E6CF"/>
<path opacity="0.5" d="M161.946 165.723C163.614 165.352 165.341 165.339 167.014 165.686C168.687 166.032 170.268 166.73 171.651 167.734C168.735 167.9 165.85 168.412 163.055 169.26C158.688 171.687 156.124 173.767 155.361 173.143C154.599 172.519 154.737 171.825 155.361 170.3C156.043 169.09 156.99 168.05 158.13 167.258C159.27 166.465 160.575 165.941 161.946 165.723Z" fill="#7D7A7C"/>
<path d="M157.51 168.635C159.173 167.457 160.837 167.249 161.184 168.011C161.53 168.774 160.49 169.814 159.173 170.785C157.856 171.756 156.609 172.449 156.124 172.033C155.638 171.617 156.054 170.022 157.51 168.635Z" fill="#F9E6CF"/>
<path opacity="0.5" d="M151.756 188.676C155.701 186.292 160.046 184.647 164.58 183.822C164.58 183.822 159.381 187.358 153.836 191.796C146.904 197.136 144.409 200.048 143.508 199.771C142.607 199.494 142.745 198.245 143.854 196.096C145.699 192.897 148.448 190.315 151.756 188.676Z" fill="#7D7A7C"/>
<path d="M146.35 193.53C148.36 191.658 150.44 190.826 150.925 191.45C151.41 192.074 150.024 193.738 148.221 195.472C146.419 197.205 144.894 198.523 144.201 198.107C143.508 197.691 144.478 195.472 146.35 193.53Z" fill="#F9E6CF"/>
<path opacity="0.5" d="M201.803 159.136C199.92 161.308 197.543 162.997 194.872 164.059C195.936 161.64 197.212 159.319 198.684 157.125C199.863 154.906 200.278 153.588 200.625 153.588C200.972 153.588 200.625 153.103 200.625 152.687C200.506 152.398 200.506 152.074 200.625 151.785C200.625 151.785 201.526 150.329 203.536 151.785C203.965 152.339 204.241 152.995 204.338 153.688C204.436 154.381 204.35 155.088 204.091 155.738C203.577 157.019 202.797 158.177 201.803 159.136Z" fill="#7D7A7C"/>
<path d="M203.675 154.836C203.051 156.708 201.734 157.402 201.18 156.986C200.625 156.57 200.694 155.252 201.18 154.143C201.11 153.917 201.11 153.675 201.18 153.449C201.126 153.316 201.126 153.167 201.18 153.033C201.18 152.686 201.18 152.34 201.18 151.993C201.264 151.891 201.37 151.809 201.49 151.753C201.61 151.697 201.74 151.668 201.873 151.668C202.005 151.668 202.136 151.697 202.256 151.753C202.375 151.809 202.481 151.891 202.566 151.993C202.891 152.362 203.149 152.784 203.328 153.241C203.517 153.754 203.633 154.291 203.675 154.836Z" fill="#F9E6CF"/>
<path opacity="0.5" d="M186.207 143.741C185.856 147.599 184.623 151.324 182.603 154.628C182.187 154.628 182.603 149.358 182.603 143.672C182.561 141.296 182.091 138.947 181.216 136.737C180.841 136.277 180.537 135.763 180.315 135.212C179.968 134.865 179.83 134.588 179.899 134.31C179.968 134.033 181.078 133.132 183.296 134.31C184.604 135.46 185.569 136.95 186.083 138.614C186.597 140.279 186.64 142.054 186.207 143.741Z" fill="#7D7A7C"/>
<path d="M184.821 137.639C185.791 140.066 184.821 141.938 184.336 142.007C183.85 142.077 183.019 140.274 182.325 138.679C181.632 137.084 181.563 137.223 181.494 136.529C181.308 136.368 181.167 136.163 181.082 135.933C180.997 135.702 180.972 135.454 181.008 135.212C181.008 134.865 181.771 134.865 182.672 135.212C183.622 135.778 184.373 136.626 184.821 137.639Z" fill="#F9E6CF"/>
<path opacity="0.5" d="M189.257 141.037C190.297 135.281 191.267 130.011 191.96 126.058C192.207 123.942 192.648 121.853 193.277 119.817C193.655 121.921 193.772 124.064 193.624 126.197C193.624 130.15 193.624 135.628 193 141.522C191.822 155.737 188.841 162.741 187.871 162.325C186.9 161.909 186.415 155.807 189.257 141.037Z" fill="#7D7A7C"/>
<path d="M187.94 151.924C188.564 147.763 189.673 144.504 190.366 144.573C191.059 144.643 191.267 148.11 190.366 152.34C189.465 156.57 188.495 159.76 187.801 159.274C187.108 158.789 187.94 156.015 187.94 151.924Z" fill="#F9E6CF"/>
<path opacity="0.5" d="M205.061 127.723C203.328 132.715 201.526 137.153 200.071 140.413C199.421 142.231 198.535 143.956 197.436 145.544C197.09 145.544 199.239 136.876 201.457 126.682C202.479 120.526 204.032 114.471 206.101 108.584C206.517 108.584 207.695 109.901 207.903 113.23C207.806 118.189 206.844 123.094 205.061 127.723Z" fill="#7D7A7C"/>
<path d="M206.864 117.945C206.17 121.69 204.784 124.88 204.022 124.325C203.259 123.77 203.536 121.066 204.022 117.39C204.507 113.715 205.408 110.941 206.17 110.941C206.933 110.941 207.626 114.201 206.864 117.945Z" fill="#F9E6CF"/>
<path opacity="0.5" d="M150.578 179.245C154.743 177.621 159.226 176.98 163.679 177.373C163.679 177.789 157.995 179.384 152.034 182.643C145.102 186.596 141.706 188.884 140.804 188.26C139.903 187.636 140.458 186.596 141.913 184.862C144.167 182.156 147.188 180.197 150.578 179.245Z" fill="#7D7A7C"/>
<path d="M144.825 182.99C146.974 181.395 149.192 181.187 149.469 181.811C149.746 182.435 148.221 183.822 146.28 185.209C144.34 186.596 142.537 187.497 141.983 186.873C141.428 186.249 142.607 184.446 144.825 182.99Z" fill="#F9E6CF"/>
<path opacity="0.5" d="M120.078 159.829C125.541 160.212 130.952 161.141 136.229 162.603C138.492 163.007 140.686 163.731 142.745 164.752C142.745 165.238 132.278 163.227 120.009 163.504C114.458 163.624 108.922 164.134 103.442 165.03C99.7686 165.585 97.8277 166.001 97.6197 165.515C97.4118 165.03 98.5209 163.504 102.195 162.048C107.885 159.857 114.026 159.095 120.078 159.829Z" fill="#7D7A7C"/>
<path d="M108.156 161.008C112.731 160.245 116.474 161.008 116.474 161.562C116.474 162.117 112.87 162.949 108.572 163.643C104.274 164.336 100.809 165.099 100.462 164.267C100.115 163.435 103.512 161.562 108.156 161.008Z" fill="#F9E6CF"/>
<path opacity="0.5" d="M229.53 145.475L216.152 152.964C214.358 154.157 212.454 155.179 210.468 156.015C211.883 154.373 213.488 152.906 215.251 151.646C218.301 149.08 222.599 145.683 227.451 142.285C231.912 139.01 236.875 136.48 242.146 134.796C245.889 133.686 248.177 134.796 248.038 134.796C247.899 134.796 242.7 137.985 229.53 145.475Z" fill="#7D7A7C"/>
<path d="M238.68 139.65C234.937 141.522 231.748 142.77 231.332 142.146C230.917 141.522 233.62 139.164 237.432 137.223C241.245 135.281 244.919 134.726 245.127 135.489C245.335 136.252 242.354 137.708 238.68 139.65Z" fill="#F9E6CF"/>
<path opacity="0.5" d="M230.154 165.584C223.222 165.584 217.261 166.555 217.192 166.139C221.132 163.922 225.462 162.485 229.946 161.909C231.766 161.413 233.681 161.375 235.519 161.799C237.357 162.222 239.063 163.094 240.482 164.336C242.423 166.694 241.522 168.358 241.106 168.358C240.69 168.358 239.928 167.526 238.542 166.902C235.858 165.92 233.009 165.472 230.154 165.584Z" fill="#7D7A7C"/>
<path d="M236.462 165.515C234.313 164.96 232.234 164.406 232.234 163.712C232.234 163.019 234.382 162.187 237.155 162.88C239.928 163.573 241.383 166.417 240.621 166.694C239.859 166.971 238.472 166 236.462 165.515Z" fill="#F9E6CF"/>
<path opacity="0.5" d="M220.935 121.898C217.608 126.891 214.003 131.329 211.993 134.518C210.793 136.33 209.398 138.004 207.834 139.511C208.512 137.451 209.419 135.474 210.537 133.617C212.409 130.011 214.974 125.226 217.469 119.748C224.539 107.336 228.698 101.649 229.53 101.649C230.362 101.649 229.53 109.139 220.935 121.898Z" fill="#7D7A7C"/>
<path d="M226.064 111.982C223.985 115.726 221.697 118.431 221.074 118.015C220.45 117.599 221.628 114.409 223.708 110.664C225.787 106.92 227.728 104.215 228.421 104.493C229.114 104.77 228.144 108.584 226.064 111.982Z" fill="#F9E6CF"/>
<path opacity="0.5" d="M182.256 103.799C183.157 110.733 183.573 117.667 183.781 122.244C183.98 124.829 183.98 127.426 183.781 130.011C183.013 127.543 182.456 125.014 182.117 122.452C181.216 117.737 180.107 111.357 178.582 104.492C176.78 96.1709 175.255 89.9993 174.077 85.908C172.898 81.8167 172.066 79.9444 172.482 79.5977C172.898 79.2509 174.908 80.3604 176.919 84.313C179.843 90.4385 181.651 97.0374 182.256 103.799Z" fill="#7D7A7C"/>
<path d="M178.859 90.8317C180.246 95.8245 180.384 100.054 179.691 100.193C178.998 100.332 177.612 96.3792 176.295 91.5945C174.978 86.8098 174.076 82.9958 174.076 82.5798C174.076 82.1637 177.542 85.8389 178.859 90.8317Z" fill="#F9E6CF"/>
<path opacity="0.5" d="M165.343 197.76C167.25 195.194 169.597 192.987 172.274 191.242C171.206 194.228 169.86 197.106 168.254 199.84C167.248 201.869 166.016 203.776 164.58 205.527C163.748 206.636 162.847 207.191 162.362 207.121C161.877 207.052 161.392 206.081 161.6 204.348C162.212 201.847 163.508 199.566 165.343 197.76Z" fill="#7D7A7C"/>
<path d="M163.194 202.198C164.095 200.534 165.412 199.563 166.036 199.979C166.66 200.395 166.382 201.921 165.551 203.516C164.719 205.111 163.61 206.081 162.986 205.873C162.362 205.665 162.223 203.862 163.194 202.198Z" fill="#F9E6CF"/>
<path opacity="0.5" d="M139.418 274.108L153.282 245.746L157.579 237.147C158.084 236.069 158.664 235.026 159.312 234.027C159.073 235.198 158.701 236.338 158.203 237.425C157.441 239.574 156.262 242.695 154.806 246.44C151.826 253.998 147.875 264.4 143.161 275.633C132.14 302.886 124.584 316.13 123.683 315.714C122.782 315.298 126.317 302.747 139.418 274.108Z" fill="#7D7A7C"/>
<path d="M131.031 295.119C132.736 290.097 135.291 285.405 138.586 281.25C137.707 286.49 135.974 291.55 133.457 296.228C131.759 301.24 129.228 305.929 125.97 310.097C126.806 304.856 128.517 299.793 131.031 295.119Z" fill="#F9E6CF"/>
<path opacity="0.5" d="M125.555 281.943L142.607 252.472C144.894 248.728 146.696 245.538 148.013 243.527C148.652 242.391 149.37 241.302 150.162 240.268C149.753 241.487 149.243 242.67 148.637 243.804C147.597 246.093 146.003 249.282 144.132 253.235L128.813 283.677C114.395 312.039 105.106 325.838 104.205 325.283C103.304 324.729 108.711 311.345 125.555 281.943Z" fill="#7D7A7C"/>
<path d="M114.394 303.718C116.681 298.455 119.819 293.605 123.683 289.363C122.19 294.912 119.852 300.198 116.751 305.035C114.383 310.254 111.253 315.091 107.463 319.389C108.918 313.827 111.259 308.536 114.394 303.718Z" fill="#F9E6CF"/>
<path opacity="0.5" d="M111.067 287.144C117.306 277.852 123.059 269.323 127.426 263.221L132.625 256.286C133.873 254.622 134.566 253.651 134.704 253.721C134.293 254.761 133.782 255.76 133.179 256.702L128.812 264.4C125 270.918 119.871 279.794 114.187 289.433C100.323 312.663 92.213 324.105 91.104 323.481C89.9949 322.857 94.7778 310.999 111.067 287.144Z" fill="#7D7A7C"/>
<path d="M100.323 305.104C102.576 300.752 105.58 296.831 109.196 293.524C107.724 298.266 105.373 302.689 102.264 306.561C100.136 310.958 97.2228 314.929 93.6688 318.28C95.0402 313.509 97.2978 309.039 100.323 305.104Z" fill="#F9E6CF"/>
<path opacity="0.5" d="M118.623 263.984L131.585 246.856C133.353 244.404 135.299 242.086 137.408 239.921C136.145 242.672 134.661 245.316 132.972 247.827C130.13 252.611 126.04 259.06 121.673 266.133C110.929 283.123 103.789 290.751 102.888 290.196C101.987 289.641 105.661 281.181 118.623 263.984Z" fill="#7D7A7C"/>
<path d="M110.097 277.09C113.493 272.166 116.682 268.56 117.029 268.976C117.375 269.392 115.434 273.692 112.038 278.615C108.641 283.539 105.453 287.144 105.106 286.728C104.759 286.312 106.77 281.944 110.097 277.09Z" fill="#F9E6CF"/>
<path opacity="0.5" d="M121.465 226.469C128.397 220.852 134.566 215.928 139.279 212.6C141.745 210.574 144.364 208.743 147.112 207.122C147.112 207.122 146.558 207.884 145.379 209.063L140.388 213.848L123.96 229.45C108.503 243.943 100.6 251.086 99.7686 250.254C98.9368 249.421 103.858 240.892 121.465 226.469Z" fill="#7D7A7C"/>
<path d="M109.681 238.049C114.256 233.749 118.415 230.768 118.969 231.114C119.524 231.461 116.058 235.691 111.691 240.337C107.324 244.983 103.373 247.965 102.819 247.272C102.264 246.578 105.106 242.417 109.681 238.049Z" fill="#F9E6CF"/>
<path opacity="0.5" d="M88.9552 264.885C98.4516 256.217 107.324 248.451 113.84 242.903L121.604 236.315C122.543 235.455 123.564 234.688 124.653 234.027C123.909 235.069 123.048 236.023 122.089 236.87L115.157 244.151C109.057 250.184 100.67 258.505 91.6585 267.589C80.6602 278.546 72.2266 286.682 66.3578 291.999C60.6045 297.338 57.5545 299.973 57.2079 299.626C56.8614 299.28 64.3476 287.075 88.9552 264.885Z" fill="#7D7A7C"/>
<path d="M72.0419 281.944C75.719 277.694 80.0759 274.086 84.9349 271.265C81.944 276.002 78.2244 280.238 73.9135 283.816C70.265 288.038 66.0416 291.726 61.3671 294.772C64.1512 289.907 67.7638 285.565 72.0419 281.944Z" fill="#F9E6CF"/>
<path opacity="0.5" d="M99.7687 268.075L118.623 248.381L124.446 242.556C125.143 241.794 125.908 241.098 126.733 240.476C126.253 241.393 125.672 242.254 125 243.042L119.871 249.491L102.819 270.294C86.5985 289.71 76.8248 298.378 75.993 298.031C75.1612 297.685 81.3304 287.491 99.7687 268.075Z" fill="#7D7A7C"/>
<path d="M87.2223 282.845C92.2132 277.228 96.6495 273.068 97.204 273.623C95.3136 277.758 92.6286 281.48 89.3019 284.579C84.311 290.196 79.8747 294.287 79.3202 293.802C81.2106 289.666 83.8956 285.944 87.2223 282.845Z" fill="#F9E6CF"/>
<path opacity="0.5" d="M92.9063 240.337C102.611 232.709 111.691 226.468 118.623 221.545L126.594 216.136C127.526 215.383 128.551 214.754 129.644 214.264C128.834 215.144 127.953 215.955 127.01 216.691L119.663 222.863L95.471 242.972C72.8043 261.695 61.367 271.334 60.8125 270.71C60.2579 270.086 67.6749 258.852 92.9063 240.337Z" fill="#7D7A7C"/>
<path d="M75.5771 254.83C79.3546 251.079 83.7667 248.026 88.6087 245.815C89.094 246.439 83.9645 251.293 77.31 256.91C73.568 260.63 69.3211 263.805 64.6943 266.341C67.5661 261.854 71.2583 257.948 75.5771 254.83Z" fill="#F9E6CF"/>
<path opacity="0.5" d="M60.4659 218.009C72.3884 213.155 83.5485 209.341 91.6586 206.636L101.363 203.585C102.554 203.163 103.785 202.861 105.037 202.684C103.941 203.289 102.806 203.822 101.64 204.279L92.2824 208.231C84.3803 211.56 73.5668 216.067 61.9215 221.406C48.0581 227.855 37.4526 232.987 30.6595 236.731C27.3488 238.878 23.8984 240.801 20.3313 242.487C19.9154 242.487 21.9256 238.95 28.2334 234.374C38.3126 227.697 49.1283 222.205 60.4659 218.009Z" fill="#7D7A7C"/>
<path d="M38.9083 228.618C43.6737 225.642 48.9699 223.617 54.5046 222.655C50.0854 226.032 45.266 228.85 40.156 231.045C35.451 233.977 30.457 236.417 25.2528 238.326C29.0455 234.136 33.7055 230.823 38.9083 228.618Z" fill="#F9E6CF"/>
<path opacity="0.5" d="M65.1794 229.728C74.7452 225.151 83.7564 221.337 90.2722 218.633L97.8278 215.512C98.7857 215.088 99.7844 214.763 100.808 214.541C100.808 214.541 99.9073 215.235 98.1743 216.206L90.896 220.158L66.843 233.403C55.683 239.574 47.2263 244.22 41.6809 247.272C38.9848 249.174 36.0771 250.756 33.0163 251.987C32.0458 250.947 40.2253 241.308 65.1794 229.728Z" fill="#7D7A7C"/>
<path d="M47.9196 239.713C51.7164 237.002 56.0367 235.112 60.6046 234.166C61.0205 234.859 55.8217 238.187 49.3059 242.001C45.5555 244.667 41.4486 246.792 37.1061 248.312C36.6209 247.688 41.3344 243.527 47.9196 239.713Z" fill="#F9E6CF"/>
<path opacity="0.5" d="M77.0326 231.739C84.7961 227.717 92.0051 224.249 97.2732 221.822L103.581 219.049C104.356 218.663 105.169 218.361 106.007 218.147C105.391 218.753 104.69 219.267 103.928 219.673L98.0357 223.348L78.8348 234.998C70.0729 241.03 60.7944 246.274 51.108 250.669C50.4148 249.837 57.0693 242.001 77.0326 231.739Z" fill="#7D7A7C"/>
<path d="M63.1692 240.337C68.5066 237.009 73.1509 235.067 73.5668 235.691C73.9827 236.315 69.8236 239.366 64.5555 242.625C61.557 244.952 58.1472 246.693 54.5046 247.757C54.2273 247.271 58.0397 243.804 63.1692 240.337Z" fill="#F9E6CF"/>
<path opacity="0.5" d="M65.8032 168.636C76.478 168.636 86.2518 169.329 93.53 170.023L101.917 170.993C102.948 171.088 103.969 171.274 104.967 171.548C103.93 171.651 102.885 171.651 101.848 171.548H93.2528C86.3211 171.548 76.4087 171.548 65.8725 172.242C56.3424 172.674 46.8496 173.717 37.4525 175.362C31.214 176.61 28.2333 177.997 27.8868 177.442C27.5402 176.888 29.7583 174.669 35.9275 172.45C45.6098 169.549 55.703 168.26 65.8032 168.636Z" fill="#7D7A7C"/>
<path d="M45.9093 170.993C50.4668 169.908 55.2152 169.908 59.7727 170.993C55.4278 172.556 50.8695 173.445 46.2559 173.628C41.8115 174.647 37.2905 175.297 32.7391 175.57C32.3925 174.53 38.2151 171.895 45.9093 170.993Z" fill="#F9E6CF"/>
<path opacity="0.5" d="M83.9644 180.632C91.5892 179.869 98.5903 179.592 103.65 179.592C106.428 179.484 109.21 179.6 111.968 179.939C109.287 180.623 106.55 181.064 103.789 181.256C98.7982 181.95 91.8665 182.92 84.5189 184.307C75.577 186.041 68.9225 187.636 64.6249 188.953C60.3272 190.271 58.2477 191.38 57.6932 190.964C57.1386 190.548 58.5943 188.468 62.7533 186.18C69.4017 182.984 76.6034 181.101 83.9644 180.632Z" fill="#7D7A7C"/>
<path d="M70.101 184.03C75.4385 182.574 79.9441 182.504 80.0827 183.198C80.2213 183.891 75.9237 185.209 70.7942 186.665C67.7534 187.862 64.5542 188.61 61.2978 188.884C60.8126 188.121 64.6943 185.486 70.101 184.03Z" fill="#F9E6CF"/>
<path opacity="0.5" d="M141.012 154.559C144.963 155.413 148.853 156.525 152.658 157.887C154.285 158.388 155.845 159.087 157.302 159.968C157.302 160.384 149.538 158.997 140.458 158.234C134.938 158.29 129.423 157.919 123.96 157.125C123.96 156.57 124.723 155.53 127.634 154.489C132.036 153.455 136.621 153.479 141.012 154.559Z" fill="#7D7A7C"/>
<path d="M132.486 154.42C135.883 154.42 138.517 155.391 138.448 156.084C138.378 156.778 135.675 157.055 132.486 157.125C129.298 157.194 126.733 157.125 126.525 156.362C126.317 155.599 128.674 154.42 132.486 154.42Z" fill="#F9E6CF"/>
<path opacity="0.5" d="M116.474 132.923C121.725 134.679 126.825 136.859 131.724 139.442C133.812 140.428 135.787 141.637 137.616 143.048C135.368 142.564 133.165 141.891 131.031 141.037C125.965 139.193 120.805 137.619 115.573 136.321C108.212 134.93 100.743 134.188 93.2527 134.102C93.2527 134.102 93.2527 133.409 94.2231 132.715C95.5317 132.053 96.9014 131.519 98.3128 131.12C104.42 130.114 110.684 130.736 116.474 132.923Z" fill="#7D7A7C"/>
<path d="M104.759 131.398C109.404 131.814 112.939 133.131 112.8 133.963C112.662 134.796 108.988 134.449 104.621 133.963C102.472 133.963 100.462 133.963 99.0062 133.963C97.5505 133.963 96.6494 133.963 96.5801 133.409C96.5107 132.854 97.3426 132.577 98.7982 132.022C100.751 131.564 102.754 131.354 104.759 131.398Z" fill="#F9E6CF"/>
<path opacity="0.5" d="M96.9267 141.106C103.296 142.744 109.548 144.806 115.642 147.278C118.208 148.222 120.689 149.382 123.059 150.745C120.351 150.363 117.683 149.737 115.088 148.873C110.236 147.694 103.512 145.891 96.1642 144.781C89.5708 143.612 82.8959 142.963 76.2009 142.84C73.905 143.208 71.5651 143.208 69.2692 142.84C69.2692 142.215 70.7248 140.898 75.3691 139.58C82.5801 138.508 89.9384 139.028 96.9267 141.106Z" fill="#7D7A7C"/>
<path d="M82.6473 139.719C88.1926 139.719 92.421 141.453 92.2823 142.146C92.1437 142.84 87.8461 142.632 82.578 142.146C79.9439 142.146 77.5871 142.146 75.6462 142.146C73.7054 142.146 72.8736 142.146 72.7349 141.73C72.5963 141.314 73.7054 140.759 75.4383 140.205C77.8172 139.787 80.2339 139.624 82.6473 139.719Z" fill="#F9E6CF"/>
<path opacity="0.5" d="M56.8613 149.427C68.7838 151.369 79.6666 153.727 87.4301 155.668C91.3812 156.57 94.3618 157.402 96.7186 158.026C97.892 158.255 99.0328 158.627 100.115 159.135C98.927 159.098 97.7443 158.959 96.58 158.719L87.1529 157.124C79.1814 155.946 68.2986 154.281 56.3761 153.033C45.5624 151.727 34.6879 150.986 23.797 150.814C20.1028 151.014 16.4005 151.014 12.7063 150.814C12.7063 150.398 15.5483 148.387 22.8266 147.416C34.2097 146.491 45.6663 147.167 56.8613 149.427Z" fill="#7D7A7C"/>
<path d="M34.2639 147.902C39.5423 147.577 44.8305 148.356 49.791 150.19C44.6164 150.899 39.3693 150.899 34.1946 150.19C29.0265 150.585 23.8358 150.585 18.6676 150.19C23.5591 148.014 28.9538 147.222 34.2639 147.902Z" fill="#F9E6CF"/>
<path opacity="0.5" d="M163.61 145.128C165.856 146.531 167.753 148.428 169.155 150.675C170.264 152.34 170.68 153.518 170.541 153.588C167.855 151.63 165.002 149.913 162.015 148.456C160.039 147.756 157.934 147.496 155.846 147.694C154.252 147.694 153.281 147.694 153.004 147.347C152.727 147 153.004 145.683 154.598 144.712C155.981 143.907 157.567 143.518 159.165 143.592C160.764 143.665 162.307 144.199 163.61 145.128Z" fill="#7D7A7C"/>
<path d="M157.649 144.365C160.075 144.365 161.6 145.544 161.322 146.099C161.045 146.654 159.52 146.792 157.787 147C156.054 147.208 154.529 147 154.183 146.584C153.836 146.168 155.292 144.504 157.649 144.365Z" fill="#F9E6CF"/>
<path opacity="0.5" d="M164.65 121.898C167.265 126.773 169.423 131.88 171.096 137.153C171.984 139.372 172.544 141.708 172.76 144.088C172.344 144.088 168.393 134.379 161.461 124.117C158.551 119.502 154.897 115.401 150.647 111.981C147.805 109.832 145.865 109.346 145.934 108.792C146.003 108.237 147.944 107.474 151.826 108.792C157.462 111.579 161.984 116.201 164.65 121.898Z" fill="#7D7A7C"/>
<path d="M156.747 112.675C160.144 115.934 161.669 119.609 161.114 119.609C160.56 119.609 157.995 117.321 154.876 114.339C151.756 111.357 148.776 109.693 148.984 109C149.192 108.306 153.281 109.277 156.747 112.675Z" fill="#F9E6CF"/>
<path opacity="0.5" d="M231.748 190.895C222.391 185.347 213.241 182.712 213.379 182.227C215.439 182.251 217.488 182.531 219.479 183.059C224.255 184.068 228.905 185.602 233.343 187.636C238.445 189.716 242.678 193.486 245.335 198.315C245.883 199.599 246.256 200.952 246.444 202.337C246.444 203.377 246.444 203.862 245.889 203.932C245.335 204.001 244.641 202.683 242.701 200.256C239.622 196.522 235.916 193.354 231.748 190.895Z" fill="#7D7A7C"/>
<path d="M240.136 196.304C238.75 194.986 237.433 193.808 236.601 192.837C235.769 191.866 235.145 191.242 235.353 190.895C235.561 190.548 236.462 190.895 237.71 191.242C239.245 192.133 240.685 193.179 242.007 194.362C245.057 197.483 245.82 201.297 245.127 201.297C244.434 201.297 242.77 198.731 240.136 196.304Z" fill="#F9E6CF"/>
<path opacity="0.5" d="M210.329 199.493C209.928 196.361 209.014 193.315 207.626 190.479C209.21 191.327 210.597 192.501 211.696 193.923C212.795 195.345 213.581 196.983 214.003 198.731C216.083 205.665 213.102 209.202 212.27 208.924C211.438 208.647 210.607 205.665 210.329 199.493Z" fill="#7D7A7C"/>
<path d="M211.3 204.07C211.3 202.268 211.3 200.742 212.409 200.603C213.518 200.465 214.073 202.059 214.003 204.07C213.934 206.081 213.171 207.607 212.409 207.538C211.647 207.468 211.3 205.665 211.3 204.07Z" fill="#F9E6CF"/>
<path opacity="0.5" d="M197.228 225.637C196.972 219.455 196.183 213.307 194.872 207.26C196.021 208.756 196.89 210.447 197.436 212.253C199.177 216.489 200.32 220.947 200.833 225.498C201.408 230.381 200.79 235.33 199.031 239.921C197.783 243.042 196.397 244.221 195.981 244.082C195.565 243.943 196.605 238.326 197.228 225.637Z" fill="#7D7A7C"/>
<path d="M197.228 234.928C197.714 231.392 198.407 228.549 199.1 228.549C199.793 228.549 200.417 231.6 199.863 235.483C199.308 239.366 197.783 242.071 197.021 241.793C196.258 241.516 196.466 238.395 197.228 234.928Z" fill="#F9E6CF"/>
<path opacity="0.5" d="M152.45 263.013L162.501 240.753C163.887 237.979 164.996 235.622 165.759 233.819C166.521 232.016 167.006 231.322 167.145 231.392C166.982 232.309 166.75 233.213 166.452 234.096L164.095 241.03C161.946 247.063 159.035 254.899 155.916 264.053C148.083 285.549 142.052 295.882 141.22 295.465C140.389 295.049 142.537 285.272 152.45 263.013Z" fill="#7D7A7C"/>
<path d="M146.35 279.517C147.511 275.542 149.495 271.857 152.172 268.699C151.952 272.849 150.815 276.898 148.845 280.557C147.716 284.544 145.728 288.236 143.022 291.374C143.291 287.232 144.424 283.193 146.35 279.517Z" fill="#F9E6CF"/>
<path opacity="0.5" d="M172.413 266.965C173.799 259.129 174.978 251.848 175.879 246.509C176.266 243.624 176.869 240.773 177.681 237.979C177.873 240.889 177.873 243.807 177.681 246.717C177.334 252.056 176.988 259.407 176.225 267.52C174.631 286.936 170.68 296.644 169.64 296.298C168.6 295.951 169.086 287.283 172.413 266.965Z" fill="#7D7A7C"/>
<path d="M170.888 281.944C171.858 276.327 172.898 271.75 173.661 271.82C174.601 275.27 174.601 278.909 173.661 282.36C172.76 287.977 171.443 292.484 170.611 292.345C169.928 288.901 170.022 285.347 170.888 281.944Z" fill="#F9E6CF"/>
<path opacity="0.5" d="M180.315 297.823C181.147 284.717 181.979 272.721 182.533 263.914C182.88 259.545 183.157 255.94 183.296 253.443C183.306 252.157 183.469 250.877 183.781 249.629C183.851 250.923 183.851 252.219 183.781 253.513C183.781 256.009 183.781 259.545 183.781 263.914C183.781 272.721 183.781 284.717 183.781 297.962C183.296 329.86 179.137 346.503 178.028 346.017C176.919 345.532 178.097 331.663 180.315 297.823Z" fill="#7D7A7C"/>
<path d="M179.414 322.371C179.373 316.647 180.167 310.947 181.771 305.451C182.832 311.079 182.949 316.844 182.117 322.51C182.147 328.271 181.186 333.995 179.275 339.43C178.541 333.764 178.587 328.024 179.414 322.371Z" fill="#F9E6CF"/>
<path opacity="0.5" d="M187.455 261.14C188.495 253.443 189.257 246.301 189.534 241.031C189.622 238.175 189.877 235.327 190.297 232.501C190.513 233.248 190.653 234.015 190.713 234.79C190.713 236.246 191.059 238.396 191.198 241.031C191.661 247.957 191.661 254.907 191.198 261.834C190.846 269.22 189.155 276.48 186.207 283.261C185.262 284.916 184.221 286.514 183.088 288.046C182.256 289.017 181.563 289.294 181.355 289.155C181.147 289.017 184.336 281.181 187.455 261.14Z" fill="#7D7A7C"/>
<path d="M185.445 275.703C185.876 272.314 186.959 269.041 188.633 266.064C189.465 266.064 189.326 270.779 188.009 276.396C187.324 278.776 186.443 281.095 185.375 283.33C184.336 284.995 183.504 285.896 183.226 285.688C182.949 285.48 183.226 284.371 183.573 282.637C183.92 280.903 184.543 278.338 185.445 275.703Z" fill="#F9E6CF"/>
<path opacity="0.5" d="M210.745 225.706C209.498 219.534 208.111 213.917 207.072 209.826L205.685 205.041C205.601 204.42 205.601 203.79 205.685 203.169C207.03 205.065 208.147 207.113 209.012 209.271C211.205 214.335 213.103 219.521 214.696 224.804C219.063 239.644 218.509 247.896 217.608 248.034C216.707 248.173 213.726 241.655 210.745 225.706Z" fill="#7D7A7C"/>
<path d="M213.795 237.078C212.825 232.64 212.686 228.965 213.38 228.757C214.073 228.549 215.459 232.085 216.429 236.523C217.4 240.961 217.331 244.775 216.429 244.845C215.528 244.914 214.766 241.516 213.795 237.078Z" fill="#F9E6CF"/>
<path opacity="0.5" d="M198.753 302.747C198.268 292.761 197.783 283.469 197.436 276.673C197.436 273.345 197.436 270.571 197.09 268.699C196.999 267.707 196.999 266.709 197.09 265.717C197.472 266.621 197.706 267.581 197.783 268.56C197.783 270.502 198.545 273.206 199.1 276.535C200.14 283.469 201.457 292.414 202.497 302.469C205.269 326.948 202.497 339.915 201.18 339.707C199.862 339.499 200.001 328.612 198.753 302.747Z" fill="#7D7A7C"/>
<path d="M200.278 321.4C199.696 317.023 199.955 312.574 201.041 308.294C202.647 312.442 203.31 316.895 202.982 321.331C203.691 325.729 203.286 330.235 201.803 334.437C200.598 330.201 200.083 325.799 200.278 321.4Z" fill="#F9E6CF"/>
<path opacity="0.5" d="M153.767 53.1087C157.371 65.3132 160.213 76.6163 162.154 84.8682C163.124 88.9595 163.887 92.3574 164.372 94.7151C164.732 95.9096 164.941 97.1441 164.996 98.3903C164.461 97.2018 164.021 95.9729 163.679 94.7151L160.56 85.215C157.926 77.1017 154.39 66.076 150.231 54.0795C145.171 39.656 141.22 28.769 138.309 21.6959C136.598 18.1898 135.116 14.5763 133.873 10.8782C134.219 10.4622 137.2 12.8199 140.804 19.6156C146.329 30.2757 150.675 41.5063 153.767 53.1087Z" fill="#7D7A7C"/>
<path d="M145.379 30.5717C147.812 35.5709 149.293 40.9794 149.746 46.5209C146.767 41.866 144.435 36.827 142.815 31.5426C140.491 26.5712 138.634 21.3943 137.269 16.0789C141.059 20.2157 143.835 25.1772 145.379 30.5717Z" fill="#F9E6CF"/>
<path opacity="0.5" d="M139.972 123.631C143.479 126.817 146.682 130.322 149.538 134.102C150.829 135.623 151.924 137.301 152.796 139.095C152.45 139.095 146.211 132.716 137.685 126.544C134.019 123.749 129.921 121.571 125.554 120.095C122.712 119.332 121.049 119.61 120.841 119.055C120.633 118.5 121.811 116.974 125.554 116.836C131.04 117.223 136.182 119.647 139.972 123.631Z" fill="#7D7A7C"/>
<path d="M130.823 118.5C134.635 120.095 136.784 122.66 136.368 123.215C135.952 123.77 133.11 122.383 129.783 120.996C126.456 119.609 123.683 119.193 123.544 118.431C123.406 117.668 127.01 116.766 130.823 118.5Z" fill="#F9E6CF"/>
<path opacity="0.5" d="M65.7338 128C79.5973 132.923 92.4209 137.986 101.64 141.869L112.454 146.515C113.808 147.083 115.127 147.731 116.405 148.456C114.964 148.156 113.55 147.739 112.176 147.208L101.016 143.256C91.6584 140.066 78.6961 135.697 64.5555 131.398C47.3648 126.22 34.3563 122.591 25.5299 120.511C21.016 119.78 16.5489 118.784 12.1517 117.529C12.1517 117.044 16.3108 116.073 25.2527 117.529C39.0674 119.632 52.6315 123.141 65.7338 128Z" fill="#7D7A7C"/>
<path d="M38.8389 120.511C45.2328 121.807 51.369 124.15 57 127.445C50.5902 126.723 44.2862 125.257 38.215 123.077C31.9086 121.84 25.7 120.149 19.6381 118.015C26.1424 117.494 32.6836 118.345 38.8389 120.511Z" fill="#F9E6CF"/>
<path opacity="0.5" d="M65.4566 142.146C78.211 145.405 89.7176 149.081 98.0357 151.716L107.948 155.044C109.161 155.414 110.343 155.877 111.483 156.431C110.216 156.318 108.963 156.086 107.74 155.738L97.8277 153.311C89.3017 151.3 77.5871 148.457 64.8328 145.752C49.3751 142.493 37.6605 140.205 29.7583 138.818C25.7205 138.527 21.7112 137.925 17.7665 137.015C17.7665 136.529 21.3017 135.281 29.2731 135.489C41.5371 136.411 53.6674 138.642 65.4566 142.146Z" fill="#7D7A7C"/>
<path d="M41.265 137.639C46.9867 138.128 52.5625 139.704 57.6932 142.285C52.0198 142.338 46.3617 141.686 40.8491 140.343C35.2124 139.791 29.6416 138.699 24.213 137.084C29.8701 136.031 35.6883 136.22 41.265 137.639Z" fill="#F9E6CF"/>
<path opacity="0.5" d="M92.1439 117.46C101.363 121.967 109.612 126.613 115.434 130.15C118.346 131.883 120.703 133.339 122.366 134.449C123.224 134.954 124.036 135.534 124.792 136.182C123.834 135.905 122.905 135.533 122.02 135.073L114.672 131.606C108.503 128.693 99.9767 124.671 90.6189 120.857C82.1258 117.279 73.449 114.155 64.625 111.496C61.5156 111 58.4704 110.163 55.5444 109C55.5444 108.584 58.3864 107.474 64.625 108.237C74.228 109.835 83.5165 112.948 92.1439 117.46Z" fill="#7D7A7C"/>
<path d="M73.9827 110.941C78.4005 111.899 82.5173 113.922 85.9746 116.836C81.5535 116.397 77.2274 115.274 73.1509 113.507C68.8506 112.523 64.6678 111.082 60.6738 109.208C65.1847 108.514 69.7997 109.116 73.9827 110.941Z" fill="#F9E6CF"/>
<path opacity="0.5" d="M247.137 180.147C236.739 177.512 227.52 176.471 227.589 176.055C229.546 175.63 231.554 175.49 233.551 175.639C238.325 175.552 243.098 175.831 247.83 176.471C253.083 176.97 258.108 178.861 262.387 181.95C265.229 184.377 265.575 186.526 265.09 186.734C259.322 183.989 253.312 181.784 247.137 180.147Z" fill="#7D7A7C"/>
<path d="M256.772 182.366C253.306 180.979 250.325 179.731 250.533 178.968C250.741 178.205 253.999 178.344 257.465 179.869C260.931 181.395 263.634 184.099 263.01 184.654C262.387 185.209 260.238 183.683 256.772 182.366Z" fill="#F9E6CF"/>
<path opacity="0.5" d="M208.735 102.204C206.309 111.496 203.744 119.887 201.803 125.92L199.308 132.854C199.028 133.746 198.657 134.606 198.199 135.42C198.239 134.483 198.378 133.553 198.615 132.646C198.961 130.843 199.516 128.347 200.14 125.226C201.526 118.986 203.398 110.456 205.2 101.095C207.349 89.7917 208.874 81.3317 209.775 75.6455C209.992 72.7071 210.527 69.8009 211.369 66.9775C211.924 66.9775 213.102 69.4739 213.171 75.3682C212.832 84.4651 211.341 93.4823 208.735 102.204Z" fill="#7D7A7C"/>
<path d="M211.854 84.5214C211.631 88.7201 210.42 92.8068 208.319 96.4486C207.83 92.3143 208.136 88.1247 209.22 84.1053C209.46 79.9832 210.301 75.9183 211.716 72.0395C212.936 76.1041 212.984 80.4307 211.854 84.5214Z" fill="#F9E6CF"/>
<path opacity="0.5" d="M268.071 97.6271C259.891 105.116 252.405 112.051 246.929 117.182C244.226 119.609 241.938 121.62 240.413 123.076C239.62 123.822 238.761 124.495 237.848 125.087C238.406 124.129 239.081 123.243 239.859 122.452L245.751 115.934C250.88 110.456 257.812 102.967 265.437 95.1307C283.944 75.5757 294.896 66.9077 295.59 67.3931C296.283 67.8785 288.935 77.9334 268.071 97.6271Z" fill="#7D7A7C"/>
<path d="M282.419 82.5798C279.241 86.3118 275.413 89.4366 271.121 91.8025C270.566 91.2478 274.725 86.3244 280.34 80.7075C283.582 76.9301 287.51 73.8008 291.916 71.4847C289.463 75.7384 286.243 79.5003 282.419 82.5798Z" fill="#F9E6CF"/>
<path opacity="0.5" d="M281.172 121.135L253.861 135.004L245.473 139.372C244.468 139.976 243.399 140.464 242.285 140.829C243.171 140.056 244.122 139.36 245.127 138.748L253.029 133.617C259.961 129.317 269.041 123.562 279.439 117.598C288.827 111.974 298.683 107.171 308.898 103.244C315.83 100.678 319.851 100.47 319.92 100.956C319.989 101.441 317.078 102.759 310.839 105.879L281.172 121.135Z" fill="#7D7A7C"/>
<path d="M300.65 110.525C296.189 113.182 291.351 115.146 286.301 116.35C290.115 112.772 294.588 109.969 299.471 108.098C303.953 105.394 308.966 103.691 314.167 103.106C310.006 106.161 305.461 108.656 300.65 110.525Z" fill="#F9E6CF"/>
<path opacity="0.5" d="M135.328 110.456C140.069 115.68 144.512 121.167 148.637 126.89C150.394 129.202 151.948 131.661 153.281 134.241C151.042 132.301 148.957 130.192 147.043 127.93C143.369 124.047 138.24 118.638 132.417 113.091C127.229 108.008 121.743 103.238 115.989 98.806C112.176 95.8935 109.889 94.9227 110.028 94.368C110.166 93.8132 112.662 93.5358 116.959 95.7549C123.959 99.4455 130.193 104.435 135.328 110.456Z" fill="#7D7A7C"/>
<path d="M123.752 100.47C128.327 104.145 131.239 107.959 130.684 108.445C130.129 108.93 126.456 106.156 122.019 102.551C117.583 98.9447 113.771 96.3789 114.048 95.6162C114.325 94.8534 119.177 96.6563 123.752 100.47Z" fill="#F9E6CF"/>
<path opacity="0.5" d="M71.1406 91.1786C82.7859 98.113 92.9755 105.047 100.254 110.248C103.928 112.814 107.186 114.964 108.849 116.558C109.942 117.292 110.964 118.128 111.899 119.055C110.686 118.518 109.525 117.867 108.433 117.113L99.3527 111.635C91.6585 106.989 81.1223 100.679 69.3384 94.7151C58.7207 88.7555 47.7481 83.4524 36.4821 78.8354C32.4883 77.6689 28.5941 76.1848 24.8368 74.3973C24.8368 73.9119 28.7185 73.4959 36.69 75.5068C48.8431 79.1109 60.4373 84.3851 71.1406 91.1786Z" fill="#7D7A7C"/>
<path d="M48.4046 80.2219C53.9707 82.1692 59.1037 85.1842 63.5157 89.0979C57.9053 87.5982 52.486 85.4576 47.3648 82.7183C41.9145 80.7899 36.6097 78.4725 31.4912 75.7839C37.3984 75.9197 43.1913 77.4397 48.4046 80.2219Z" fill="#F9E6CF"/>
<path opacity="0.5" d="M153.281 97.0032C156.823 102.963 159.972 109.148 162.708 115.518C164.032 118.169 165.123 120.93 165.966 123.77C164.215 121.391 162.64 118.888 161.253 116.281C158.411 111.635 154.321 105.255 149.885 98.7368C145.891 92.7796 141.241 87.2901 136.021 82.3716C132.417 79.3205 130.06 78.5577 130.129 78.003C130.199 77.4482 132.833 76.9628 137.477 79.4592C144.124 83.8987 149.556 89.9294 153.281 97.0032Z" fill="#7D7A7C"/>
<path d="M143.161 85.0761C147.251 89.4448 149.469 93.7441 148.845 94.1602C148.221 94.5762 145.102 91.109 141.22 87.2258C137.338 83.3425 133.734 80.2914 133.942 79.8753C134.15 79.4592 139.418 80.8461 143.161 85.0761Z" fill="#F9E6CF"/>
<path opacity="0.5" d="M90.8959 86.8792C101.848 95.4085 111.691 103.868 118.068 110.109C121.465 113.23 124.168 115.865 125.97 117.668C127.005 118.553 127.936 119.553 128.743 120.65C127.623 119.919 126.557 119.108 125.554 118.223L116.959 111.288C110.027 105.602 99.9072 97.7662 88.7471 89.7223C78.6886 82.3871 68.1777 75.6937 57.2771 69.6819C49.8602 65.7986 45.7012 64.9665 45.7705 64.3424C45.8398 63.7183 49.9295 63.4409 57.8317 66.4227C69.7795 71.6146 80.9157 78.5045 90.8959 86.8792Z" fill="#7D7A7C"/>
<path d="M69.2691 72.7329C74.5321 75.4893 79.2339 79.2052 83.1325 83.6892C77.75 81.3619 72.6367 78.4554 67.8828 75.0212C59.4954 69.8898 52.2864 66.9773 52.4944 66.0759C58.559 66.839 64.3308 69.1295 69.2691 72.7329Z" fill="#F9E6CF"/>
<path opacity="0.5" d="M116.474 79.0431C124.099 87.7804 130.338 96.1017 135.259 102.204L140.735 109.554C141.453 110.422 142.059 111.378 142.537 112.398C141.671 111.673 140.861 110.885 140.111 110.04L134.011 103.105C128.813 97.4886 121.742 89.6527 113.701 81.4008C104.066 71.6233 96.5801 64.3422 91.3814 60.0429C88.5552 57.9064 85.8693 55.5901 83.3406 53.1085C83.3406 52.5537 86.8758 53.1085 92.7677 56.9917C101.58 63.298 109.547 70.709 116.474 79.0431Z" fill="#7D7A7C"/>
<path d="M100.947 63.9953C104.936 67.1076 108.22 71.0309 110.582 75.5064C106.303 72.9201 102.426 69.7193 99.0755 66.0063C95.1936 62.9134 91.6188 59.4533 88.4006 55.6741C93.234 57.3112 97.5579 60.179 100.947 63.9953Z" fill="#F9E6CF"/>
<path opacity="0.5" d="M177.612 50.1961C179.622 63.0941 180.939 74.9519 181.701 83.6199C182.117 87.9192 182.395 91.4558 182.603 93.9522C182.709 95.2213 182.709 96.497 182.603 97.7661C182.249 96.5361 181.971 95.2855 181.771 94.0215C181.355 91.5945 180.731 88.1273 179.968 83.8973C178.582 75.2986 176.503 63.5795 174.077 50.8896C170.957 35.4952 168.254 23.9841 166.105 16.2176C163.956 8.45105 162.085 5.12254 162.501 4.77582C162.916 4.4291 165.828 7.06417 168.878 14.4146C173.167 25.9623 176.098 37.9703 177.612 50.1961Z" fill="#7D7A7C"/>
<path d="M171.997 26.4109C173.833 31.8073 174.655 37.4967 174.423 43.1922C172.048 38.0771 170.369 32.6662 169.432 27.1044C167.699 21.7821 166.378 16.334 165.481 10.8085C168.907 15.3917 171.146 20.7519 171.997 26.4109Z" fill="#F9E6CF"/>
<path opacity="0.5" d="M140.181 71.4152C144.478 80.1526 147.875 88.3352 150.232 94.7148C151.41 97.7659 152.311 100.193 152.935 101.649C153.324 102.536 153.604 103.468 153.767 104.423C153.13 103.586 152.638 102.649 152.311 101.649L148.707 94.7148C145.726 89.0286 141.775 80.846 136.853 72.8021C132.643 65.1789 128.015 57.7941 122.99 50.6814C119.663 45.966 117.375 44.163 117.583 43.747C117.791 43.3309 120.841 43.747 125.069 48.185C131.344 55.0486 136.449 62.8964 140.181 71.4152Z" fill="#7D7A7C"/>
<path d="M130.476 55.9516C133.188 59.265 135.045 63.194 135.883 67.3934C135.19 67.8094 132.07 63.1634 128.189 57.4772C125.507 54.2476 123.183 50.7368 121.257 47.0062C121.95 46.1741 126.594 50.0574 130.476 55.9516Z" fill="#F9E6CF"/>
<path opacity="0.5" d="M140.804 58.0321C146.835 72.5943 151.618 86.1857 154.668 96.1019L158.48 107.96C158.962 109.414 159.356 110.896 159.659 112.398C158.922 111.065 158.296 109.673 157.787 108.237L153.281 96.726C149.33 87.0179 143.854 73.7732 137.339 59.5577C131.558 46.5936 124.864 34.057 117.306 22.0426C112.107 14.1374 108.295 11.1556 108.572 10.7395C108.849 10.3234 113.286 11.9184 119.385 19.3382C128.277 31.1847 135.485 44.2065 140.804 58.0321Z" fill="#7D7A7C"/>
<path d="M127.288 32.3054C131.058 38.0272 133.803 44.3631 135.398 51.0283C131.398 45.5498 127.895 39.7249 124.931 33.6229C119.524 23.9148 114.117 16.7723 114.533 16.2869C120.003 20.5305 124.376 26.0233 127.288 32.3054Z" fill="#F9E6CF"/>
<path opacity="0.5" d="M127.08 75.6452C134.011 87.7804 140.181 99.1528 144.478 107.474C146.488 111.635 148.221 115.102 149.4 117.46C150.025 118.675 150.581 119.925 151.063 121.204C150.202 120.141 149.437 119.004 148.776 117.806L142.953 108.584C138.101 100.609 131.447 89.5833 123.891 77.8642C114.741 63.3713 107.602 53.1084 102.541 46.174C97.4813 39.2396 94.362 36.1885 94.6393 35.7031C94.9165 35.2177 98.6597 36.9513 104.482 43.2616C113.12 53.2409 120.693 64.0942 127.08 75.6452Z" fill="#7D7A7C"/>
<path d="M112.246 53.8711C116.121 58.6198 119.167 63.9884 121.257 69.7509C116.979 65.4531 113.232 60.6572 110.097 55.466C106.323 50.7407 102.917 45.7333 99.9072 40.4877C104.922 44.023 109.128 48.5851 112.246 53.8711Z" fill="#F9E6CF"/>
<path opacity="0.5" d="M113.424 184.862C119.561 183.598 125.763 182.672 132.001 182.088C134.608 181.871 137.228 181.871 139.834 182.088C137.425 182.744 134.968 183.207 132.486 183.475C127.842 184.584 121.396 186.11 114.603 188.19C106.354 190.687 100.323 192.906 96.3721 194.501C92.4211 196.096 90.3415 197.066 90.0643 196.789C89.787 196.512 90.8268 194.57 94.4313 191.866C100.296 188.421 106.728 186.049 113.424 184.862Z" fill="#7D7A7C"/>
<path d="M100.6 189.231C105.522 187.289 109.75 186.804 109.958 187.497C110.166 188.191 106.284 189.855 101.64 191.727C99.2142 192.629 97.204 193.599 95.5403 194.016C93.8767 194.432 93.0449 194.986 92.7677 194.64C92.4904 194.293 93.2529 193.461 94.6392 192.351C96.5161 191.113 98.5133 190.067 100.6 189.231Z" fill="#F9E6CF"/>
<path opacity="0.5" d="M64.6943 195.402C75.3198 192.733 86.079 190.626 96.9267 189.092C101.155 188.468 104.552 188.052 106.908 187.844C108.154 187.731 109.406 187.731 110.651 187.844L107.047 188.815L97.2733 191.034C89.0246 192.906 77.7259 195.541 65.6647 199.216C54.7146 202.402 44.086 206.604 33.9175 211.768C26.9858 215.512 24.629 218.355 24.1438 218.009C23.6585 217.662 25.2528 214.195 31.5607 209.479C41.631 202.761 52.8688 197.986 64.6943 195.402Z" fill="#7D7A7C"/>
<path d="M42.374 203.724C47.3194 201.134 52.7482 199.599 58.3169 199.216C53.6412 202.064 48.6667 204.39 43.4831 206.151C35.4423 209.826 29.1344 213.709 28.5106 213.224C27.8867 212.738 33.848 207.468 42.374 203.724Z" fill="#F9E6CF"/>
<path opacity="0.5" d="M61.4362 189.855C75.7155 187.566 88.8164 186.11 98.3822 185.209L109.75 184.169H113.979C112.654 184.623 111.282 184.926 109.889 185.07L98.6595 187.012C89.163 188.607 76.1314 190.826 62.06 193.946C45.0774 197.413 32.323 200.395 23.9356 202.891C15.5483 205.388 11.5972 207.26 11.3199 206.844C11.0427 206.428 14.0233 203.446 22.0641 199.91C34.7715 195.097 47.9779 191.725 61.4362 189.855Z" fill="#7D7A7C"/>
<path d="M35.4423 196.026C41.4099 194.059 47.6683 193.122 53.95 193.253C48.1492 195.766 42.0787 197.604 35.8582 198.731C29.9377 200.627 23.8925 202.11 17.7665 203.169C23.0858 199.562 29.1109 197.127 35.4423 196.026Z" fill="#F9E6CF"/>
<path opacity="0.5" d="M57.208 159.482C71.0714 161.008 83.2019 162.672 91.8665 164.059L102.541 165.792C103.881 165.949 105.203 166.228 106.492 166.625C105.155 166.747 103.809 166.747 102.472 166.625L91.6586 165.862L56.5148 163.365C40.0866 162.325 27.6789 161.562 19.3608 161.285C15.1415 161.393 10.9207 161.138 6.74512 160.522C6.74512 160.037 10.3496 158.581 18.529 158.026C31.4401 157.438 44.3776 157.926 57.208 159.482Z" fill="#7D7A7C"/>
<path d="M31.6994 158.373C37.6601 158.14 43.6164 158.937 49.3059 160.73C43.4315 161.622 37.4655 161.738 31.5608 161.077C25.6607 161.193 19.7635 160.728 13.9542 159.69C19.7229 158.075 25.7556 157.627 31.6994 158.373Z" fill="#F9E6CF"/>
<path opacity="0.5" d="M201.18 107.127C199.377 115.033 197.506 122.244 196.119 127.445C195.443 130.324 194.563 133.151 193.485 135.905C193.568 132.971 193.893 130.049 194.456 127.168C195.218 121.759 196.327 114.408 197.506 106.365C198.331 96.4778 200.237 86.7114 203.19 77.2401C204.368 77.1708 205.893 86.6709 201.18 107.127Z" fill="#7D7A7C"/>
<path d="M203.19 92.0104C202.358 97.8353 200.902 102.343 200.14 102.204C199.345 98.7356 199.345 95.1321 200.14 91.6637C200.311 88.1072 201.183 84.6195 202.705 81.4008C203.814 81.4702 204.091 86.2549 203.19 92.0104Z" fill="#F9E6CF"/>
<path opacity="0.5" d="M192.099 72.2473C191.267 85.3533 190.227 97.3498 189.326 106.087C188.841 110.456 188.494 113.992 188.217 116.419C188.181 117.713 187.971 118.996 187.593 120.233C187.477 118.965 187.477 117.688 187.593 116.419C187.593 113.923 187.593 110.386 187.593 106.018C187.593 97.2111 188.009 85.2146 188.286 72.1086C188.702 56.2982 188.91 44.371 189.118 36.2578C188.913 32.1969 189.169 28.1258 189.881 24.1226C191.128 23.8452 194.456 38.4075 192.099 72.2473Z" fill="#7D7A7C"/>
<path d="M192.238 47.6998C192.647 53.4205 192.06 59.1689 190.505 64.6891C189.407 59.0969 189.081 53.3806 189.534 47.6998C189.209 42.0155 189.558 36.3127 190.574 30.7105C192.214 36.2142 192.779 41.9824 192.238 47.6998Z" fill="#F9E6CF"/>
<path opacity="0.5" d="M201.803 68.5721C199.932 81.6088 197.991 93.5359 196.397 102.135C195.773 106.434 194.872 109.97 194.872 112.398C194.644 113.662 194.343 114.912 193.971 116.142C193.803 114.876 193.803 113.594 193.971 112.328C193.971 109.832 194.525 106.295 194.941 101.927C195.842 93.1892 197.021 81.1234 198.338 68.1561C199.863 52.3456 201.041 40.4185 201.873 32.3746C201.955 28.2786 202.513 24.2061 203.536 20.2394C204.715 20.1007 206.933 34.9403 201.803 68.5721Z" fill="#7D7A7C"/>
<path d="M203.952 44.0246C203.905 49.7684 202.897 55.4638 200.972 60.8752C200.243 55.2031 200.36 49.4543 201.318 43.8165C201.414 38.1063 202.182 32.4272 203.606 26.8966C204.788 32.5343 204.905 38.3436 203.952 44.0246Z" fill="#F9E6CF"/>
<path opacity="0.5" d="M220.866 106.018C217.469 113.576 213.934 120.442 211.647 125.365C210.379 128.077 208.92 130.696 207.28 133.201C207.974 130.279 208.925 127.425 210.122 124.671C211.993 119.401 214.558 112.328 217.4 104.631C220.395 95.0329 223.983 85.6303 228.144 76.4774C229.53 76.4774 229.53 86.5323 220.866 106.018Z" fill="#7D7A7C"/>
<path d="M225.787 91.317C223.846 96.9338 221.559 101.233 220.865 100.956C220.862 97.3335 221.668 93.7562 223.222 90.4848C225.163 84.9373 226.757 80.4993 227.52 80.638C227.965 84.29 227.364 87.9934 225.787 91.317Z" fill="#F9E6CF"/>
<path opacity="0.5" d="M206.448 243.943C204.992 236.593 203.329 230.074 201.942 224.943C201.071 222.311 200.376 219.624 199.863 216.899C199.863 216.899 200.348 217.592 201.041 218.91C201.734 220.228 202.497 222.031 203.536 224.388C206.099 230.486 208.275 236.74 210.052 243.111C215.182 261.279 211.439 271.681 210.052 271.195C208.666 270.71 209.636 270.571 209.567 269.531C209.318 267.9 209.156 266.256 209.082 264.608C208.626 257.672 207.746 250.771 206.448 243.943Z" fill="#7D7A7C"/>
<path d="M209.29 257.673C208.553 254.433 208.553 251.067 209.29 247.827C210.052 247.827 211.508 251.918 212.062 257.396C212.617 262.874 211.577 267.451 210.815 267.382C209.759 264.256 209.243 260.973 209.29 257.673Z" fill="#F9E6CF"/>
<path opacity="0.5" d="M210.815 284.024L202.566 251.224C201.526 246.994 200.694 243.527 200.14 241.1C199.797 239.872 199.542 238.62 199.377 237.355C199.977 238.484 200.465 239.668 200.833 240.892C201.595 243.25 202.774 246.648 204.23 250.739C207.002 259.06 210.676 270.502 214.35 283.053C223.638 313.495 224.47 330.484 223.153 330.484C221.518 327.032 220.375 323.367 219.757 319.597C217.816 311.831 214.904 300.389 210.815 284.024Z" fill="#7D7A7C"/>
<path d="M217.331 307.601C215.609 302.166 214.652 296.518 214.489 290.819C217.226 295.852 219.078 301.317 219.965 306.977C221.759 312.427 222.512 318.167 222.183 323.897C219.912 318.681 218.282 313.209 217.331 307.601Z" fill="#F9E6CF"/>
<path opacity="0.5" d="M223.43 261.14C219.41 250.947 215.39 241.724 212.478 234.928L209.082 226.468C208.636 225.504 208.266 224.507 207.973 223.486C207.973 223.486 208.735 224.388 209.775 226.191L214.003 233.819C217.538 240.268 222.183 249.213 226.827 259.268C231.331 268.364 234.84 277.919 237.294 287.768C238.819 294.703 238.334 298.17 237.848 298.17C237.363 298.17 234.175 287.006 223.43 261.14Z" fill="#7D7A7C"/>
<path d="M231.471 279.586C229.437 275.203 228.126 270.519 227.589 265.717C230.62 269.49 232.817 273.862 234.036 278.546C236.085 282.872 237.06 287.63 236.878 292.414C234.565 288.372 232.749 284.065 231.471 279.586Z" fill="#F9E6CF"/>
<path opacity="0.5" d="M247.691 239.852C243.047 232.917 238.264 227.162 234.798 222.793C232.821 220.587 230.97 218.272 229.253 215.859C229.253 215.859 230.016 216.275 231.194 217.315C232.372 218.355 234.036 219.881 236.046 221.822C241.254 226.823 246.14 232.15 250.672 237.771C255.775 243.693 259.641 250.578 262.04 258.02C263.357 263.221 262.664 266.064 262.04 266.064C258.031 256.924 253.23 248.153 247.691 239.852Z" fill="#7D7A7C"/>
<path d="M256.356 252.403C253.653 247.272 251.296 243.042 251.92 242.626C252.544 242.21 255.871 245.816 258.851 251.155C261.832 256.495 262.387 261.626 261.624 261.765C260.862 261.903 259.129 257.535 256.356 252.403Z" fill="#F9E6CF"/>
<path opacity="0.5" d="M239.997 206.913C235.422 202.961 230.917 199.563 227.659 197.136C225.766 195.932 224.001 194.538 222.391 192.975C224.541 193.645 226.61 194.552 228.56 195.68C233.382 198.103 238.016 200.885 242.423 204.001C247.323 207.195 251.406 211.494 254.346 216.552C256.148 220.227 255.871 222.516 255.386 222.585C254.9 222.654 251.85 217.107 239.997 206.913Z" fill="#7D7A7C"/>
<path d="M248.523 214.125C245.681 210.936 243.324 208.3 243.81 207.676C244.295 207.052 247.483 208.925 250.741 212.322C253.999 215.72 255.039 219.257 254.346 219.673C253.653 220.089 251.435 217.246 248.523 214.125Z" fill="#F9E6CF"/>
<path opacity="0.5" d="M271.12 171.964C263.01 170.993 255.455 170.647 249.909 170.3C246.918 170.289 243.931 170.08 240.968 169.676C243.91 169.056 246.903 168.708 249.909 168.636C255.455 168.289 263.01 167.942 271.398 168.22C279.181 168.165 286.894 169.699 294.064 172.727C298.986 175.015 300.303 178.066 299.887 178.274C299.471 178.482 297.808 177.165 292.955 175.917C285.804 173.975 278.499 172.652 271.12 171.964Z" fill="#7D7A7C"/>
<path d="M286.093 173.49C280.478 172.241 275.765 171.271 275.834 170.508C279.414 169.529 283.206 169.65 286.717 170.854C292.678 172.033 296.906 175.084 296.491 175.709C292.967 175.274 289.487 174.532 286.093 173.49Z" fill="#F9E6CF"/>
<path opacity="0.5" d="M226.966 120.996C223.015 126.475 219.341 131.467 216.568 134.865C215.189 136.892 213.635 138.795 211.924 140.551C212.744 138.124 213.837 135.798 215.182 133.617C217.331 129.664 220.381 124.256 223.846 118.431C232.095 104.562 237.71 98.1822 238.888 98.7369C240.067 99.2917 237.155 106.85 226.966 120.996Z" fill="#7D7A7C"/>
<path d="M233.412 110.179C230.778 114.2 228.144 117.113 227.52 116.766C226.896 116.419 228.49 112.744 231.124 108.722C233.758 104.7 236.393 101.788 237.016 102.135C237.64 102.481 236.046 106.157 233.412 110.179Z" fill="#F9E6CF"/>
<path opacity="0.5" d="M282.904 128.693L255.732 140.482L247.345 144.088C246.345 144.598 245.301 145.016 244.225 145.336C244.225 145.336 245.196 144.573 246.998 143.464L254.97 138.956C261.901 135.281 270.982 130.288 281.379 125.087C290.831 120.276 300.718 116.375 310.909 113.438C317.84 111.635 321.722 111.981 321.722 112.536C321.722 113.091 318.811 113.854 312.503 116.35C306.195 118.846 296.56 122.938 282.904 128.693Z" fill="#7D7A7C"/>
<path d="M302.383 119.887C298.005 122.041 293.333 123.536 288.519 124.325C292.435 121.167 296.934 118.81 301.759 117.39C306.292 115.095 311.304 113.907 316.385 113.923C311.973 116.464 307.272 118.466 302.383 119.887Z" fill="#F9E6CF"/>
<path opacity="0.5" d="M270.15 255.662C261.763 245.885 253.722 237.217 247.899 230.906L240.968 223.348C240.091 222.46 239.28 221.51 238.542 220.505C239.608 221.193 240.607 221.982 241.522 222.862L249.078 229.797C255.455 235.691 264.05 243.666 272.923 253.235C281.31 261.622 288.728 270.926 295.035 280.973C299.194 287.907 299.887 292.206 299.402 292.345C298.917 292.484 297.253 289.433 292.47 283.4C287.687 277.367 281.033 268.075 270.15 255.662Z" fill="#7D7A7C"/>
<path d="M286.024 273.622C282.26 269.424 279.045 264.764 276.458 259.753C281.093 262.995 285.068 267.09 288.173 271.819C292.039 275.972 294.908 280.952 296.56 286.382C292.705 282.424 289.181 278.157 286.024 273.622Z" fill="#F9E6CF"/>
<path opacity="0.5" d="M247.414 272.443C242.354 262.25 237.225 253.166 233.551 246.578L228.976 238.742C228.339 237.809 227.804 236.809 227.382 235.76C228.199 236.526 228.92 237.387 229.53 238.326C230.847 240.06 232.788 242.487 234.937 245.676C240.672 253.745 245.993 262.1 250.88 270.71C256.265 279.852 260.281 289.735 262.803 300.042C263.981 306.977 263.773 310.86 262.803 310.86C261.304 307.905 260.231 304.754 259.614 301.498C256.127 291.58 252.053 281.878 247.414 272.443Z" fill="#7D7A7C"/>
<path d="M256.703 291.444C254.554 287.038 252.971 282.378 251.989 277.575C255.237 281.353 257.604 285.806 258.921 290.612C260.112 293.942 261.085 297.348 261.832 300.805C261.832 303.579 261.832 305.243 261.832 305.313C261.832 305.382 260.862 303.787 260.03 301.291C259.198 298.794 258.158 295.258 256.703 291.444Z" fill="#F9E6CF"/>
<path opacity="0.5" d="M243.879 155.807C234.521 157.194 226.688 159.413 226.55 158.997C228 157.993 229.557 157.156 231.194 156.5C235.148 154.747 239.225 153.286 243.394 152.132C247.866 150.631 252.669 150.415 257.257 151.508C260.515 152.686 261.416 154.559 261.07 154.905C260.723 155.252 259.406 154.905 256.911 154.905C252.549 154.826 248.188 155.128 243.879 155.807Z" fill="#7D7A7C"/>
<path d="M252.405 154.212C249.147 154.212 246.305 154.212 246.166 153.449C246.028 152.686 248.731 151.577 252.336 151.508C255.94 151.438 259.267 152.964 258.505 153.657C257.742 154.351 255.663 154.004 252.405 154.212Z" fill="#F9E6CF"/>
<path opacity="0.5" d="M252.266 95.4777L235.353 116.281L230.085 122.452C229.447 123.264 228.727 124.008 227.936 124.671C228.385 123.876 228.919 123.132 229.53 122.452L234.105 115.518L249.355 93.328C263.842 72.5248 272.854 63.2327 273.685 63.8568C274.517 64.4809 269.041 74.4664 252.266 95.4777Z" fill="#7D7A7C"/>
<path d="M263.496 79.5978C259.059 85.5614 254.97 89.9994 254.346 89.5834C255.911 85.3023 258.262 81.3513 261.278 77.9336C265.783 71.97 269.873 67.532 270.497 67.948C268.954 72.2554 266.575 76.2147 263.496 79.5978Z" fill="#F9E6CF"/>
<path opacity="0.5" d="M232.858 80.1527C227.035 91.8025 221.628 102.481 217.746 110.317C215.736 114.131 214.073 117.252 212.964 119.471C212.386 120.62 211.738 121.731 211.023 122.799C211.357 121.562 211.798 120.355 212.34 119.193C213.241 116.905 214.558 113.576 216.221 109.624C219.687 101.649 224.332 90.5543 229.53 78.5578C242.077 49.6413 250.326 35.5645 251.365 35.9806C252.405 36.3966 247.761 49.9881 232.858 80.1527Z" fill="#7D7A7C"/>
<path d="M242.631 57.8935C240.662 63.2073 237.854 68.1707 234.313 72.5944C235.414 67.0196 237.403 61.6581 240.205 56.7147C242.174 51.3795 244.982 46.3933 248.523 41.9444C247.44 47.5461 245.45 52.9333 242.631 57.8935Z" fill="#F9E6CF"/>
<path opacity="0.5" d="M263.011 193.738C257.618 191.074 252.062 188.758 246.374 186.804C244.003 186.094 241.686 185.214 239.443 184.168C240.134 184.091 240.831 184.091 241.522 184.168C243.384 184.35 245.235 184.628 247.068 185.001C253.1 186.153 259.016 187.847 264.743 190.063C271.05 192.338 276.644 196.237 280.964 201.366C281.871 202.837 282.682 204.366 283.39 205.942C283.39 207.121 283.39 207.745 283.39 207.884C277.342 202.176 270.472 197.408 263.011 193.738Z" fill="#7D7A7C"/>
<path d="M274.24 199.632C272.494 198.498 270.827 197.247 269.249 195.888C267.863 194.917 267.169 194.154 267.308 193.807C267.447 193.461 268.556 193.807 270.15 194.224C272.153 195.151 274.077 196.241 275.903 197.483C277.611 198.896 279.126 200.528 280.409 202.337C281.241 203.862 281.587 204.902 281.31 205.111C281.033 205.319 280.132 204.694 279.023 203.585C277.914 202.475 275.973 201.297 274.24 199.632Z" fill="#F9E6CF"/>
<path opacity="0.5" d="M295.936 189.647C284.152 187.012 273.2 185.139 265.298 183.822L255.801 182.227C254.629 182.06 253.47 181.805 252.335 181.464C253.512 181.373 254.694 181.373 255.871 181.464L265.436 182.158C273.546 182.851 284.637 183.891 296.629 185.971C307.762 187.526 318.601 190.728 328.792 195.472C335.724 198.939 337.942 202.406 337.595 202.891C337.249 203.377 334.684 201.158 328.099 198.731C317.619 194.907 306.868 191.871 295.936 189.647Z" fill="#7D7A7C"/>
<path d="M317.771 194.57C312.666 193.42 307.728 191.626 303.076 189.231C308.382 189.059 313.667 189.979 318.603 191.935C323.797 193.103 328.584 195.641 332.466 199.286C327.486 197.98 322.581 196.406 317.771 194.57Z" fill="#F9E6CF"/>
<path opacity="0.5" d="M228.075 71.2766C223.222 84.7293 218.578 97.0726 215.043 105.949C213.241 110.387 211.785 113.992 210.815 116.489C210.382 117.833 209.776 119.115 209.012 120.303C209.306 118.942 209.677 117.6 210.122 116.281C210.884 113.646 212.062 109.971 213.449 105.394C216.36 96.2404 220.38 83.6892 224.539 70.0978L236.462 32.7214C237.524 28.3957 239.083 24.2073 241.106 20.2394C242.285 20.3781 240.76 36.4659 228.075 71.2766Z" fill="#7D7A7C"/>
<path d="M235.838 45.55C234.438 51.6525 232.099 57.5007 228.906 62.886C229.582 56.6909 231.049 50.6083 233.273 44.7872C234.683 38.7349 236.8 32.8696 239.581 27.3125C239.406 33.5635 238.14 39.7358 235.838 45.55Z" fill="#F9E6CF"/>
<path opacity="0.5" d="M265.922 217.523C258.99 213.293 253.098 209.687 248.523 207.121C245.968 205.811 243.491 204.352 241.106 202.753C241.87 202.86 242.616 203.07 243.324 203.377C244.78 203.862 246.79 204.556 249.216 205.596C255.607 208.146 261.834 211.087 267.863 214.402C274.394 217.853 280.299 222.377 285.331 227.786C288.45 231.877 289.351 234.235 288.796 234.72C288.242 235.206 282.697 228.687 265.922 217.523Z" fill="#7D7A7C"/>
<path d="M278.052 225.428C273.616 221.961 270.15 218.979 270.566 218.494C270.982 218.008 275.21 219.811 279.716 223.348C281.586 224.938 283.325 226.678 284.915 228.549C286.024 230.213 286.509 231.322 286.232 231.53C285.954 231.738 284.915 231.114 283.598 229.936C282.281 228.757 280.27 227.162 278.052 225.428Z" fill="#F9E6CF"/>
<path opacity="0.5" d="M311.671 157.125C303.284 157.125 295.52 158.165 289.836 158.719C286.781 159.159 283.703 159.413 280.617 159.482C281.353 159.082 282.149 158.801 282.974 158.65L289.559 157.055C296.787 155.443 304.1 154.239 311.463 153.449C319.356 152.28 327.399 152.609 335.17 154.42C340.507 156.015 342.586 158.303 342.101 158.65C341.616 158.997 339.606 158.65 334.823 157.749C327.134 156.929 319.393 156.72 311.671 157.125Z" fill="#7D7A7C"/>
<path d="M327.406 156.362C323.701 156.587 319.986 156.117 316.454 154.975C319.951 153.493 323.798 153.036 327.545 153.657C333.783 154.004 338.635 156.084 338.358 156.847C334.701 157.11 331.026 156.947 327.406 156.362Z" fill="#F9E6CF"/>
<path opacity="0.5" d="M301.897 141.037L279.439 147L272.507 148.803C270.843 149.219 269.942 149.427 269.873 149.289C270.641 148.818 271.454 148.423 272.299 148.11L278.884 145.405C284.499 143.186 292.262 140.343 300.788 137.5C308.634 134.728 316.739 132.753 324.98 131.606C330.595 130.982 333.575 131.606 333.506 132.23C323.188 135.9 312.626 138.843 301.897 141.037Z" fill="#7D7A7C"/>
<path d="M317.91 136.321C314.191 137.703 310.22 138.27 306.264 137.985C309.519 135.697 313.275 134.223 317.216 133.686C320.989 132.318 325.064 132.006 329 132.785C325.529 134.581 321.779 135.776 317.91 136.321Z" fill="#F9E6CF"/>
<path opacity="0.5" d="M279.647 98.2513C271.536 104.076 264.189 109.624 258.851 113.576L252.474 118.361C251.719 119.003 250.879 119.54 249.979 119.956C250.571 119.17 251.245 118.449 251.989 117.806L257.812 112.328C262.733 107.751 269.596 101.649 277.428 95.2695C284.485 89.2671 292.179 84.0582 300.372 79.7364C306.056 76.9627 309.592 76.824 309.592 77.3094C309.592 77.7948 307.373 78.9737 302.66 82.3022C297.946 85.6307 290.183 90.7621 279.647 98.2513Z" fill="#7D7A7C"/>
<path d="M294.48 86.9483C291.114 89.7548 287.261 91.9174 283.112 93.328C282.696 92.7039 286.994 88.6819 292.955 84.66C296.37 81.8028 300.486 79.9113 304.878 79.1818C305.224 79.8753 300.372 82.9264 294.48 86.9483Z" fill="#F9E6CF"/>
<path opacity="0.5" d="M299.749 202.545C291.431 199.216 283.528 196.789 277.706 195.056L270.774 193.045L268.279 192.143C268.279 192.143 269.249 192.143 270.913 192.143C272.576 192.143 275.072 192.698 277.844 193.183C285.577 194.586 293.216 196.462 300.719 198.8C308.947 201.045 316.572 205.096 323.039 210.658C327.268 214.819 328.03 218.009 327.475 218.217C326.921 218.425 325.465 216.483 321.376 213.501C314.644 208.973 307.381 205.294 299.749 202.545Z" fill="#7D7A7C"/>
<path d="M315.137 208.855C309.592 205.666 304.878 203.377 305.225 202.614C309.265 202.789 313.168 204.138 316.454 206.498C322.277 209.757 325.742 214.264 325.049 214.75C321.619 213.005 318.308 211.036 315.137 208.855Z" fill="#F9E6CF"/>
<path opacity="0.5" d="M266.892 242.209C259.059 234.443 251.435 227.717 246.097 222.863L239.165 217.038C238.301 216.387 237.51 215.643 236.809 214.819C237.791 215.271 238.72 215.829 239.581 216.483C241.314 217.662 243.81 219.326 246.513 221.545C252.544 225.914 260.376 232.085 269.11 239.505C277.063 246.138 284.061 253.839 289.905 262.389C293.371 268.421 294.411 271.889 293.857 272.166C293.302 272.443 291.5 269.947 287.618 264.746C283.736 259.545 277.082 252.195 266.892 242.209Z" fill="#7D7A7C"/>
<path d="M281.657 256.564C276.458 250.669 272.229 245.815 272.784 245.26C273.339 244.706 278.399 248.797 283.667 254.83C285.9 257.451 287.939 260.232 289.767 263.151C291.014 265.44 291.5 267.034 291.222 267.243C290.945 267.451 289.836 266.202 288.242 264.261C286.647 262.319 284.221 259.545 281.657 256.564Z" fill="#F9E6CF"/>
<path opacity="0.5" d="M247.969 258.991C243.116 250.739 238.403 243.25 235.006 237.771L231.055 231.253C230.517 230.477 230.075 229.639 229.738 228.757C230.455 229.36 231.085 230.06 231.61 230.837C232.788 232.293 234.452 234.304 236.393 236.801C240.344 241.932 245.681 249.005 251.088 256.98C264.951 276.119 267.308 288.878 266.199 289.086C265.09 289.294 260.862 280.21 247.969 258.991Z" fill="#7D7A7C"/>
<path d="M257.673 274.038C255.237 270.61 253.473 266.751 252.474 262.666C253.098 262.25 256.564 266.688 260.03 272.721C262.492 276.206 264.019 280.265 264.466 284.509C263.704 284.787 261.07 279.933 257.673 274.038Z" fill="#F9E6CF"/>
<path opacity="0.5" d="M291.916 222.446C284.984 218.494 278.537 215.512 273.824 212.808C271.177 211.65 268.627 210.281 266.199 208.716C269.039 209.337 271.821 210.195 274.517 211.282C281.031 213.547 287.417 216.163 293.649 219.118C300.483 222.09 306.71 226.298 312.018 231.53C315.553 235.275 316.038 238.465 315.622 238.465C315.206 238.465 313.751 237.078 310.146 234.304C304.328 229.967 298.239 226.006 291.916 222.446Z" fill="#7D7A7C"/>
<path d="M304.947 229.52C300.303 226.33 296.56 223.625 296.976 222.585C297.392 221.545 301.69 223.625 306.472 226.954C311.255 230.282 314.097 234.235 313.404 234.72C312.711 235.206 309.522 232.64 304.947 229.52Z" fill="#F9E6CF"/>
<path opacity="0.5" d="M273.824 110.387L253.029 124.602L246.652 128.971C245.904 129.551 245.089 130.04 244.225 130.427C244.825 129.69 245.498 129.016 246.236 128.416L251.989 123.285C256.841 119.055 263.704 113.368 271.398 107.336C278.407 101.694 285.98 96.7904 293.995 92.704C299.402 89.9996 302.66 89.5835 302.798 90.0689C293.541 97.3967 283.867 104.181 273.824 110.387Z" fill="#7D7A7C"/>
<path d="M288.311 99.7077C282.558 103.452 277.706 106.642 277.22 105.671C276.735 104.7 281.033 101.233 286.856 97.4194C290.156 94.6724 294.127 92.8534 298.362 92.1492C295.414 95.1638 292.025 97.7124 288.311 99.7077Z" fill="#F9E6CF"/>
<path opacity="0.5" d="M151.549 299.834L160.698 270.918L163.54 262.042C163.792 260.921 164.213 259.846 164.788 258.852C164.683 259.996 164.497 261.132 164.234 262.25C163.748 264.4 163.124 267.52 162.293 271.334C160.56 278.962 158.134 289.502 155.361 300.874C148.429 328.612 141.498 341.857 140.319 341.302C139.141 340.747 142.607 328.751 151.549 299.834Z" fill="#7D7A7C"/>
<path d="M145.795 320.984C146.926 315.975 148.845 311.177 151.479 306.769C151.348 311.908 150.291 316.982 148.36 321.747C147.207 326.686 145.189 331.381 142.399 335.616C142.69 330.581 143.839 325.632 145.795 320.984Z" fill="#F9E6CF"/>
<path opacity="0.5" d="M223.153 59.0722C219.757 69.7512 216.221 79.39 213.726 86.3937L210.537 94.715C210.188 95.7461 209.747 96.744 209.22 97.6968C209.334 96.6854 209.543 95.6871 209.844 94.715L212.132 86.1164C214.073 79.182 216.707 68.9884 219.549 58.3788C222.945 45.4115 225.441 35.7033 227.243 28.9076C227.773 25.3172 228.727 21.8023 230.085 18.4366C230.57 18.4366 231.333 21.6265 230.57 28.2835C229.011 38.7453 226.529 49.0485 223.153 59.0722Z" fill="#7D7A7C"/>
<path d="M228.075 38.7541C227.409 43.6779 225.708 48.4047 223.084 52.6229C223.091 47.765 223.887 42.9406 225.441 38.338C226.215 33.5532 227.614 28.8905 229.6 24.4692C230.186 29.2849 229.665 34.171 228.075 38.7541Z" fill="#F9E6CF"/>
<path opacity="0.5" d="M257.257 101.095C251.92 106.573 246.998 111.635 243.394 114.963C241.503 117.006 239.464 118.906 237.294 120.65C238.699 118.196 240.323 115.876 242.146 113.715C245.265 109.624 249.701 104.146 254.554 98.1821C266.268 83.7586 273.824 77.3789 274.586 78.3498C275.349 79.3206 270.635 86.8097 257.257 101.095Z" fill="#7D7A7C"/>
<path d="M266.06 89.9996C262.387 94.0909 259.129 96.934 258.436 96.5873C257.742 96.2406 260.376 92.3573 264.05 88.1967C267.724 84.0361 270.982 81.2623 271.606 81.6784C272.23 82.0944 269.665 85.9083 266.06 89.9996Z" fill="#F9E6CF"/>
<path opacity="0.5" d="M248.593 82.7875L231.748 106.919L226.48 114.27C225.843 115.188 225.124 116.047 224.332 116.835C224.743 115.795 225.254 114.796 225.857 113.854L230.362 106.018C234.313 99.4994 239.651 90.4847 245.473 80.7765C259.822 57.2689 268.902 46.1045 269.804 46.7286C270.705 47.3527 265.298 58.5864 248.593 82.7875Z" fill="#7D7A7C"/>
<path d="M259.753 64.6891C257.351 69.1182 254.156 73.0673 250.325 76.3389C251.833 71.5902 254.181 67.1511 257.257 63.2329C259.549 58.8092 262.653 54.857 266.407 51.5831C264.972 56.3073 262.72 60.7432 259.753 64.6891Z" fill="#F9E6CF"/>
</g>
</g>
</g>
<defs>
<clipPath id="clip0_1_11075">
<rect width="344.714" height="351.574" fill="white" transform="translate(0.922485 0.961853)"/>
</clipPath>
</defs>
</svg>
