<svg viewBox="0 0 496 506" fill="none" xmlns="http://www.w3.org/2000/svg">
<g opacity="0.8">
<g clip-path="url(#clip0_1_10471)">
<g style="mix-blend-mode:screen">
<path opacity="0.5" d="M270.582 248.608C273.635 247.695 276.887 247.695 279.939 248.608C277.622 250.532 275.082 252.17 272.374 253.488C267.497 256.475 263.913 255.579 263.316 254.284C262.719 252.99 264.212 249.604 270.582 248.608Z" fill="#7D7A7C"/>
<path d="M266.601 250.899C268.193 250.202 269.786 250.899 270.184 251.496C270.582 252.094 269.587 253.787 267.994 254.484C266.402 255.181 264.809 254.484 264.411 253.886C264.013 253.289 264.909 251.496 266.601 250.899Z" fill="#F9E6CF"/>
<path opacity="0.5" d="M277.053 272.906C278.034 270.059 278.274 267.008 277.75 264.043C277.75 261.653 276.057 260.458 276.356 260.259C276.655 260.06 278.347 260.259 279.94 262.948C281.804 266.136 282.638 269.822 282.329 273.503C281.731 283.461 277.053 287.145 275.858 286.648C274.664 286.15 274.266 281.569 277.053 272.906Z" fill="#7D7A7C"/>
<path d="M276.257 279.577C276.953 277.088 278.446 275.196 279.342 275.395C280.238 275.594 280.736 277.984 279.94 280.673C279.143 283.361 277.451 285.154 276.555 284.855C275.659 284.556 275.659 282.166 276.257 279.577Z" fill="#F9E6CF"/>
<path opacity="0.5" d="M256.647 223.415C259.05 225.583 260.662 228.492 261.226 231.68C261.723 233.871 261.723 235.364 261.226 235.364C260.728 235.364 257.841 230.087 253.362 227.896C248.883 225.705 244.901 228.593 244.005 227C243.109 225.406 244.005 225.008 245.299 223.415C246.526 222.467 247.958 221.819 249.48 221.523C250.739 221.25 252.045 221.279 253.29 221.608C254.536 221.937 255.686 222.556 256.647 223.415Z" fill="#7D7A7C"/>
<path d="M249.48 222.618C252.366 222.618 254.457 223.913 253.959 224.809C253.461 225.705 251.869 226.103 250.177 226.402C248.484 226.701 246.493 226.402 245.996 226.402C245.498 226.402 246.394 223.415 249.48 222.618Z" fill="#F9E6CF"/>
<path opacity="0.5" d="M232.06 237.356C234.455 236.822 236.936 236.804 239.338 237.302C241.741 237.8 244.01 238.802 245.996 240.244C241.809 240.482 237.666 241.217 233.653 242.434C227.382 245.92 223.699 248.907 222.604 248.011C221.509 247.115 221.708 246.119 222.604 243.928C223.584 242.191 224.943 240.698 226.58 239.56C228.218 238.422 230.091 237.668 232.06 237.356Z" fill="#7D7A7C"/>
<path d="M225.69 241.538C228.079 239.845 230.468 239.547 230.965 240.642C231.463 241.737 229.97 243.231 228.079 244.625C226.188 246.019 224.396 247.015 223.699 246.418C223.002 245.82 223.599 243.53 225.69 241.538Z" fill="#F9E6CF"/>
<path opacity="0.5" d="M217.428 270.317C223.092 266.893 229.332 264.531 235.843 263.346C235.843 263.346 228.377 268.425 220.414 274.798C210.46 282.465 206.876 286.648 205.582 286.249C204.288 285.851 204.487 284.059 206.08 280.972C208.729 276.378 212.677 272.671 217.428 270.317Z" fill="#7D7A7C"/>
<path d="M209.664 277.287C212.55 274.599 215.537 273.404 216.233 274.3C216.93 275.196 214.939 277.586 212.351 280.076C209.763 282.565 207.573 284.457 206.578 283.86C205.582 283.262 206.976 280.076 209.664 277.287Z" fill="#F9E6CF"/>
<path opacity="0.5" d="M289.296 227.896C286.592 231.016 283.178 233.44 279.342 234.966C280.871 231.492 282.703 228.16 284.817 225.008C286.509 221.821 287.106 219.929 287.604 219.929C288.102 219.929 287.604 219.232 287.604 218.635C287.433 218.22 287.433 217.755 287.604 217.34C287.604 217.34 288.898 215.249 291.785 217.34C292.4 218.135 292.797 219.077 292.937 220.073C293.076 221.068 292.954 222.083 292.581 223.016C291.843 224.857 290.723 226.52 289.296 227.896Z" fill="#7D7A7C"/>
<path d="M291.984 221.722C291.088 224.411 289.197 225.406 288.401 224.809C287.604 224.212 287.704 222.32 288.401 220.726C288.301 220.402 288.301 220.055 288.401 219.73C288.323 219.539 288.323 219.325 288.401 219.133C288.401 218.635 288.401 218.137 288.401 217.639C288.522 217.493 288.674 217.375 288.846 217.295C289.018 217.214 289.206 217.172 289.396 217.172C289.586 217.172 289.774 217.214 289.946 217.295C290.118 217.375 290.27 217.493 290.391 217.639C290.858 218.169 291.228 218.775 291.486 219.432C291.756 220.169 291.924 220.939 291.984 221.722Z" fill="#F9E6CF"/>
<path opacity="0.5" d="M266.899 205.789C266.396 211.329 264.625 216.678 261.723 221.423C261.126 221.423 261.723 213.855 261.723 205.69C261.664 202.278 260.989 198.904 259.733 195.732C259.193 195.071 258.757 194.332 258.439 193.541C257.941 193.043 257.742 192.645 257.841 192.246C257.941 191.848 259.533 190.554 262.719 192.246C264.598 193.897 265.984 196.036 266.722 198.427C267.46 200.817 267.521 203.366 266.899 205.789Z" fill="#7D7A7C"/>
<path d="M264.909 197.026C266.302 200.512 264.909 203.2 264.212 203.3C263.515 203.399 262.321 200.81 261.325 198.52C260.33 196.23 260.23 196.429 260.131 195.433C259.865 195.202 259.661 194.907 259.54 194.577C259.418 194.246 259.381 193.89 259.434 193.541C259.434 193.043 260.529 193.043 261.823 193.541C263.188 194.355 264.266 195.573 264.909 197.026Z" fill="#F9E6CF"/>
<path opacity="0.5" d="M271.279 201.906C272.772 193.64 274.166 186.072 275.161 180.396C275.515 177.357 276.148 174.357 277.053 171.434C277.595 174.456 277.762 177.533 277.55 180.596C277.55 186.272 277.55 194.138 276.654 202.603C274.962 223.016 270.682 233.074 269.288 232.476C267.895 231.879 267.198 223.116 271.279 201.906Z" fill="#7D7A7C"/>
<path d="M269.388 217.54C270.284 211.565 271.876 206.885 272.872 206.984C273.867 207.084 274.166 212.063 272.872 218.137C271.578 224.211 270.184 228.792 269.189 228.095C268.193 227.398 269.388 223.415 269.388 217.54Z" fill="#F9E6CF"/>
<path opacity="0.5" d="M293.975 182.786C291.486 189.956 288.898 196.329 286.808 201.009C285.875 203.621 284.603 206.098 283.025 208.378C282.528 208.378 285.613 195.931 288.799 181.293C290.266 172.452 292.497 163.756 295.468 155.302C296.065 155.302 297.757 157.194 298.056 161.974C297.916 169.096 296.535 176.139 293.975 182.786Z" fill="#7D7A7C"/>
<path d="M296.563 168.746C295.567 174.123 293.576 178.704 292.482 177.907C291.387 177.11 291.785 173.227 292.482 167.949C293.178 162.671 294.472 158.688 295.567 158.688C296.662 158.688 297.658 163.369 296.563 168.746Z" fill="#F9E6CF"/>
<path opacity="0.5" d="M215.736 256.774C221.716 254.441 228.154 253.521 234.549 254.085C234.549 254.683 226.386 256.973 217.826 261.653C207.872 267.329 202.994 270.615 201.7 269.719C200.406 268.823 201.203 267.329 203.293 264.84C206.529 260.954 210.868 258.141 215.736 256.774Z" fill="#7D7A7C"/>
<path d="M207.474 262.151C210.559 259.861 213.745 259.562 214.143 260.458C214.541 261.354 212.351 263.346 209.564 265.338C206.777 267.329 204.189 268.624 203.392 267.728C202.596 266.831 204.288 264.242 207.474 262.151Z" fill="#F9E6CF"/>
<path opacity="0.5" d="M171.938 228.892C179.782 229.442 187.552 230.776 195.131 232.875C198.38 233.455 201.53 234.495 204.487 235.962C204.487 236.659 189.457 233.771 171.838 234.169C163.866 234.342 155.917 235.074 148.048 236.36C142.772 237.157 139.985 237.754 139.686 237.057C139.388 236.36 140.98 234.169 146.256 232.078C154.427 228.932 163.245 227.838 171.938 228.892Z" fill="#7D7A7C"/>
<path d="M154.817 230.585C161.387 229.489 166.762 230.585 166.762 231.381C166.762 232.178 161.586 233.373 155.414 234.369C149.243 235.364 144.266 236.46 143.768 235.265C143.27 234.07 148.148 231.381 154.817 230.585Z" fill="#F9E6CF"/>
<path opacity="0.5" d="M329.113 208.279L309.901 219.033C307.324 220.748 304.592 222.215 301.739 223.415C303.77 221.057 306.076 218.951 308.607 217.141C312.987 213.457 319.159 208.578 326.127 203.698C332.533 198.995 339.66 195.363 347.229 192.944C352.604 191.35 355.889 192.944 355.69 192.944C355.491 192.944 348.025 197.524 329.113 208.279Z" fill="#7D7A7C"/>
<path d="M342.252 199.914C336.877 202.603 332.298 204.395 331.701 203.499C331.104 202.603 334.986 199.217 340.46 196.429C345.935 193.641 351.211 192.844 351.509 193.939C351.808 195.035 347.528 197.126 342.252 199.914Z" fill="#F9E6CF"/>
<path opacity="0.5" d="M330.008 237.157C320.054 237.157 311.494 238.551 311.394 237.954C317.052 234.769 323.271 232.707 329.71 231.879C332.323 231.167 335.072 231.112 337.712 231.72C340.352 232.328 342.801 233.58 344.84 235.364C347.627 238.75 346.333 241.14 345.736 241.14C345.138 241.14 344.043 239.945 342.053 239.049C338.2 237.638 334.108 236.996 330.008 237.157Z" fill="#7D7A7C"/>
<path d="M339.067 237.057C335.981 236.261 332.995 235.464 332.995 234.468C332.995 233.472 336.08 232.277 340.062 233.273C344.044 234.269 346.134 238.352 345.039 238.75C343.944 239.148 341.953 237.754 339.067 237.057Z" fill="#F9E6CF"/>
<path opacity="0.5" d="M316.769 174.422C311.992 181.592 306.815 187.965 303.929 192.545C302.206 195.146 300.203 197.551 297.956 199.715C298.93 196.757 300.232 193.918 301.838 191.251C304.526 186.073 308.209 179.202 311.792 171.335C321.946 153.51 327.918 145.345 329.113 145.345C330.307 145.345 329.113 156.099 316.769 174.422Z" fill="#7D7A7C"/>
<path d="M324.135 160.182C321.149 165.559 317.864 169.443 316.969 168.845C316.073 168.248 317.765 163.667 320.751 158.29C323.737 152.912 326.524 149.029 327.52 149.427C328.515 149.826 327.122 155.302 324.135 160.182Z" fill="#F9E6CF"/>
<path opacity="0.5" d="M261.226 148.431C262.52 158.389 263.117 168.347 263.415 174.92C263.702 178.632 263.702 182.36 263.415 186.072C262.312 182.529 261.513 178.898 261.027 175.218C259.732 168.447 258.14 159.286 255.95 149.427C253.362 137.478 251.172 128.615 249.48 122.74C247.788 116.865 246.593 114.176 247.19 113.678C247.788 113.18 250.674 114.774 253.561 120.45C257.761 129.246 260.357 138.722 261.226 148.431Z" fill="#7D7A7C"/>
<path d="M256.348 129.81C258.339 136.98 258.538 143.054 257.543 143.253C256.547 143.452 254.557 137.776 252.665 130.905C250.774 124.035 249.48 118.558 249.48 117.96C249.48 117.363 254.457 122.64 256.348 129.81Z" fill="#F9E6CF"/>
<path opacity="0.5" d="M236.938 283.361C239.677 279.677 243.047 276.508 246.892 274.001C245.358 278.289 243.425 282.423 241.119 286.349C239.674 289.261 237.904 292.001 235.843 294.514C234.648 296.108 233.354 296.904 232.658 296.805C231.961 296.705 231.264 295.311 231.563 292.821C232.442 289.23 234.303 285.954 236.938 283.361Z" fill="#7D7A7C"/>
<path d="M233.852 289.735C235.146 287.345 237.037 285.951 237.933 286.548C238.829 287.146 238.431 289.336 237.236 291.627C236.042 293.917 234.449 295.311 233.553 295.012C232.657 294.714 232.458 292.124 233.852 289.735Z" fill="#F9E6CF"/>
<path opacity="0.5" d="M199.71 392.998L219.618 352.27L225.789 339.922C226.515 338.373 227.346 336.876 228.278 335.441C227.935 337.123 227.4 338.76 226.685 340.321C225.59 343.408 223.898 347.889 221.808 353.266C217.527 364.12 211.854 379.057 205.085 395.189C189.258 434.324 178.408 453.343 177.114 452.746C175.82 452.148 180.896 434.124 199.71 392.998Z" fill="#7D7A7C"/>
<path d="M187.665 423.171C190.114 415.959 193.784 409.222 198.515 403.255C197.253 410.78 194.765 418.046 191.149 424.764C188.712 431.961 185.077 438.694 180.399 444.68C181.599 437.154 184.056 429.883 187.665 423.171Z" fill="#F9E6CF"/>
<path opacity="0.5" d="M179.801 404.251L204.288 361.929C207.573 356.552 210.161 351.971 212.053 349.084C212.97 347.453 214.001 345.889 215.138 344.403C214.551 346.154 213.819 347.853 212.949 349.482C211.455 352.768 209.166 357.349 206.478 363.025L184.48 406.74C163.775 447.468 150.437 467.284 149.143 466.488C147.849 465.691 155.613 446.472 179.801 404.251Z" fill="#7D7A7C"/>
<path d="M163.775 435.519C167.059 427.961 171.566 420.997 177.114 414.906C174.97 422.874 171.613 430.465 167.16 437.411C163.759 444.905 159.264 451.852 153.821 458.024C155.911 450.036 159.272 442.438 163.775 435.519Z" fill="#F9E6CF"/>
<path opacity="0.5" d="M158.997 411.719C167.956 398.376 176.218 386.127 182.489 377.364L189.954 367.406C191.746 365.016 192.741 363.622 192.941 363.722C192.349 365.216 191.616 366.65 190.751 368.004L184.48 379.057C179.005 388.418 171.639 401.164 163.476 415.005C143.568 448.364 131.922 464.795 130.329 463.899C128.737 463.003 135.605 445.974 158.997 411.719Z" fill="#7D7A7C"/>
<path d="M143.569 437.51C146.803 431.259 151.117 425.63 156.31 420.88C154.197 427.691 150.82 434.042 146.356 439.601C143.299 445.915 139.116 451.619 134.013 456.43C135.982 449.579 139.224 443.161 143.569 437.51Z" fill="#F9E6CF"/>
<path opacity="0.5" d="M169.848 378.46L188.462 353.864C191 350.343 193.795 347.014 196.823 343.906C195.009 347.855 192.879 351.652 190.452 355.258C186.371 362.129 180.498 371.39 174.227 381.547C158.799 405.944 148.546 416.897 147.252 416.101C145.958 415.304 151.233 403.155 169.848 378.46Z" fill="#7D7A7C"/>
<path d="M157.604 397.28C162.481 390.21 167.06 385.032 167.558 385.63C168.056 386.227 165.268 392.401 160.391 399.471C155.513 406.541 150.935 411.719 150.437 411.122C149.939 410.524 152.826 404.251 157.604 397.28Z" fill="#F9E6CF"/>
<path opacity="0.5" d="M173.928 324.587C183.883 316.521 192.742 309.451 199.51 304.672C203.051 301.763 206.812 299.132 210.759 296.805C210.759 296.805 209.962 297.9 208.27 299.593L201.103 306.464L177.512 328.869C155.314 349.681 143.967 359.938 142.772 358.743C141.578 357.548 148.645 345.3 173.928 324.587Z" fill="#7D7A7C"/>
<path d="M157.007 341.217C163.576 335.043 169.549 330.761 170.345 331.259C171.141 331.757 166.164 337.831 159.893 344.503C153.622 351.175 147.948 355.457 147.152 354.461C146.356 353.465 150.437 347.491 157.007 341.217Z" fill="#F9E6CF"/>
<path opacity="0.5" d="M127.244 379.754C140.881 367.307 153.622 356.154 162.979 348.187L174.127 338.727C175.476 337.491 176.943 336.391 178.507 335.441C177.438 336.937 176.202 338.307 174.824 339.524L164.87 349.98C156.111 358.643 144.066 370.593 131.126 383.638C115.332 399.371 103.221 411.055 94.7934 418.69C86.5316 426.357 82.1518 430.141 81.6541 429.643C81.1564 429.145 91.9068 411.619 127.244 379.754Z" fill="#7D7A7C"/>
<path d="M102.956 404.251C108.236 398.149 114.493 392.967 121.471 388.916C117.176 395.719 111.834 401.802 105.644 406.939C100.404 413.002 94.3395 418.299 87.6267 422.673C91.6248 415.686 96.8126 409.451 102.956 404.251Z" fill="#F9E6CF"/>
<path opacity="0.5" d="M142.772 384.335L169.847 356.055L178.209 347.69C179.21 346.595 180.309 345.595 181.494 344.703C180.804 346.02 179.969 347.256 179.005 348.387L171.639 357.648L147.152 387.522C123.86 415.404 109.824 427.851 108.63 427.353C107.435 426.855 116.294 412.217 142.772 384.335Z" fill="#7D7A7C"/>
<path d="M124.755 405.545C131.922 397.479 138.293 391.504 139.089 392.301C136.375 398.239 132.519 403.585 127.742 408.035C120.575 416.101 114.204 421.976 113.408 421.279C116.122 415.341 119.978 409.995 124.755 405.545Z" fill="#F9E6CF"/>
<path opacity="0.5" d="M132.918 344.503C146.854 333.55 159.893 324.587 169.848 317.517L181.295 309.75C182.632 308.668 184.105 307.765 185.674 307.061C184.511 308.325 183.246 309.49 181.892 310.547L171.341 319.409L136.601 348.287C104.051 375.174 87.6268 389.015 86.8305 388.119C86.0342 387.223 96.6851 371.091 132.918 344.503Z" fill="#7D7A7C"/>
<path d="M108.033 365.315C113.457 359.928 119.793 355.545 126.746 352.37C127.443 353.266 120.077 360.237 110.521 368.302C105.148 373.645 99.0489 378.204 92.4048 381.845C96.5287 375.401 101.831 369.793 108.033 365.315Z" fill="#F9E6CF"/>
<path opacity="0.5" d="M86.3328 312.439C103.454 305.468 119.48 299.991 131.126 296.108L145.062 291.726C146.773 291.12 148.54 290.686 150.338 290.432C148.763 291.301 147.134 292.066 145.46 292.722L132.022 298.398C120.674 303.178 105.146 309.651 88.4232 317.318C68.515 326.579 53.2853 333.948 43.5303 339.325C38.7761 342.408 33.8212 345.169 28.6987 347.59C28.1015 347.59 30.9881 342.512 40.0464 335.94C54.5202 326.351 70.0518 318.465 86.3328 312.439Z" fill="#7D7A7C"/>
<path d="M55.3754 327.674C62.2186 323.401 69.8241 320.493 77.7721 319.11C71.426 323.96 64.5053 328.007 57.1671 331.16C50.4107 335.37 43.2392 338.873 35.7659 341.615C41.2123 335.598 47.904 330.841 55.3754 327.674Z" fill="#F9E6CF"/>
<path opacity="0.5" d="M93.1013 329.267C106.838 322.695 119.778 317.218 129.135 313.335L139.985 308.854C141.361 308.244 142.795 307.777 144.265 307.46C144.265 307.46 142.971 308.455 140.483 309.849L130.031 315.526L95.4903 334.545C79.4643 343.408 67.3203 350.08 59.357 354.461C55.4854 357.192 51.3099 359.465 46.9144 361.232C45.5209 359.739 57.2667 345.897 93.1013 329.267Z" fill="#7D7A7C"/>
<path d="M68.3159 343.607C73.7682 339.713 79.9723 337 86.5319 335.641C87.1291 336.636 79.6636 341.416 70.3067 346.893C64.9211 350.721 59.0235 353.772 52.7876 355.955C52.0908 355.058 58.8595 349.084 68.3159 343.607Z" fill="#F9E6CF"/>
<path opacity="0.5" d="M110.123 332.155C121.272 326.38 131.624 321.401 139.189 317.916L148.247 313.932C149.36 313.379 150.527 312.945 151.731 312.638C150.846 313.508 149.84 314.245 148.745 314.829L140.284 320.106L112.711 336.836C100.129 345.498 86.8047 353.029 72.8948 359.341C71.8993 358.146 81.4553 346.893 110.123 332.155Z" fill="#7D7A7C"/>
<path d="M90.215 344.503C97.8796 339.723 104.549 336.935 105.146 337.831C105.743 338.727 99.7709 343.109 92.2058 347.789C87.8997 351.13 83.0033 353.63 77.7724 355.158C77.3742 354.461 82.8489 349.482 90.215 344.503Z" fill="#F9E6CF"/>
<path opacity="0.5" d="M93.9972 241.538C109.326 241.538 123.362 242.534 133.813 243.53L145.858 244.924C147.338 245.06 148.804 245.326 150.238 245.721C148.748 245.868 147.248 245.868 145.758 245.721H133.415C123.461 245.721 109.227 245.721 94.0967 246.716C80.4112 247.338 66.7795 248.835 53.285 251.198C44.3263 252.99 40.0461 254.982 39.5484 254.185C39.0507 253.388 42.236 250.202 51.0951 247.015C64.999 242.849 79.4931 240.999 93.9972 241.538Z" fill="#7D7A7C"/>
<path d="M65.429 244.924C71.9737 243.366 78.7924 243.366 85.3371 244.924C79.0978 247.168 72.5519 248.444 65.9267 248.708C59.5444 250.171 53.0521 251.104 46.5162 251.496C46.0185 250.003 54.3799 246.219 65.429 244.924Z" fill="#F9E6CF"/>
<path opacity="0.5" d="M120.077 258.765C131.026 257.67 141.08 257.272 148.346 257.272C152.335 257.117 156.33 257.283 160.291 257.77C156.441 258.752 152.51 259.385 148.546 259.662C141.379 260.657 131.425 262.051 120.873 264.043C108.032 266.532 98.4766 268.823 92.305 270.715C86.1335 272.607 83.1473 274.2 82.351 273.603C81.5546 273.005 83.645 270.018 89.6174 266.732C99.1646 262.143 109.506 259.438 120.077 258.765Z" fill="#7D7A7C"/>
<path d="M100.169 263.645C107.833 261.554 114.304 261.454 114.503 262.45C114.702 263.446 108.53 265.338 101.164 267.429C96.7974 269.148 92.2034 270.222 87.527 270.615C86.8303 269.52 92.4045 265.736 100.169 263.645Z" fill="#F9E6CF"/>
<path opacity="0.5" d="M201.999 221.324C207.672 222.55 213.258 224.147 218.722 226.103C221.059 226.822 223.299 227.826 225.391 229.091C225.391 229.688 214.242 227.697 201.203 226.601C193.277 226.682 185.356 226.149 177.512 225.008C177.512 224.211 178.607 222.718 182.788 221.224C189.109 219.739 195.693 219.773 201.999 221.324Z" fill="#7D7A7C"/>
<path d="M189.756 221.124C194.633 221.124 198.416 222.519 198.316 223.514C198.217 224.51 194.334 224.908 189.756 225.008C185.177 225.108 181.494 225.008 181.195 223.913C180.896 222.817 184.281 221.124 189.756 221.124Z" fill="#F9E6CF"/>
<path opacity="0.5" d="M166.761 190.255C174.303 192.776 181.626 195.907 188.66 199.615C191.659 201.031 194.496 202.767 197.121 204.793C193.894 204.098 190.73 203.132 187.665 201.906C180.391 199.258 172.981 196.997 165.467 195.134C154.897 193.137 144.172 192.07 133.415 191.948C133.415 191.948 133.415 190.952 134.809 189.956C136.688 189.005 138.655 188.238 140.682 187.666C149.451 186.221 158.447 187.114 166.761 190.255Z" fill="#7D7A7C"/>
<path d="M149.939 188.064C156.608 188.662 161.685 190.554 161.486 191.749C161.287 192.944 156.011 192.446 149.74 191.749C146.654 191.749 143.768 191.749 141.677 191.749C139.587 191.749 138.293 191.749 138.193 190.952C138.094 190.155 139.288 189.757 141.379 188.96C144.183 188.303 147.059 188.002 149.939 188.064Z" fill="#F9E6CF"/>
<path opacity="0.5" d="M138.691 202.005C147.837 204.358 156.816 207.319 165.567 210.868C169.251 212.224 172.814 213.89 176.218 215.847C172.329 215.299 168.497 214.399 164.771 213.158C157.803 211.465 148.147 208.876 137.596 207.283C128.128 205.604 118.543 204.672 108.928 204.495C105.631 205.023 102.271 205.023 98.9744 204.495C98.9744 203.599 101.065 201.707 107.734 199.815C118.089 198.274 128.656 199.022 138.691 202.005Z" fill="#7D7A7C"/>
<path d="M118.186 200.014C126.149 200.014 132.221 202.503 132.022 203.499C131.823 204.495 125.651 204.196 118.086 203.499C114.304 203.499 110.919 203.499 108.132 203.499C105.345 203.499 104.15 203.499 103.951 202.902C103.752 202.304 105.345 201.507 107.833 200.711C111.25 200.111 114.72 199.877 118.186 200.014Z" fill="#F9E6CF"/>
<path opacity="0.5" d="M81.1565 213.955C98.2775 216.743 113.905 220.129 125.054 222.917C130.728 224.211 135.008 225.406 138.392 226.302C140.077 226.631 141.716 227.166 143.27 227.896C141.564 227.842 139.865 227.642 138.193 227.298L124.656 225.008C113.209 223.315 97.5807 220.925 80.4597 219.133C64.9311 217.256 49.3151 216.193 33.6755 215.946C28.3706 216.233 23.054 216.233 17.749 215.946C17.749 215.349 21.8302 212.461 32.282 211.067C48.6283 209.737 65.0802 210.71 81.1565 213.955Z" fill="#7D7A7C"/>
<path d="M48.7062 211.764C56.2861 211.298 63.88 212.417 71.0034 215.05C63.5725 216.068 56.0376 216.068 48.6067 215.05C41.1851 215.617 33.7312 215.617 26.3096 215.05C33.3339 211.925 41.0807 210.788 48.7062 211.764Z" fill="#F9E6CF"/>
<path opacity="0.5" d="M234.449 207.781C237.675 209.795 240.398 212.52 242.412 215.747C244.005 218.137 244.602 219.83 244.403 219.929C240.546 217.118 236.449 214.653 232.16 212.56C229.321 211.555 226.298 211.181 223.3 211.465C221.011 211.465 219.617 211.465 219.219 210.967C218.821 210.469 219.219 208.577 221.509 207.183C223.495 206.027 225.772 205.469 228.067 205.575C230.362 205.681 232.578 206.446 234.449 207.781Z" fill="#7D7A7C"/>
<path d="M225.889 206.685C229.373 206.685 231.563 208.378 231.165 209.175C230.766 209.972 228.576 210.171 226.088 210.469C223.599 210.768 221.41 210.469 220.912 209.872C220.414 209.274 222.504 206.885 225.889 206.685Z" fill="#F9E6CF"/>
<path opacity="0.5" d="M235.942 174.422C239.698 181.423 242.797 188.756 245.2 196.329C246.475 199.515 247.28 202.869 247.589 206.287C246.991 206.287 241.318 192.346 231.363 177.608C227.185 170.981 221.938 165.092 215.835 160.182C211.754 157.095 208.967 156.398 209.066 155.601C209.166 154.805 211.953 153.709 217.527 155.601C225.621 159.605 232.115 166.241 235.942 174.422Z" fill="#7D7A7C"/>
<path d="M224.595 161.178C229.472 165.858 231.662 171.136 230.866 171.136C230.069 171.136 226.386 167.849 221.907 163.568C217.428 159.286 213.148 156.896 213.446 155.9C213.745 154.904 219.618 156.298 224.595 161.178Z" fill="#F9E6CF"/>
<path opacity="0.5" d="M332.298 273.503C318.86 265.537 305.72 261.753 305.919 261.056C308.877 261.091 311.82 261.492 314.679 262.251C321.537 263.699 328.214 265.903 334.587 268.823C341.914 271.811 347.993 277.224 351.808 284.158C352.596 286.003 353.132 287.946 353.4 289.934C353.4 291.427 353.4 292.125 352.604 292.224C351.808 292.324 350.812 290.432 348.025 286.946C343.604 281.584 338.282 277.035 332.298 273.503Z" fill="#7D7A7C"/>
<path d="M344.342 281.27C342.351 279.378 340.46 277.686 339.266 276.291C338.071 274.897 337.175 274.001 337.474 273.503C337.773 273.005 339.067 273.503 340.858 274.001C343.062 275.281 345.13 276.783 347.03 278.482C351.41 282.963 352.505 288.44 351.509 288.44C350.514 288.44 348.125 284.756 344.342 281.27Z" fill="#F9E6CF"/>
<path opacity="0.5" d="M301.54 285.851C300.963 281.352 299.651 276.979 297.658 272.906C299.932 274.124 301.924 275.81 303.502 277.852C305.08 279.894 306.21 282.247 306.815 284.756C309.802 294.714 305.521 299.792 304.327 299.394C303.132 298.995 301.938 294.714 301.54 285.851Z" fill="#7D7A7C"/>
<path d="M302.933 292.423C302.933 289.834 302.933 287.644 304.526 287.445C306.119 287.245 306.915 289.536 306.815 292.423C306.716 295.311 305.621 297.502 304.526 297.402C303.431 297.303 302.933 294.714 302.933 292.423Z" fill="#F9E6CF"/>
<path opacity="0.5" d="M282.727 323.392C282.358 314.515 281.226 305.686 279.342 297.004C280.993 299.151 282.241 301.58 283.025 304.173C285.525 310.256 287.167 316.658 287.903 323.193C288.729 330.205 287.841 337.313 285.315 343.906C283.523 348.387 281.532 350.079 280.935 349.88C280.338 349.681 281.831 341.615 282.727 323.392Z" fill="#7D7A7C"/>
<path d="M282.727 336.736C283.423 331.657 284.419 327.575 285.414 327.575C286.41 327.575 287.305 331.956 286.509 337.533C285.713 343.109 283.523 346.993 282.428 346.594C281.333 346.196 281.632 341.715 282.727 336.736Z" fill="#F9E6CF"/>
<path opacity="0.5" d="M218.423 377.066L232.856 345.101C234.847 341.117 236.44 337.732 237.535 335.143C238.63 332.554 239.327 331.558 239.526 331.657C239.292 332.975 238.959 334.273 238.53 335.541L235.146 345.499C232.06 354.162 227.879 365.415 223.4 378.559C212.152 409.429 203.492 424.266 202.297 423.669C201.103 423.071 204.189 409.031 218.423 377.066Z" fill="#7D7A7C"/>
<path d="M209.664 400.765C211.332 395.058 214.18 389.766 218.025 385.231C217.708 391.19 216.077 397.005 213.247 402.259C211.625 407.985 208.771 413.287 204.886 417.794C205.271 411.846 206.898 406.045 209.664 400.765Z" fill="#F9E6CF"/>
<path opacity="0.5" d="M247.091 382.742C249.082 371.489 250.774 361.033 252.068 353.366C252.624 349.224 253.49 345.13 254.656 341.117C254.933 345.295 254.933 349.487 254.656 353.664C254.158 361.332 253.661 371.887 252.566 383.538C250.276 411.42 244.603 425.361 243.109 424.864C241.616 424.366 242.313 411.918 247.091 382.742Z" fill="#7D7A7C"/>
<path d="M244.901 404.251C246.294 396.185 247.787 389.613 248.882 389.712C250.232 394.667 250.232 399.893 248.882 404.848C247.588 412.914 245.697 419.387 244.503 419.188C243.522 414.241 243.658 409.138 244.901 404.251Z" fill="#F9E6CF"/>
<path opacity="0.5" d="M258.439 427.054C259.633 408.234 260.828 391.007 261.624 378.36C262.122 372.087 262.52 366.908 262.719 363.324C262.733 361.477 262.967 359.638 263.416 357.847C263.517 359.704 263.517 361.566 263.416 363.423C263.416 367.008 263.416 372.087 263.416 378.36C263.416 391.007 263.416 408.234 263.416 427.253C262.719 473.06 256.746 496.959 255.154 496.262C253.561 495.565 255.253 475.649 258.439 427.054Z" fill="#7D7A7C"/>
<path d="M257.145 462.306C257.086 454.085 258.226 445.9 260.529 438.008C262.053 446.09 262.221 454.368 261.027 462.505C261.07 470.778 259.69 478.997 256.946 486.802C255.891 478.666 255.958 470.424 257.145 462.306Z" fill="#F9E6CF"/>
<path opacity="0.5" d="M268.691 374.377C270.185 363.324 271.279 353.067 271.678 345.499C271.804 341.398 272.17 337.309 272.773 333.251C273.083 334.323 273.284 335.424 273.37 336.537C273.37 338.628 273.868 341.715 274.067 345.499C274.731 355.446 274.731 365.426 274.067 375.373C273.561 385.979 271.132 396.405 266.9 406.143C265.543 408.519 264.047 410.813 262.42 413.014C261.226 414.408 260.23 414.806 259.932 414.607C259.633 414.408 264.212 403.155 268.691 374.377Z" fill="#7D7A7C"/>
<path d="M265.804 395.289C266.424 390.423 267.979 385.723 270.383 381.447C271.578 381.447 271.379 388.219 269.487 396.285C268.503 399.702 267.238 403.033 265.705 406.242C264.212 408.632 263.017 409.927 262.619 409.628C262.221 409.329 262.619 407.736 263.117 405.247C263.614 402.757 264.51 399.073 265.804 395.289Z" fill="#F9E6CF"/>
<path opacity="0.5" d="M302.137 323.492C300.345 314.629 298.354 306.563 296.861 300.688L294.87 293.817C294.749 292.925 294.749 292.021 294.87 291.129C296.802 293.851 298.406 296.793 299.648 299.892C302.797 307.163 305.523 314.611 307.811 322.197C314.082 343.507 313.285 355.357 311.991 355.556C310.697 355.756 306.417 346.395 302.137 323.492Z" fill="#7D7A7C"/>
<path d="M306.517 339.823C305.123 333.45 304.924 328.172 305.919 327.874C306.915 327.575 308.906 332.653 310.299 339.027C311.693 345.4 311.593 350.876 310.299 350.976C309.005 351.076 307.91 346.196 306.517 339.823Z" fill="#F9E6CF"/>
<path opacity="0.5" d="M284.917 434.125C284.22 419.785 283.523 406.442 283.025 396.683C283.025 391.903 283.025 387.92 282.528 385.231C282.397 383.807 282.397 382.374 282.528 380.949C283.076 382.248 283.412 383.627 283.523 385.032C283.523 387.82 284.618 391.704 285.414 396.484C286.907 406.442 288.799 419.287 290.292 433.726C294.273 468.878 290.292 487.499 288.4 487.201C286.509 486.902 286.708 471.268 284.917 434.125Z" fill="#7D7A7C"/>
<path d="M287.107 460.911C286.27 454.625 286.642 448.237 288.201 442.091C290.508 448.047 291.46 454.442 290.989 460.812C292.007 467.128 291.426 473.599 289.296 479.632C287.566 473.55 286.826 467.229 287.107 460.911Z" fill="#F9E6CF"/>
<path opacity="0.5" d="M220.314 75.6389C225.49 93.1648 229.572 109.396 232.359 121.246C233.752 127.121 234.847 132.001 235.544 135.386C236.06 137.102 236.361 138.875 236.44 140.664C235.672 138.957 235.039 137.193 234.549 135.386L230.069 121.744C226.287 110.093 221.21 94.2602 215.238 77.033C207.971 56.3205 202.297 40.6865 198.117 30.5294C195.659 25.4947 193.531 20.3056 191.746 14.995C192.244 14.3976 196.524 17.7833 201.7 27.542C209.633 42.8501 215.875 58.9776 220.314 75.6389Z" fill="#7D7A7C"/>
<path d="M208.27 43.2759C211.763 50.4548 213.889 58.2215 214.541 66.1791C210.262 59.4947 206.913 52.2585 204.587 44.67C201.25 37.531 198.584 30.0969 196.624 22.4638C202.066 28.4044 206.053 35.5293 208.27 43.2759Z" fill="#F9E6CF"/>
<path opacity="0.5" d="M200.506 176.911C205.541 181.486 210.14 186.52 214.242 191.948C216.096 194.132 217.668 196.541 218.921 199.117C218.423 199.117 209.464 189.956 197.221 181.094C191.956 177.08 186.072 173.952 179.801 171.833C175.72 170.737 173.331 171.136 173.032 170.339C172.734 169.542 174.426 167.352 179.801 167.152C187.678 167.708 195.062 171.189 200.506 176.911Z" fill="#7D7A7C"/>
<path d="M187.367 169.542C192.841 171.833 195.927 175.517 195.33 176.314C194.733 177.11 190.651 175.119 185.873 173.127C181.095 171.136 177.114 170.538 176.915 169.443C176.716 168.347 181.892 167.053 187.367 169.542Z" fill="#F9E6CF"/>
<path opacity="0.5" d="M93.8976 183.185C113.806 190.255 132.221 197.524 145.46 203.1L160.988 209.772C162.933 210.588 164.828 211.519 166.662 212.561C164.593 212.129 162.562 211.53 160.59 210.768L144.564 205.092C131.126 200.511 112.512 194.238 92.2054 188.064C67.5193 180.629 48.8389 175.417 36.164 172.43C29.6819 171.38 23.2671 169.951 16.9526 168.148C16.9526 167.451 22.9251 166.057 35.7658 168.148C55.6041 171.168 75.0823 176.207 93.8976 183.185Z" fill="#7D7A7C"/>
<path d="M55.2759 172.43C64.4577 174.291 73.2695 177.656 81.3556 182.388C72.151 181.35 63.0983 179.245 54.38 176.115C45.3239 174.339 36.4082 171.91 27.7031 168.845C37.0435 168.098 46.4367 169.319 55.2759 172.43Z" fill="#F9E6CF"/>
<path opacity="0.5" d="M93.4994 203.499C111.815 208.179 128.339 213.457 140.284 217.241L154.518 222.021C156.259 222.551 157.957 223.217 159.594 224.012C157.775 223.85 155.976 223.517 154.219 223.016L139.985 219.531C127.741 216.643 110.919 212.561 92.6035 208.677C70.406 203.997 53.5836 200.711 42.2359 198.719C36.4375 198.302 30.6801 197.437 25.0154 196.13C25.0154 195.433 30.092 193.641 41.5391 193.939C59.1505 195.263 76.5698 198.467 93.4994 203.499Z" fill="#7D7A7C"/>
<path d="M58.7597 197.026C66.9762 197.728 74.9831 199.993 82.3509 203.698C74.2038 203.775 66.0787 202.838 58.1625 200.91C50.0681 200.117 42.0682 198.549 34.2727 196.23C42.3964 194.718 50.7514 194.989 58.7597 197.026Z" fill="#F9E6CF"/>
<path opacity="0.5" d="M131.823 168.049C145.062 174.522 156.907 181.193 165.269 186.272C169.449 188.761 172.834 190.853 175.223 192.446C176.455 193.171 177.621 194.005 178.707 194.935C177.33 194.537 175.996 194.003 174.725 193.342L164.174 188.363C155.315 184.181 143.071 178.405 129.633 172.928C117.437 167.79 104.977 163.303 92.3052 159.485C87.8401 158.773 83.4671 157.571 79.2654 155.9C79.2654 155.303 83.3466 153.709 92.3052 154.805C106.095 157.1 119.434 161.57 131.823 168.049Z" fill="#7D7A7C"/>
<path d="M105.743 158.688C112.087 160.063 117.999 162.969 122.963 167.152C116.615 166.522 110.402 164.91 104.548 162.372C98.3731 160.959 92.3666 158.889 86.6311 156.199C93.1088 155.203 99.736 156.066 105.743 158.688Z" fill="#F9E6CF"/>
<path opacity="0.5" d="M354.396 258.068C339.465 254.284 326.226 252.791 326.326 252.193C329.135 251.583 332.019 251.382 334.886 251.596C341.742 251.471 348.597 251.87 355.391 252.791C362.935 253.507 370.15 256.222 376.295 260.657C380.376 264.143 380.874 267.23 380.177 267.528C371.893 263.586 363.263 260.42 354.396 258.068Z" fill="#7D7A7C"/>
<path d="M368.232 261.255C363.255 259.263 358.975 257.471 359.274 256.376C359.572 255.28 364.251 255.479 369.228 257.67C374.205 259.861 378.087 263.745 377.191 264.541C376.295 265.338 373.209 263.147 368.232 261.255Z" fill="#F9E6CF"/>
<path opacity="0.5" d="M299.25 146.141C295.766 159.485 292.083 171.534 289.296 180.197L285.713 190.155C285.311 191.435 284.777 192.67 284.12 193.84C284.177 192.495 284.377 191.159 284.717 189.857C285.215 187.268 286.011 183.683 286.907 179.202C288.898 170.239 291.586 157.991 294.174 144.548C297.259 128.317 299.449 116.168 300.743 108.002C301.056 103.783 301.823 99.6094 303.033 95.555C303.829 95.555 305.521 99.1398 305.621 107.604C305.133 120.667 302.992 133.616 299.25 146.141Z" fill="#7D7A7C"/>
<path d="M303.729 120.748C303.409 126.778 301.67 132.646 298.653 137.876C297.951 131.939 298.39 125.923 299.947 120.151C300.291 114.232 301.498 108.394 303.53 102.824C305.282 108.661 305.351 114.874 303.729 120.748Z" fill="#F9E6CF"/>
<path opacity="0.5" d="M384.457 139.569C372.711 150.323 361.961 160.281 354.097 167.65C350.215 171.136 346.93 174.023 344.74 176.115C343.601 177.185 342.368 178.151 341.057 179.002C341.858 177.626 342.828 176.354 343.944 175.218L352.405 165.858C359.771 157.991 369.725 147.236 380.675 135.984C407.252 107.903 422.979 95.4553 423.975 96.1523C424.97 96.8494 414.419 111.288 384.457 139.569Z" fill="#7D7A7C"/>
<path d="M405.062 117.96C400.498 123.32 395.001 127.807 388.837 131.204C388.041 130.408 394.013 123.338 402.076 115.272C406.732 109.847 412.373 105.353 418.699 102.028C415.177 108.136 410.553 113.538 405.062 117.96Z" fill="#F9E6CF"/>
<path opacity="0.5" d="M403.27 173.326L364.051 193.242L352.007 199.516C350.564 200.382 349.028 201.083 347.428 201.607C348.701 200.497 350.067 199.498 351.509 198.619L362.857 191.251C372.811 185.077 385.851 176.812 400.782 168.248C414.263 160.17 428.418 153.274 443.087 147.635C453.041 143.95 458.814 143.652 458.914 144.349C459.013 145.046 454.832 146.938 445.874 151.419L403.27 173.326Z" fill="#7D7A7C"/>
<path d="M431.241 158.091C424.836 161.906 417.888 164.726 410.636 166.456C416.113 161.317 422.537 157.292 429.549 154.606C435.985 150.723 443.183 148.277 450.652 147.436C444.677 151.824 438.151 155.406 431.241 158.091Z" fill="#F9E6CF"/>
<path opacity="0.5" d="M193.837 157.991C200.644 165.494 207.025 173.373 212.948 181.591C215.471 184.911 217.703 188.443 219.618 192.147C216.402 189.362 213.407 186.332 210.659 183.085C205.383 177.509 198.017 169.741 189.656 161.775C182.206 154.475 174.328 147.625 166.065 141.262C160.59 137.079 157.305 135.685 157.504 134.889C157.703 134.092 161.287 133.694 167.458 136.88C177.51 142.18 186.462 149.344 193.837 157.991Z" fill="#7D7A7C"/>
<path d="M177.213 143.652C183.783 148.929 187.964 154.406 187.167 155.103C186.371 155.8 181.095 151.817 174.725 146.639C168.354 141.461 162.879 137.776 163.278 136.681C163.676 135.586 170.644 138.175 177.213 143.652Z" fill="#F9E6CF"/>
<path opacity="0.5" d="M101.662 130.308C118.385 140.266 133.017 150.224 143.469 157.692C148.745 161.377 153.423 164.464 155.812 166.754C157.382 167.808 158.849 169.008 160.192 170.339C158.45 169.567 156.783 168.634 155.215 167.551L142.175 159.684C131.126 153.012 115.996 143.95 99.0741 135.387C83.827 126.829 68.07 119.213 51.8918 112.583C46.1566 110.908 40.5645 108.777 35.1689 106.21C35.1689 105.513 40.7432 104.915 52.1904 107.803C69.6425 112.979 86.292 120.553 101.662 130.308Z" fill="#7D7A7C"/>
<path d="M69.0126 114.574C77.0057 117.371 84.3766 121.7 90.7124 127.321C82.6557 125.167 74.8736 122.093 67.5194 118.159C59.6927 115.39 52.0748 112.062 44.7246 108.201C53.2074 108.396 61.5262 110.579 69.0126 114.574Z" fill="#F9E6CF"/>
<path opacity="0.5" d="M219.618 138.673C224.703 147.232 229.225 156.113 233.155 165.26C235.056 169.067 236.622 173.032 237.834 177.11C235.319 173.695 233.057 170.1 231.065 166.356C226.984 159.684 221.111 150.523 214.74 141.162C209.005 132.608 202.327 124.725 194.832 117.662C189.656 113.28 186.271 112.185 186.371 111.388C186.471 110.591 190.253 109.894 196.922 113.479C206.467 119.855 214.269 128.515 219.618 138.673Z" fill="#7D7A7C"/>
<path d="M205.085 121.545C210.958 127.819 214.143 133.993 213.247 134.59C212.351 135.188 207.872 130.209 202.298 124.632C196.723 119.056 191.547 114.674 191.846 114.077C192.144 113.479 199.71 115.471 205.085 121.545Z" fill="#F9E6CF"/>
<path opacity="0.5" d="M130.031 124.134C145.759 136.382 159.893 148.531 169.051 157.493C173.929 161.974 177.811 165.758 180.399 168.347C181.885 169.618 183.221 171.054 184.381 172.629C182.772 171.579 181.242 170.415 179.802 169.144L167.459 159.186C157.505 151.02 142.972 139.768 126.945 128.217C112.501 117.683 97.4075 108.072 81.754 99.4384C71.1031 93.862 65.1307 92.667 65.2302 91.7708C65.3298 90.8746 71.2027 90.4763 82.5503 94.7582C99.7076 102.214 115.699 112.108 130.031 124.134Z" fill="#7D7A7C"/>
<path d="M98.9743 103.82C106.532 107.778 113.284 113.114 118.882 119.554C111.153 116.211 103.81 112.038 96.9835 107.106C84.9391 99.7373 74.5868 95.555 74.8855 94.2604C83.5944 95.3563 91.8828 98.6455 98.9743 103.82Z" fill="#F9E6CF"/>
<path opacity="0.5" d="M166.761 112.882C177.711 125.429 186.67 137.378 193.737 146.141L201.601 156.696C202.632 157.943 203.501 159.315 204.189 160.779C202.945 159.739 201.781 158.607 200.705 157.394L191.945 147.436C184.48 139.37 174.326 128.117 162.78 116.267C148.944 102.227 138.193 91.7708 130.728 85.5969C126.669 82.5288 122.812 79.2026 119.181 75.6389C119.181 74.8423 124.257 75.6389 132.718 81.2154C145.373 90.2713 156.814 100.914 166.761 112.882Z" fill="#7D7A7C"/>
<path d="M144.464 91.273C150.193 95.7422 154.909 101.376 158.301 107.803C152.155 104.089 146.588 99.4927 141.777 94.1608C136.202 89.7193 131.069 84.7505 126.448 79.3235C133.388 81.6744 139.598 85.7927 144.464 91.273Z" fill="#F9E6CF"/>
<path opacity="0.5" d="M254.557 71.4568C257.443 89.9786 259.335 107.007 260.429 119.454C261.027 125.628 261.425 130.706 261.724 134.291C261.876 136.114 261.876 137.946 261.724 139.768C261.216 138.002 260.817 136.206 260.529 134.391C259.932 130.906 259.036 125.927 257.941 119.852C255.95 107.505 252.964 90.6756 249.48 72.4526C245.001 50.346 241.119 33.8158 238.033 22.6629C234.947 11.51 232.259 6.73023 232.857 6.23234C233.454 5.73444 237.635 9.51846 242.014 20.0739C248.174 36.6566 252.383 53.9003 254.557 71.4568Z" fill="#7D7A7C"/>
<path d="M246.494 37.301C249.129 45.0503 250.31 53.2203 249.977 61.3991C246.566 54.0538 244.156 46.2836 242.811 38.2967C240.321 30.6539 238.424 22.8303 237.137 14.8956C242.056 21.4771 245.271 29.1745 246.494 37.301Z" fill="#F9E6CF"/>
<path opacity="0.5" d="M200.805 101.928C206.976 114.475 211.854 126.225 215.238 135.386C216.93 139.768 218.224 143.253 219.12 145.344C219.679 146.618 220.081 147.956 220.315 149.327C219.401 148.126 218.694 146.779 218.224 145.344L213.048 135.386C208.768 127.221 203.094 115.47 196.027 103.919C189.98 92.9722 183.334 82.3675 176.118 72.1535C171.34 65.3821 168.056 62.793 168.354 62.1956C168.653 61.5981 173.033 62.1956 179.105 68.5686C188.115 78.4249 195.446 89.6946 200.805 101.928Z" fill="#7D7A7C"/>
<path d="M186.869 79.7217C190.763 84.4797 193.429 90.1219 194.633 96.1522C193.638 96.7497 189.158 90.0779 183.584 81.9124C179.733 77.2747 176.395 72.2331 173.63 66.8759C174.625 65.681 181.295 71.2574 186.869 79.7217Z" fill="#F9E6CF"/>
<path opacity="0.5" d="M201.7 82.7094C210.36 103.621 217.229 123.139 221.608 137.378L227.083 154.407C227.775 156.495 228.34 158.623 228.775 160.78C227.717 158.865 226.818 156.867 226.088 154.805L219.617 138.275C213.944 124.334 206.08 105.314 196.723 84.9002C188.422 66.2835 178.809 48.2807 167.956 31.0278C160.49 19.6757 155.016 15.3938 155.414 14.7964C155.812 14.1989 162.182 16.4892 170.942 27.1442C183.711 44.1561 194.062 62.8556 201.7 82.7094Z" fill="#7D7A7C"/>
<path d="M182.29 45.7652C187.705 53.9818 191.646 63.0803 193.936 72.6516C188.192 64.7844 183.162 56.4197 178.905 47.6572C171.141 33.7161 163.377 23.4594 163.974 22.7624C171.829 28.8562 178.109 36.744 182.29 45.7652Z" fill="#F9E6CF"/>
<path opacity="0.5" d="M181.991 108.002C191.945 125.429 200.805 141.76 206.976 153.709C209.863 159.684 212.351 164.663 214.044 168.049C214.942 169.794 215.739 171.59 216.433 173.426C215.196 171.9 214.097 170.267 213.148 168.547L204.786 155.303C197.818 143.851 188.262 128.018 177.413 111.189C164.273 90.3769 154.02 75.6391 146.754 65.6812C139.488 55.7233 135.008 51.3418 135.406 50.6447C135.805 49.9477 141.18 52.4372 149.541 61.4989C161.944 75.8294 172.82 91.4149 181.991 108.002Z" fill="#7D7A7C"/>
<path d="M160.69 76.7346C166.254 83.5538 170.629 91.2631 173.63 99.5382C167.487 93.3666 162.106 86.4795 157.604 79.0249C152.185 72.2392 147.293 65.0485 142.971 57.5158C150.173 62.5925 156.213 69.1438 160.69 76.7346Z" fill="#F9E6CF"/>
<path opacity="0.5" d="M162.382 264.84C171.195 263.025 180.101 261.695 189.059 260.857C192.802 260.545 196.564 260.545 200.307 260.857C196.848 261.798 193.32 262.464 189.756 262.848C183.087 264.441 173.829 266.632 164.074 269.62C152.229 273.204 143.569 276.391 137.895 278.681C132.221 280.972 129.235 282.366 128.837 281.967C128.439 281.569 129.932 278.781 135.108 274.897C143.53 269.951 152.766 266.545 162.382 264.84Z" fill="#7D7A7C"/>
<path d="M143.967 271.113C151.034 268.325 157.106 267.628 157.405 268.624C157.703 269.619 152.129 272.009 145.46 274.698C141.976 275.993 139.089 277.387 136.7 277.984C134.311 278.582 133.117 279.378 132.719 278.88C132.32 278.382 133.415 277.187 135.406 275.594C138.101 273.816 140.969 272.314 143.967 271.113Z" fill="#F9E6CF"/>
<path opacity="0.5" d="M92.4045 279.976C107.663 276.142 123.113 273.117 138.691 270.914C144.763 270.018 149.64 269.42 153.025 269.122C154.813 268.96 156.612 268.96 158.4 269.122L153.224 270.516L139.189 273.702C127.343 276.391 111.118 280.175 93.7981 285.453C78.0735 290.027 62.8106 296.061 48.2084 303.477C38.2543 308.854 34.8699 312.937 34.1732 312.439C33.4764 311.941 35.7658 306.962 44.824 300.19C59.2852 290.543 75.4229 283.687 92.4045 279.976Z" fill="#7D7A7C"/>
<path d="M60.3526 291.925C67.4542 288.206 75.25 286.002 83.2469 285.453C76.5324 289.543 69.389 292.882 61.9452 295.411C50.3985 300.688 41.3403 306.265 40.4444 305.568C39.5485 304.871 48.109 297.303 60.3526 291.925Z" fill="#F9E6CF"/>
<path opacity="0.5" d="M87.7261 272.009C108.231 268.723 127.045 266.632 140.781 265.338L157.106 263.844H163.178C161.276 264.497 159.305 264.931 157.305 265.138L141.179 267.927C127.542 270.217 108.829 273.403 88.6219 277.885C64.2345 282.864 45.919 287.145 33.8745 290.73C21.8301 294.315 16.1563 297.004 15.7581 296.406C15.36 295.809 19.6402 291.527 31.1869 286.448C49.4351 279.538 68.3998 274.695 87.7261 272.009Z" fill="#7D7A7C"/>
<path d="M50.3983 280.872C58.9679 278.048 67.9549 276.701 76.9757 276.889C68.6455 280.498 59.9283 283.138 50.9955 284.756C42.4935 287.479 33.8125 289.609 25.0154 291.129C32.654 285.949 41.3063 282.452 50.3983 280.872Z" fill="#F9E6CF"/>
<path opacity="0.5" d="M81.6541 228.393C101.562 230.584 118.982 232.974 131.425 234.966L146.754 237.455C148.677 237.68 150.577 238.08 152.428 238.65C150.507 238.826 148.575 238.826 146.654 238.65L131.126 237.555L80.6587 233.97C57.0676 232.476 39.2498 231.381 27.3049 230.983C21.2459 231.138 15.1847 230.772 9.18848 229.887C9.18848 229.19 14.3646 227.099 26.1104 226.302C44.6509 225.459 63.2295 226.158 81.6541 228.393Z" fill="#7D7A7C"/>
<path d="M45.0232 226.8C53.5829 226.466 62.1362 227.611 70.3065 230.186C61.8707 231.466 53.3035 231.634 44.8241 230.684C36.3515 230.85 27.883 230.183 19.5408 228.692C27.8247 226.373 36.4878 225.73 45.0232 226.8Z" fill="#F9E6CF"/>
<path opacity="0.5" d="M288.4 153.211C285.812 164.563 283.125 174.92 281.134 182.388C280.162 186.522 278.898 190.582 277.351 194.537C277.47 190.323 277.936 186.127 278.745 181.99C279.84 174.222 281.432 163.667 283.125 152.116C284.31 137.918 287.047 123.893 291.287 110.293C292.979 110.193 295.169 123.835 288.4 153.211Z" fill="#7D7A7C"/>
<path d="M291.287 131.503C290.092 139.868 288.002 146.34 286.907 146.141C285.765 141.16 285.765 135.986 286.907 131.005C287.153 125.898 288.405 120.889 290.59 116.267C292.183 116.367 292.581 123.238 291.287 131.503Z" fill="#F9E6CF"/>
<path opacity="0.5" d="M275.361 103.123C274.166 121.943 272.673 139.171 271.379 151.718C270.682 157.991 270.184 163.07 269.786 166.555C269.735 168.413 269.433 170.255 268.89 172.032C268.723 170.21 268.723 168.377 268.89 166.555C268.89 162.97 268.89 157.892 268.89 151.618C268.89 138.972 269.488 121.744 269.886 102.924C270.483 80.2197 270.782 63.0921 271.08 51.4413C270.785 45.6098 271.152 39.7636 272.175 34.0149C273.967 33.6166 278.745 54.5283 275.361 103.123Z" fill="#7D7A7C"/>
<path d="M275.559 67.8719C276.147 76.087 275.305 84.3417 273.071 92.2688C271.495 84.2383 271.026 76.0297 271.677 67.8719C271.211 59.7091 271.712 51.5198 273.17 43.475C275.525 51.3784 276.336 59.6616 275.559 67.8719Z" fill="#F9E6CF"/>
<path opacity="0.5" d="M289.296 97.8452C286.609 116.566 283.822 133.694 281.532 146.042C280.636 152.216 279.342 157.294 279.342 160.779C279.015 162.595 278.583 164.391 278.048 166.157C277.808 164.339 277.808 162.498 278.048 160.68C278.048 157.095 278.844 152.016 279.442 145.743C280.736 133.196 282.428 115.869 284.319 97.2478C286.509 74.5437 288.201 57.416 289.396 45.8648C289.513 39.983 290.315 34.1348 291.785 28.4385C293.477 28.2393 296.662 49.5493 289.296 97.8452Z" fill="#7D7A7C"/>
<path d="M292.382 62.5942C292.313 70.8425 290.867 79.0212 288.102 86.792C287.056 78.6468 287.224 70.3915 288.599 62.2955C288.737 54.0955 289.84 45.9402 291.884 37.9981C293.582 46.094 293.751 54.4362 292.382 62.5942Z" fill="#F9E6CF"/>
<path opacity="0.5" d="M316.67 151.618C311.792 162.472 306.716 172.331 303.431 179.401C301.611 183.296 299.515 187.056 297.16 190.653C298.157 186.458 299.523 182.36 301.241 178.405C303.929 170.837 307.612 160.68 311.693 149.627C315.994 135.843 321.147 122.341 327.122 109.197C329.112 109.197 329.112 123.636 316.67 151.618Z" fill="#7D7A7C"/>
<path d="M323.737 130.507C320.95 138.573 317.665 144.747 316.67 144.349C316.665 139.147 317.822 134.01 320.054 129.312C322.841 121.346 325.131 114.973 326.226 115.172C326.865 120.416 326.002 125.734 323.737 130.507Z" fill="#F9E6CF"/>
<path opacity="0.5" d="M295.966 349.681C293.875 339.126 291.486 329.765 289.496 322.396C288.245 318.617 287.247 314.758 286.509 310.845C286.509 310.845 287.206 311.841 288.201 313.733C289.197 315.625 290.292 318.214 291.785 321.6C295.465 330.357 298.59 339.337 301.142 348.486C308.508 374.576 303.133 389.513 301.142 388.816C299.151 388.119 300.545 387.92 300.445 386.426C300.088 384.083 299.855 381.723 299.748 379.356C299.094 369.396 297.831 359.486 295.966 349.681Z" fill="#7D7A7C"/>
<path d="M300.047 369.398C298.988 364.744 298.988 359.912 300.047 355.258C301.142 355.258 303.232 361.133 304.028 369C304.825 376.867 303.332 383.439 302.237 383.339C300.721 378.85 299.98 374.136 300.047 369.398Z" fill="#F9E6CF"/>
<path opacity="0.5" d="M302.236 407.238L290.391 360.137C288.898 354.063 287.704 349.084 286.907 345.598C286.414 343.835 286.048 342.037 285.812 340.221C286.674 341.841 287.374 343.542 287.903 345.3C288.998 348.685 290.69 353.565 292.78 359.44C296.762 371.39 302.037 387.82 307.313 405.844C320.652 449.559 321.846 473.956 319.955 473.956C317.607 468.998 315.965 463.736 315.077 458.322C312.29 447.169 308.109 430.739 302.236 407.238Z" fill="#7D7A7C"/>
<path d="M311.593 441.095C309.121 433.291 307.747 425.18 307.512 416.997C311.443 424.223 314.103 432.071 315.376 440.199C317.953 448.026 319.034 456.269 318.561 464.496C315.3 457.007 312.96 449.149 311.593 441.095Z" fill="#F9E6CF"/>
<path opacity="0.5" d="M320.353 374.377C314.579 359.739 308.806 346.495 304.625 336.736L299.748 324.587C299.109 323.203 298.576 321.771 298.155 320.305C298.155 320.305 299.25 321.6 300.743 324.189L306.815 335.143C311.892 344.404 318.561 357.249 325.23 371.688C331.698 384.75 336.737 398.472 340.261 412.615C342.451 422.573 341.754 427.552 341.057 427.552C340.361 427.552 335.782 411.52 320.353 374.377Z" fill="#7D7A7C"/>
<path d="M331.899 400.865C328.978 394.572 327.096 387.846 326.325 380.949C330.677 386.367 333.832 392.646 335.582 399.372C338.525 405.585 339.925 412.417 339.664 419.287C336.342 413.483 333.735 407.297 331.899 400.865Z" fill="#F9E6CF"/>
<path opacity="0.5" d="M355.192 343.806C348.523 333.848 341.654 325.583 336.677 319.31C333.838 316.142 331.18 312.818 328.714 309.352C328.714 309.352 329.809 309.949 331.501 311.443C333.193 312.937 335.582 315.127 338.469 317.916C345.948 325.097 352.963 332.747 359.472 340.819C366.801 349.323 372.351 359.21 375.797 369.896C377.688 377.364 376.693 381.447 375.797 381.447C370.04 368.323 363.145 355.728 355.192 343.806Z" fill="#7D7A7C"/>
<path d="M367.635 361.83C363.752 354.461 360.368 348.387 361.264 347.789C362.16 347.192 366.938 352.37 371.218 360.037C375.498 367.705 376.295 375.074 375.2 375.273C374.105 375.472 371.616 369.199 367.635 361.83Z" fill="#F9E6CF"/>
<path opacity="0.5" d="M344.143 296.506C337.574 290.83 331.103 285.951 326.425 282.465C323.707 280.736 321.172 278.734 318.86 276.491C321.947 277.453 324.919 278.756 327.719 280.374C334.644 283.855 341.298 287.849 347.627 292.324C354.663 296.911 360.527 303.084 364.748 310.348C367.336 315.625 366.938 318.911 366.241 319.011C365.544 319.11 361.165 311.144 344.143 296.506Z" fill="#7D7A7C"/>
<path d="M356.387 306.862C352.305 302.282 348.921 298.498 349.618 297.601C350.315 296.705 354.893 299.394 359.572 304.273C364.25 309.153 365.743 314.231 364.748 314.829C363.753 315.426 360.567 311.343 356.387 306.862Z" fill="#F9E6CF"/>
<path opacity="0.5" d="M388.837 246.318C377.191 244.924 366.341 244.426 358.378 243.928C354.082 243.912 349.793 243.613 345.537 243.032C349.762 242.142 354.061 241.642 358.378 241.538C366.341 241.04 377.191 240.542 389.235 240.941C400.412 240.863 411.488 243.065 421.785 247.413C428.852 250.7 430.744 255.081 430.146 255.38C429.549 255.678 427.16 253.786 420.192 251.994C409.923 249.206 399.432 247.307 388.837 246.318Z" fill="#7D7A7C"/>
<path d="M410.338 248.509C402.275 246.716 395.506 245.322 395.606 244.227C400.747 242.821 406.192 242.995 411.234 244.725C419.794 246.418 425.866 250.799 425.269 251.695C420.208 251.071 415.212 250.005 410.338 248.509Z" fill="#F9E6CF"/>
<path opacity="0.5" d="M325.429 173.127C319.756 180.994 314.48 188.164 310.498 193.043C308.517 195.954 306.286 198.686 303.829 201.208C305.007 197.723 306.577 194.382 308.508 191.251C311.593 185.575 315.973 177.807 320.95 169.443C332.795 149.527 340.858 140.365 342.55 141.162C344.243 141.959 340.062 152.813 325.429 173.127Z" fill="#7D7A7C"/>
<path d="M334.687 157.593C330.904 163.368 327.122 167.551 326.226 167.053C325.33 166.555 327.619 161.277 331.402 155.502C335.184 149.726 338.967 145.544 339.863 146.042C340.759 146.54 338.469 151.817 334.687 157.593Z" fill="#F9E6CF"/>
<path opacity="0.5" d="M405.759 184.181L366.739 201.109L354.695 206.287C353.259 207.02 351.76 207.62 350.215 208.08C350.215 208.08 351.609 206.984 354.197 205.391L365.644 198.918C375.598 193.641 388.638 186.471 403.569 179.003C417.141 172.093 431.34 166.491 445.974 162.273C455.928 159.684 461.502 160.182 461.502 160.979C461.502 161.775 457.321 162.871 448.263 166.456C439.205 170.04 425.369 175.916 405.759 184.181Z" fill="#7D7A7C"/>
<path d="M433.73 171.534C427.443 174.627 420.735 176.775 413.822 177.907C419.445 173.372 425.905 169.989 432.834 167.949C439.343 164.653 446.541 162.947 453.837 162.97C447.501 166.619 440.75 169.495 433.73 171.534Z" fill="#F9E6CF"/>
<path opacity="0.5" d="M387.443 366.51C375.399 352.47 363.852 340.022 355.491 330.96L345.537 320.106C344.277 318.832 343.113 317.468 342.053 316.024C343.585 317.012 345.018 318.146 346.333 319.409L357.183 329.367C366.341 337.831 378.684 349.283 391.425 363.025C403.47 375.068 414.121 388.43 423.178 402.857C429.151 412.815 430.146 418.989 429.45 419.188C428.753 419.387 426.364 415.005 419.495 406.342C412.627 397.679 403.071 384.335 387.443 366.51Z" fill="#7D7A7C"/>
<path d="M410.238 392.301C404.833 386.273 400.217 379.58 396.502 372.385C403.157 377.041 408.866 382.921 413.324 389.712C418.877 395.676 422.996 402.828 425.368 410.624C419.832 404.941 414.772 398.813 410.238 392.301Z" fill="#F9E6CF"/>
<path opacity="0.5" d="M354.794 390.608C347.527 375.97 340.161 362.925 334.886 353.465L328.316 342.213C327.401 340.872 326.633 339.437 326.027 337.931C327.2 339.03 328.236 340.267 329.112 341.615C331.004 344.105 333.791 347.59 336.877 352.171C345.112 363.757 352.754 375.756 359.771 388.119C367.503 401.248 373.271 415.439 376.892 430.241C378.584 440.199 378.286 445.775 376.892 445.775C374.74 441.532 373.199 437.007 372.313 432.332C367.305 418.089 361.455 404.157 354.794 390.608Z" fill="#7D7A7C"/>
<path d="M368.132 417.893C365.047 411.566 362.773 404.874 361.363 397.977C366.027 403.403 369.427 409.797 371.317 416.698C373.028 421.481 374.425 426.371 375.498 431.336C375.498 435.32 375.498 437.709 375.498 437.809C375.498 437.909 374.104 435.618 372.91 432.033C371.716 428.449 370.222 423.37 368.132 417.893Z" fill="#F9E6CF"/>
<path opacity="0.5" d="M349.717 223.116C336.279 225.108 325.031 228.294 324.832 227.697C326.914 226.256 329.151 225.053 331.501 224.112C337.179 221.593 343.035 219.496 349.02 217.838C355.442 215.684 362.339 215.373 368.929 216.942C373.607 218.635 374.901 221.324 374.403 221.821C373.906 222.319 372.014 221.821 368.431 221.821C362.167 221.708 355.906 222.141 349.717 223.116Z" fill="#7D7A7C"/>
<path d="M361.961 220.826C357.283 220.826 353.202 220.826 353.002 219.73C352.803 218.635 356.685 217.042 361.862 216.942C367.038 216.842 371.816 219.033 370.721 220.029C369.626 221.025 366.64 220.527 361.961 220.826Z" fill="#F9E6CF"/>
<path opacity="0.5" d="M361.762 136.482L337.474 166.356L329.909 175.218C328.993 176.384 327.959 177.452 326.823 178.405C327.467 177.262 328.235 176.193 329.112 175.218L335.682 165.26L357.581 133.395C378.385 103.521 391.325 90.1776 392.52 91.0738C393.714 91.97 385.851 106.309 361.762 136.482Z" fill="#7D7A7C"/>
<path d="M377.887 113.678C371.517 122.242 365.644 128.615 364.748 128.018C366.996 121.87 370.372 116.196 374.702 111.288C381.172 102.725 387.045 96.3515 387.941 96.949C385.726 103.134 382.309 108.82 377.887 113.678Z" fill="#F9E6CF"/>
<path opacity="0.5" d="M333.89 114.475C325.529 131.204 317.765 146.54 312.19 157.792C309.304 163.269 306.915 167.75 305.322 170.936C304.493 172.586 303.562 174.183 302.535 175.716C303.016 173.939 303.648 172.207 304.426 170.538C305.72 167.252 307.611 162.472 310 156.796C314.978 145.345 321.647 129.412 329.112 112.185C347.129 70.6601 358.975 50.4455 360.468 51.043C361.961 51.6404 355.292 71.158 333.89 114.475Z" fill="#7D7A7C"/>
<path d="M347.926 82.5099C345.098 90.1406 341.065 97.2682 335.981 103.621C337.562 95.6152 340.419 87.9158 344.442 80.817C347.269 73.1556 351.301 65.9953 356.387 59.6066C354.831 67.6508 351.973 75.3869 347.926 82.5099Z" fill="#F9E6CF"/>
<path opacity="0.5" d="M377.191 277.586C369.448 273.761 361.468 270.435 353.301 267.628C349.896 266.61 346.569 265.345 343.347 263.844C344.339 263.733 345.341 263.733 346.333 263.844C349.006 264.105 351.664 264.504 354.296 265.039C362.959 266.694 371.454 269.127 379.679 272.308C388.735 275.576 396.769 281.175 402.972 288.54C404.275 290.652 405.439 292.847 406.456 295.112C406.456 296.805 406.456 297.701 406.456 297.9C397.771 289.704 387.906 282.856 377.191 277.586Z" fill="#7D7A7C"/>
<path d="M393.316 286.05C390.81 284.421 388.415 282.624 386.15 280.673C384.159 279.279 383.163 278.184 383.362 277.686C383.561 277.188 385.154 277.686 387.444 278.283C390.32 279.616 393.083 281.181 395.705 282.963C398.158 284.993 400.333 287.337 402.176 289.934C403.37 292.125 403.868 293.618 403.47 293.917C403.071 294.216 401.777 293.32 400.185 291.726C398.592 290.133 395.805 288.44 393.316 286.05Z" fill="#F9E6CF"/>
<path opacity="0.5" d="M424.472 271.711C407.551 267.927 391.823 265.238 380.475 263.346L366.838 261.056C365.154 260.816 363.491 260.45 361.861 259.96C363.551 259.83 365.248 259.83 366.938 259.96L380.675 260.956C392.321 261.952 408.247 263.446 425.468 266.433C441.454 268.665 457.02 273.263 471.655 280.075C481.609 285.054 484.794 290.033 484.296 290.73C483.799 291.427 480.116 288.241 470.659 284.756C455.609 279.265 440.171 274.904 424.472 271.711Z" fill="#7D7A7C"/>
<path d="M455.828 278.781C448.497 277.13 441.406 274.553 434.725 271.113C442.345 270.866 449.934 272.188 457.022 274.997C464.481 276.674 471.356 280.318 476.93 285.552C469.779 283.678 462.735 281.418 455.828 278.781Z" fill="#F9E6CF"/>
<path opacity="0.5" d="M327.022 101.729C320.055 121.047 313.385 138.772 308.309 151.518C305.721 157.892 303.63 163.07 302.237 166.654C301.615 168.585 300.745 170.426 299.649 172.131C300.071 170.178 300.603 168.25 301.241 166.356C302.336 162.572 304.028 157.294 306.019 150.722C310.2 137.577 315.973 119.553 321.946 100.036L339.067 46.3627C340.592 40.1509 342.83 34.1363 345.736 28.4384C347.428 28.6375 345.238 51.7399 327.022 101.729Z" fill="#7D7A7C"/>
<path d="M338.171 64.7848C336.16 73.5482 332.802 81.9463 328.217 89.6797C329.187 80.7835 331.294 72.0487 334.488 63.6895C336.513 54.9982 339.553 46.5756 343.546 38.5955C343.295 47.5721 341.476 56.4356 338.171 64.7848Z" fill="#F9E6CF"/>
<path opacity="0.5" d="M381.371 311.742C371.417 305.667 362.956 300.489 356.387 296.805C352.717 294.923 349.161 292.828 345.736 290.531C346.833 290.686 347.904 290.987 348.921 291.428C351.012 292.125 353.898 293.12 357.382 294.614C366.559 298.276 375.501 302.499 384.159 307.261C393.537 312.216 402.017 318.713 409.243 326.48C413.722 332.355 415.016 335.74 414.22 336.437C413.424 337.135 405.46 327.774 381.371 311.742Z" fill="#7D7A7C"/>
<path d="M398.791 323.093C392.42 318.115 387.443 313.833 388.04 313.136C388.638 312.438 394.71 315.028 401.18 320.106C403.866 322.39 406.362 324.888 408.645 327.575C410.238 329.964 410.935 331.558 410.537 331.856C410.138 332.155 408.645 331.259 406.754 329.566C404.863 327.873 401.976 325.583 398.791 323.093Z" fill="#F9E6CF"/>
<path opacity="0.5" d="M447.068 225.008C435.024 225.008 423.875 226.502 415.713 227.298C411.326 227.929 406.905 228.295 402.474 228.394C403.532 227.818 404.674 227.415 405.859 227.199L415.315 224.908C425.694 222.593 436.196 220.864 446.77 219.73C458.104 218.051 469.653 218.524 480.813 221.124C488.477 223.415 491.464 226.701 490.767 227.199C490.07 227.697 487.183 227.199 480.315 225.904C469.274 224.727 458.157 224.427 447.068 225.008Z" fill="#7D7A7C"/>
<path d="M469.664 223.913C464.343 224.237 459.009 223.561 453.937 221.921C458.959 219.793 464.482 219.136 469.863 220.029C478.822 220.527 485.79 223.514 485.392 224.61C480.14 224.986 474.862 224.752 469.664 223.913Z" fill="#F9E6CF"/>
<path opacity="0.5" d="M433.033 201.906L400.782 210.469L390.828 213.058C388.439 213.656 387.145 213.955 387.045 213.756C388.149 213.079 389.316 212.512 390.529 212.063L399.985 208.179C408.048 204.993 419.197 200.91 431.44 196.827C442.707 192.846 454.345 190.01 466.18 188.363C474.243 187.467 478.523 188.363 478.424 189.259C463.607 194.529 448.44 198.755 433.033 201.906Z" fill="#7D7A7C"/>
<path d="M456.027 195.134C450.688 197.118 444.985 197.933 439.304 197.524C443.978 194.238 449.371 192.121 455.032 191.35C460.449 189.386 466.3 188.938 471.954 190.056C466.969 192.635 461.584 194.352 456.027 195.134Z" fill="#F9E6CF"/>
<path opacity="0.5" d="M401.081 140.465C389.434 148.83 378.883 156.796 371.218 162.472L362.061 169.343C360.975 170.265 359.77 171.036 358.477 171.634C359.327 170.505 360.295 169.47 361.364 168.547L369.725 160.68C376.793 154.108 386.647 145.345 397.895 136.183C408.029 127.564 419.078 120.084 430.843 113.878C439.006 109.894 444.082 109.695 444.082 110.392C444.082 111.089 440.897 112.782 434.128 117.562C427.359 122.342 416.211 129.711 401.081 140.465Z" fill="#7D7A7C"/>
<path d="M422.382 124.234C417.549 128.264 412.015 131.369 406.057 133.395C405.46 132.499 411.632 126.723 420.192 120.948C425.096 116.845 431.007 114.128 437.313 113.081C437.811 114.077 430.843 118.458 422.382 124.234Z" fill="#F9E6CF"/>
<path opacity="0.5" d="M429.947 290.232C418.002 285.453 406.655 281.967 398.293 279.478L388.339 276.59L384.756 275.296C384.756 275.296 386.149 275.296 388.538 275.296C390.927 275.296 394.511 276.092 398.492 276.789C409.597 278.803 420.567 281.497 431.341 284.855C443.157 288.078 454.106 293.895 463.393 301.883C469.465 307.858 470.56 312.439 469.764 312.737C468.967 313.036 466.877 310.248 461.004 305.966C451.338 299.464 440.907 294.18 429.947 290.232Z" fill="#7D7A7C"/>
<path d="M452.045 299.294C444.082 294.714 437.313 291.428 437.811 290.332C443.614 290.583 449.218 292.52 453.937 295.909C462.298 300.589 467.275 307.061 466.28 307.759C461.354 305.254 456.599 302.426 452.045 299.294Z" fill="#F9E6CF"/>
<path opacity="0.5" d="M382.765 347.192C371.517 336.039 360.568 326.38 352.903 319.409L342.949 311.045C341.707 310.11 340.572 309.042 339.564 307.858C340.975 308.507 342.31 309.309 343.546 310.248C346.035 311.941 349.618 314.331 353.5 317.517C362.16 323.791 373.408 332.653 385.95 343.308C397.37 352.833 407.42 363.892 415.813 376.169C420.79 384.833 422.283 389.812 421.486 390.21C420.69 390.608 418.102 387.024 412.528 379.555C406.954 372.087 397.398 361.531 382.765 347.192Z" fill="#7D7A7C"/>
<path d="M403.967 367.805C396.502 359.34 390.43 352.37 391.226 351.573C392.022 350.777 399.289 356.652 406.854 365.315C410.062 369.079 412.989 373.073 415.614 377.265C417.405 380.551 418.102 382.841 417.704 383.14C417.306 383.439 415.713 381.646 413.424 378.858C411.134 376.07 407.65 372.087 403.967 367.805Z" fill="#F9E6CF"/>
<path opacity="0.5" d="M355.59 371.29C348.623 359.44 341.854 348.685 336.976 340.819L331.302 331.458C330.53 330.344 329.895 329.14 329.411 327.873C330.441 328.74 331.345 329.745 332.099 330.861C333.791 332.952 336.18 335.84 338.967 339.425C344.641 346.793 352.306 356.951 360.07 368.402C379.978 395.886 383.362 414.209 381.77 414.507C380.177 414.806 374.105 401.761 355.59 371.29Z" fill="#7D7A7C"/>
<path d="M369.526 392.899C366.029 387.976 363.495 382.434 362.061 376.568C362.956 375.97 367.933 382.343 372.91 391.007C376.446 396.012 378.639 401.84 379.281 407.935C378.186 408.333 374.404 401.363 369.526 392.899Z" fill="#F9E6CF"/>
<path opacity="0.5" d="M418.699 318.812C408.745 313.136 399.488 308.854 392.719 304.97C388.918 303.307 385.257 301.343 381.77 299.095C385.847 299.987 389.843 301.219 393.714 302.78C403.068 306.033 412.239 309.789 421.188 314.032C431.001 318.3 439.944 324.343 447.566 331.857C452.643 337.234 453.339 341.815 452.742 341.815C452.145 341.815 450.054 339.823 444.878 335.84C436.524 329.611 427.779 323.924 418.699 318.812Z" fill="#7D7A7C"/>
<path d="M437.413 328.969C430.744 324.388 425.369 320.505 425.966 319.011C426.563 317.517 432.735 320.504 439.603 325.284C446.471 330.064 450.552 335.74 449.557 336.437C448.562 337.134 443.983 333.45 437.413 328.969Z" fill="#F9E6CF"/>
<path opacity="0.5" d="M392.719 157.892L362.857 178.305L353.699 184.579C352.625 185.412 351.455 186.114 350.215 186.67C351.076 185.611 352.043 184.643 353.102 183.782L361.364 176.413C368.332 170.339 378.186 162.174 389.235 153.51C399.301 145.408 410.175 138.367 421.686 132.499C429.45 128.615 434.128 128.018 434.327 128.715C421.034 139.238 407.141 148.98 392.719 157.892Z" fill="#7D7A7C"/>
<path d="M413.523 142.556C405.261 147.934 398.293 152.514 397.596 151.12C396.9 149.726 403.071 144.747 411.433 139.27C416.172 135.326 421.875 132.714 427.956 131.702C423.723 136.031 418.856 139.691 413.523 142.556Z" fill="#F9E6CF"/>
<path opacity="0.5" d="M217.129 429.942L230.269 388.418L234.35 375.672C234.711 374.062 235.315 372.518 236.142 371.091C235.99 372.734 235.724 374.364 235.345 375.97C234.648 379.057 233.753 383.538 232.558 389.015C230.07 399.969 226.586 415.105 222.604 431.436C212.65 471.268 202.696 490.287 201.004 489.491C199.312 488.694 204.289 471.467 217.129 429.942Z" fill="#7D7A7C"/>
<path d="M208.867 460.314C210.492 453.12 213.247 446.23 217.03 439.9C216.841 447.281 215.323 454.567 212.55 461.409C210.896 468.502 207.997 475.244 203.99 481.325C204.409 474.095 206.058 466.989 208.867 460.314Z" fill="#F9E6CF"/>
<path opacity="0.5" d="M319.954 84.2027C315.077 99.5379 310 113.379 306.417 123.437L301.838 135.386C301.336 136.867 300.703 138.3 299.947 139.668C300.11 138.216 300.41 136.782 300.843 135.386L304.127 123.039C306.915 113.081 310.697 98.4426 314.778 83.2069C319.656 64.5856 323.239 50.6445 325.827 40.8857C326.589 35.7298 327.959 30.6824 329.909 25.8492C330.605 25.8492 331.7 30.4299 330.605 39.9895C328.367 55.0129 324.803 69.8085 319.954 84.2027Z" fill="#7D7A7C"/>
<path d="M327.022 55.0259C326.067 62.0966 323.624 68.8844 319.855 74.9418C319.866 67.9658 321.009 61.0378 323.239 54.4284C324.352 47.5573 326.36 40.8617 329.212 34.5126C330.054 41.428 329.305 48.4444 327.022 55.0259Z" fill="#F9E6CF"/>
<path opacity="0.5" d="M368.929 144.548C361.264 152.415 354.197 159.684 349.021 164.464C346.305 167.397 343.377 170.126 340.261 172.629C342.279 169.107 344.611 165.774 347.229 162.671C351.708 156.796 358.079 148.929 365.047 140.366C381.869 119.653 392.719 110.492 393.814 111.886C394.909 113.28 388.14 124.035 368.929 144.548Z" fill="#7D7A7C"/>
<path d="M381.57 128.615C376.295 134.491 371.616 138.573 370.621 138.075C369.625 137.578 373.408 132.001 378.684 126.026C383.959 120.052 388.638 116.068 389.534 116.666C390.43 117.263 386.747 122.74 381.57 128.615Z" fill="#F9E6CF"/>
<path opacity="0.5" d="M356.486 118.259L332.298 152.913L324.733 163.468C323.818 164.787 322.785 166.02 321.647 167.152C322.238 165.658 322.972 164.224 323.837 162.87L330.307 151.618C335.981 142.258 343.646 129.312 352.007 115.371C372.612 81.6137 385.652 65.5814 386.946 66.4776C388.24 67.3739 380.476 83.5057 356.486 118.259Z" fill="#7D7A7C"/>
<path d="M372.512 92.269C369.064 98.6293 364.475 104.3 358.975 108.998C361.139 102.179 364.511 95.8045 368.929 90.1778C372.219 83.8253 376.677 78.1499 382.068 73.4485C380.007 80.2326 376.773 86.6026 372.512 92.269Z" fill="#F9E6CF"/>
</g>
</g>
</g>
<defs>
<clipPath id="clip0_1_10471">
<rect width="495.016" height="504.867" fill="white" transform="translate(0.827148 0.755554)"/>
</clipPath>
</defs>
</svg>
