<svg fill="none" xmlns="http://www.w3.org/2000/svg">
<path d="M474 0H0V84.473H474V0Z" fill="#FF267E"/>
<path d="M153.735 40.5824H125.525V32.3852H159.651V21.0693H109.168V63.2143H125.525V51.8983H153.735V40.5824Z" fill="#000055"/>
<path d="M243.396 49.1379L228.428 21.0693H209.649L233.965 63.2143H252.596L276.89 21.0693H258.385L243.396 49.1379Z" fill="#000055"/>
<path d="M329.328 41.8046C333.069 40.3527 335.574 36.7599 335.644 32.7435C335.644 25.8317 329.812 21.0693 318.339 21.0693H281.308V63.2143H319.202C331.517 63.2143 336.991 58.3465 336.991 51.2872C336.907 47.3467 334.528 43.7854 329.328 41.8046ZM297.245 31.2684H315.497C315.705 31.2263 315.918 31.2052 316.13 31.2052C317.899 31.2052 319.351 32.6613 319.351 34.4293C319.351 36.1973 317.899 37.6534 316.13 37.6534C315.918 37.6534 315.705 37.6323 315.497 37.5901H297.245V31.2684ZM316.823 53.1838H297.245V46.862H316.823C317.031 46.8199 317.244 46.7988 317.457 46.7988C319.225 46.7988 320.678 48.2549 320.678 50.0229C320.678 51.7909 319.225 53.247 317.457 53.247C317.244 53.247 317.031 53.2259 316.823 53.1838Z" fill="#000055"/>
<path d="M361.03 46.7145H389.197V37.5691H361.03V32.3852H392.166V21.0693H344.672V63.2143H392.902V51.8983H361.03V46.7145Z" fill="#000055"/>
<path d="M399.661 21.0693V32.3852H418.019V63.2143H434.566V32.3852H452.902V21.0693H399.661Z" fill="#000055"/>
<path d="M178.658 21.0693L154.364 63.2143H171.753L175.037 56.9979H201.015L204.299 63.2143H222.404L198.089 21.0693H178.658ZM180.763 46.0613L187.942 32.4906L195.121 46.0613H180.763Z" fill="#000055"/>
<path d="M21.7583 37.5881L36.2632 63.2122H54.8943L40.3684 37.5881H21.7583Z" fill="#000055"/>
<path d="M69.3999 37.5881L54.895 63.2122H73.5051L88.01 37.5881H69.3999Z" fill="#000055"/>
<path d="M54.8941 12.0269L40.3682 37.5878H69.399L54.8941 12.0269Z" fill="#000055"/>
</svg>
